SplineFontDB: 3.2
FontName: Gontserrat-BlackItalic
FullName: Gontserrat Black Italic
FamilyName: Gontserrat
Weight: Black
Copyright: Gontserrat is a derivative work of Montserrat under the Open Font License, version 1.1. Copyright 2020 Gabriel Classon (gabeclasson.com). Montserrat copyright 2011 The Montserrat Project Authors (https://github.com/JulietaUla/Montserrat). 
Version: 6.002
ItalicAngle: -11.3
UnderlinePosition: -100
UnderlineWidth: 50
Ascent: 800
Descent: 200
InvalidEm: 0
sfntRevision: 0x00010000
LayerCount: 2
Layer: 0 1 "Back" 1
Layer: 1 1 "Fore" 0
XUID: [1021 930 -1503615855 2528]
StyleMap: 0x0001
FSType: 0
OS2Version: 4
OS2_WeightWidthSlopeOnly: 0
OS2_UseTypoMetrics: 1
CreationTime: 1485852814
ModificationTime: 1642920837
PfmFamily: 81
TTFWeight: 900
TTFWidth: 5
LineGap: 0
VLineGap: 0
Panose: 0 0 10 0 0 0 0 0 0 0
OS2TypoAscent: 968
OS2TypoAOffset: 0
OS2TypoDescent: -251
OS2TypoDOffset: 0
OS2TypoLinegap: 0
OS2WinAscent: 1177
OS2WinAOffset: 0
OS2WinDescent: 496
OS2WinDOffset: 0
HheadAscent: 968
HheadAOffset: 0
HheadDescent: -251
HheadDOffset: 0
OS2SubXSize: 650
OS2SubYSize: 600
OS2SubXOff: -15
OS2SubYOff: 75
OS2SupXSize: 650
OS2SupYSize: 600
OS2SupXOff: 70
OS2SupYOff: 350
OS2StrikeYSize: 50
OS2StrikeYPos: 328
OS2CapHeight: 701
OS2XHeight: 547
OS2Vendor: 'ULA '
OS2CodePages: 20000193.00000000
OS2UnicodeRanges: 20000007.00000001.00000000.00000000
Lookup: 1 0 0 "'rtla' Right to Left Alternates lookup 0" { "'rtla' Right to Left Alternates lookup 0 subtable"  } ['rtla' ('DFLT' <'dflt' > ) ]
Lookup: 1 0 0 "<10,2> Inferiors lookup 1" { "<10,2> Inferiors lookup 1 subtable" ("inferior") } [<10,2> ('DFLT' <'dflt' > ) 'subs' ('DFLT' <'dflt' > ) ]
Lookup: 1 0 0 "<10,1> Superiors lookup 2" { "<10,1> Superiors lookup 2 subtable" ("superior") } [<10,1> ('DFLT' <'dflt' > ) 'sups' ('DFLT' <'dflt' > ) ]
Lookup: 1 0 0 "<11,2> Diagonal Fractions lookup 3" { "<11,2> Diagonal Fractions lookup 3 subtable"  } [<11,2> ('DFLT' <'dflt' > ) 'frac' ('DFLT' <'dflt' > ) ]

StartChar: .notdef
Encoding: 65536 -1 0
Width: 587
Flags: W
LayerCount: 2
Fore
SplineSet
40 0 m 1,0,-1
 40 700 l 1,1,-1
 547 700 l 1,2,-1
 547 0 l 1,3,-1
 40 0 l 1,0,-1
120 70 m 1,4,-1
 467 70 l 1,5,-1
 467 630 l 1,6,-1
 120 630 l 1,7,-1
 120 70 l 1,4,-1
EndSplineSet
EndChar

StartChar: exclam
Encoding: 33 33 5
Width: 297
Flags: W
LayerCount: 2
Fore
SplineSet
340 701 m 1,0,-1
 303 517 l 1,1,-1
 212 258 l 1,2,-1
 78 258 l 1,3,-1
 89 517 l 1,4,-1
 126 701 l 1,5,-1
 340 701 l 1,0,-1
193.5 171.5 m 128,-1,7
 219 146 219 146 219 105 c 0,8,9
 219 56 219 56 187.5 24 c 128,-1,10
 156 -8 156 -8 107 -8 c 0,11,12
 65 -8 65 -8 39.5 17.5 c 128,-1,13
 14 43 14 43 14 84 c 0,14,15
 14 135 14 135 45.5 166 c 128,-1,16
 77 197 77 197 125 197 c 0,17,6
 168 197 168 197 193.5 171.5 c 128,-1,7
EndSplineSet
Substitution2: "<3,3> Small Caps in Latin lookup 11 subtable" exclam.sc
EndChar

StartChar: numbersign
Encoding: 35 35 7
Width: 699
Flags: W
LayerCount: 2
Fore
SplineSet
719 401 m 1,0,-1
 588 401 l 1,1,-1
 565 291 l 1,2,-1
 695 291 l 1,3,-1
 662 138 l 1,4,-1
 532 138 l 1,5,-1
 503 0 l 1,6,-1
 343 0 l 1,7,-1
 372 138 l 1,8,-1
 267 138 l 1,9,-1
 238 0 l 1,10,-1
 78 0 l 1,11,-1
 107 138 l 1,12,-1
 -23 138 l 1,13,-1
 10 291 l 1,14,-1
 140 291 l 1,15,-1
 163 401 l 1,16,-1
 34 401 l 1,17,-1
 66 554 l 1,18,-1
 196 554 l 1,19,-1
 227 701 l 1,20,-1
 387 701 l 1,21,-1
 356 554 l 1,22,-1
 461 554 l 1,23,-1
 492 701 l 1,24,-1
 652 701 l 1,25,-1
 621 554 l 1,26,-1
 751 554 l 1,27,-1
 719 401 l 1,0,-1
405 291 m 1,28,-1
 428 401 l 1,29,-1
 323 401 l 1,30,-1
 300 291 l 1,31,-1
 405 291 l 1,28,-1
EndSplineSet
EndChar

StartChar: dollar
Encoding: 36 36 8
Width: 650
Flags: W
LayerCount: 2
Fore
SplineSet
326 469.5 m 128,-1,1
 350 458 350 458 406 443 c 0,2,3
 474 424 474 424 519.5 404 c 128,-1,4
 565 384 565 384 598.5 343.5 c 128,-1,5
 632 303 632 303 632 237 c 0,6,7
 632 127 632 127 555 65.5 c 128,-1,8
 478 4 478 4 358 -6 c 1,9,-1
 327 -165 l 1,10,-1
 161 -165 l 1,11,-1
 195 4 l 1,12,13
 131 18 131 18 73.5 43.5 c 128,-1,14
 16 69 16 69 -26 104 c 1,15,-1
 77 278 l 1,16,17
 126 234 126 234 202.5 201.5 c 128,-1,18
 279 169 279 169 333 169 c 0,19,20
 361 169 361 169 377 178.5 c 128,-1,21
 393 188 393 188 393 208 c 0,22,23
 393 230 393 230 367 242 c 128,-1,24
 341 254 341 254 285 268 c 0,25,26
 218 286 218 286 173 304.5 c 128,-1,27
 128 323 128 323 95 361.5 c 128,-1,28
 62 400 62 400 62 463 c 0,29,30
 62 565 62 565 136 630.5 c 128,-1,31
 210 696 210 696 334 708 c 1,32,-1
 365 864 l 1,33,-1
 531 864 l 1,34,-1
 498 699 l 1,35,36
 605 679 605 679 683 627 c 1,37,-1
 581 451 l 1,38,39
 526 483 526 483 458.5 508 c 128,-1,40
 391 533 391 533 348 533 c 0,41,42
 302 533 302 533 302 502 c 0,43,0
 302 481 302 481 326 469.5 c 128,-1,1
EndSplineSet
EndChar

StartChar: ampersand
Encoding: 38 38 10
Width: 713
Flags: W
LayerCount: 2
Fore
SplineSet
542 -36 m 1,0,-1
 467 47 l 1,1,2
 376 -10 376 -10 274 -10 c 0,3,4
 205 -10 205 -10 151.5 14.5 c 128,-1,5
 98 39 98 39 68.5 83 c 128,-1,6
 39 127 39 127 39 183 c 0,7,8
 39 251 39 251 80.5 300 c 128,-1,9
 122 349 122 349 194 390 c 1,10,11
 176 422 176 422 169 449.5 c 128,-1,12
 162 477 162 477 162 507 c 0,13,14
 162 602 162 602 224 656.5 c 128,-1,15
 286 711 286 711 395 711 c 0,16,17
 456 711 456 711 502.5 691 c 128,-1,18
 549 671 549 671 575 635.5 c 128,-1,19
 601 600 601 600 601 553 c 0,20,21
 601 477 601 477 552 430 c 128,-1,22
 503 383 503 383 416 342 c 1,23,-1
 474 272 l 1,24,25
 508 322 508 322 527 378 c 1,26,-1
 656 265 l 1,27,28
 623 198 623 198 584 151 c 1,29,30
 602 131 602 131 640 91 c 2,31,-1
 664 65 l 1,32,-1
 542 -36 l 1,0,-1
341 465 m 1,34,35
 384 488 384 488 406 509.5 c 128,-1,36
 428 531 428 531 428 555 c 0,37,38
 428 587 428 587 397 587 c 0,39,40
 370 587 370 587 352 564 c 128,-1,41
 334 541 334 541 334 506 c 0,42,33
 334 486 334 486 341 465 c 1,34,35
362 166 m 1,44,45
 307 231 307 231 274 273 c 1,46,47
 222 239 222 239 222 197 c 0,48,49
 222 174 222 174 239.5 159.5 c 128,-1,50
 257 145 257 145 286 145 c 0,51,43
 325 145 325 145 362 166 c 1,44,45
EndSplineSet
Substitution2: "<3,3> Small Caps in Latin lookup 11 subtable" ampersand.sc
EndChar

StartChar: quotesingle
Encoding: 39 39 11
Width: 288
Flags: W
LayerCount: 2
Fore
SplineSet
313 701 m 1,0,-1
 253 399 l 1,1,-1
 85 399 l 1,2,-1
 145 701 l 1,3,-1
 313 701 l 1,0,-1
EndSplineSet
Substitution2: "<3,3> Small Caps in Latin lookup 11 subtable" quotesingle.sc
EndChar

StartChar: parenleft
Encoding: 40 40 12
Width: 372
Flags: W
LayerCount: 2
Fore
SplineSet
262 291 m 0,1,2
 247 215 247 215 247 139 c 0,3,4
 247 -5 247 -5 298 -125 c 1,5,-1
 107 -125 l 1,6,7
 42 10 42 10 42 168 c 0,8,9
 42 248 42 248 58 327 c 0,10,11
 82 443 82 443 136.5 551 c 128,-1,12
 191 659 191 659 272 742 c 1,13,-1
 477 742 l 1,14,0
 308 519 308 519 262 291 c 0,1,2
EndSplineSet
Substitution2: "'rtla' Right to Left Alternates lookup 0 subtable" parenright
EndChar

StartChar: parenright
Encoding: 41 41 13
Width: 372
Flags: W
LayerCount: 2
Fore
SplineSet
124 326 m 0,1,2
 139 403 139 403 139 478 c 0,3,4
 139 622 139 622 88 742 c 1,5,-1
 279 742 l 1,6,7
 344 607 344 607 344 449 c 0,8,9
 344 369 344 369 328 290 c 0,10,11
 304 174 304 174 249.5 66 c 128,-1,12
 195 -42 195 -42 114 -125 c 1,13,-1
 -91 -125 l 1,14,0
 78 98 78 98 124 326 c 0,1,2
EndSplineSet
Substitution2: "'rtla' Right to Left Alternates lookup 0 subtable" parenleft
EndChar

StartChar: asterisk
Encoding: 42 42 14
Width: 423
Flags: W
LayerCount: 2
Fore
SplineSet
392 400 m 1,0,-1
 316 447 l 1,1,-1
 319 359 l 1,2,-1
 209 359 l 1,3,-1
 212 448 l 1,4,-1
 136 402 l 1,5,-1
 81 496 l 1,6,-1
 159 539 l 1,7,-1
 81 580 l 1,8,-1
 136 677 l 1,9,-1
 211 630 l 1,10,-1
 209 718 l 1,11,-1
 319 718 l 1,12,-1
 317 630 l 1,13,-1
 392 675 l 1,14,-1
 447 580 l 1,15,-1
 368 539 l 1,16,-1
 447 496 l 1,17,-1
 392 400 l 1,0,-1
EndSplineSet
EndChar

StartChar: plus
Encoding: 43 43 15
Width: 520
Flags: W
LayerCount: 2
Fore
SplineSet
515 399 m 1,0,-1
 487 259 l 1,1,-1
 327 259 l 1,2,-1
 295 99 l 1,3,-1
 155 99 l 1,4,-1
 187 259 l 1,5,-1
 27 259 l 1,6,-1
 55 399 l 1,7,-1
 215 399 l 1,8,-1
 247 559 l 1,9,-1
 387 559 l 1,10,-1
 355 399 l 1,11,-1
 515 399 l 1,0,-1
EndSplineSet
EndChar

StartChar: comma
Encoding: 44 44 16
Width: 257
Flags: W
LayerCount: 2
Fore
SplineSet
165 172.5 m 128,-1,1
 191 148 191 148 191 104 c 0,2,3
 191 63 191 63 157 16 c 2,4,-1
 48 -130 l 1,5,-1
 -56 -130 l 1,6,-1
 17 17 l 1,7,8
 -15 43 -15 43 -15 84 c 0,9,10
 -15 133 -15 133 17.5 165 c 128,-1,11
 50 197 50 197 98 197 c 0,12,0
 139 197 139 197 165 172.5 c 128,-1,1
EndSplineSet
EndChar

StartChar: hyphen
Encoding: 45 45 17
Width: 380
Flags: W
LayerCount: 2
Fore
SplineSet
351 379 m 1,0,-1
 323 239 l 1,1,-1
 43 239 l 1,2,-1
 71 379 l 1,3,-1
 351 379 l 1,0,-1
EndSplineSet
EndChar

StartChar: period
Encoding: 46 46 18
Width: 270
Flags: W
LayerCount: 2
Fore
SplineSet
176.5 171.5 m 128,-1,1
 202 146 202 146 202 105 c 0,2,3
 202 56 202 56 170.5 24 c 128,-1,4
 139 -8 139 -8 90 -8 c 0,5,6
 48 -8 48 -8 22.5 17.5 c 128,-1,7
 -3 43 -3 43 -3 84 c 0,8,9
 -3 135 -3 135 28.5 166 c 128,-1,10
 60 197 60 197 108 197 c 0,11,0
 151 197 151 197 176.5 171.5 c 128,-1,1
EndSplineSet
Substitution2: "<3,3> Small Caps in Latin lookup 11 subtable" period.sc
EndChar

StartChar: slash
Encoding: 47 47 19
Width: 428
Flags: W
LayerCount: 2
Fore
SplineSet
528 806 m 1,0,-1
 119 -104 l 1,1,-1
 -69 -104 l 1,2,-1
 340 806 l 1,3,-1
 528 806 l 1,0,-1
EndSplineSet
Substitution2: "<11,2> Diagonal Fractions lookup 3 subtable" fraction
EndChar

StartChar: zero
Encoding: 48 48 20
Width: 754
Flags: W
LayerCount: 2
Fore
SplineSet
658 638.5 m 128,-1,1
 725 569 725 569 725 439 c 0,2,3
 725 305 725 305 677 204 c 128,-1,4
 629 103 629 103 538.5 48 c 128,-1,5
 448 -7 448 -7 324 -7 c 0,6,7
 195 -7 195 -7 127.5 63 c 128,-1,8
 60 133 60 133 60 263 c 0,9,10
 60 397 60 397 107.5 497.5 c 128,-1,11
 155 598 155 598 246 653 c 128,-1,12
 337 708 337 708 463 708 c 0,13,0
 591 708 591 708 658 638.5 c 128,-1,1
333.5 479 m 128,-1,15
 295 418 295 418 295 259 c 0,16,17
 295 207 295 207 309.5 184 c 128,-1,18
 324 161 324 161 356 161 c 0,19,20
 413 161 413 161 451.5 222.5 c 128,-1,21
 490 284 490 284 490 443 c 0,22,23
 490 495 490 495 475.5 517.5 c 128,-1,24
 461 540 461 540 430 540 c 0,25,14
 372 540 372 540 333.5 479 c 128,-1,15
EndSplineSet
Substitution2: "<21,0> Lower Case Numbers lookup 10 subtable" zero.osf
Substitution2: "<6,0> Monospaced Numbers lookup 9 subtable" zero.tf
Substitution2: "<11,2> Diagonal Fractions lookup 4 subtable" zero.numr
Substitution2: "<10,1> Superiors lookup 2 subtable" uni2070
Substitution2: "<10,2> Inferiors lookup 1 subtable" uni2080
EndChar

StartChar: one
Encoding: 49 49 21
Width: 476
Flags: W
LayerCount: 2
Fore
SplineSet
117 701 m 1,0,-1
 471 701 l 1,1,-1
 335 0 l 1,2,-1
 103 0 l 1,3,-1
 203 518 l 1,4,-1
 82 518 l 1,5,-1
 117 701 l 1,0,-1
EndSplineSet
Substitution2: "<21,0> Lower Case Numbers lookup 10 subtable" one.osf
Substitution2: "<6,0> Monospaced Numbers lookup 9 subtable" one.tf
Substitution2: "<11,2> Diagonal Fractions lookup 4 subtable" one.numr
Substitution2: "<10,1> Superiors lookup 2 subtable" uni00B9
Substitution2: "<10,2> Inferiors lookup 1 subtable" uni2081
EndChar

StartChar: two
Encoding: 50 50 22
Width: 667
Flags: W
LayerCount: 2
Fore
SplineSet
339 178 m 1,0,-1
 596 178 l 1,1,-1
 561 0 l 1,2,-1
 11 0 l 1,3,-1
 38 146 l 1,4,-1
 333 399 l 2,5,6
 404 461 404 461 404 495 c 0,7,8
 404 509 404 509 393 517 c 128,-1,9
 382 525 382 525 362 525 c 0,10,11
 323 525 323 525 268.5 501 c 128,-1,12
 214 477 214 477 154 435 c 1,13,-1
 100 602 l 1,14,15
 281 711 281 711 434 711 c 0,16,17
 499 711 499 711 549.5 690.5 c 128,-1,18
 600 670 600 670 628 633 c 128,-1,19
 656 596 656 596 656 548 c 0,20,21
 656 485 656 485 608 423 c 128,-1,22
 560 361 560 361 468 285 c 2,23,-1
 339 178 l 1,0,-1
EndSplineSet
Substitution2: "<21,0> Lower Case Numbers lookup 10 subtable" two.osf
Substitution2: "<6,0> Monospaced Numbers lookup 9 subtable" two.tf
Substitution2: "<11,2> Diagonal Fractions lookup 4 subtable" two.numr
Substitution2: "<10,1> Superiors lookup 2 subtable" uni00B2
Substitution2: "<10,2> Inferiors lookup 1 subtable" uni2082
EndChar

StartChar: three
Encoding: 51 51 23
Width: 663
Flags: W
LayerCount: 2
Fore
SplineSet
641 571 m 1,0,-1
 448 426 l 1,1,-1
 479 419 l 2,2,3
 540 405 540 405 576 362.5 c 128,-1,4
 612 320 612 320 612 257 c 0,5,6
 612 182 612 182 568 121 c 128,-1,7
 524 60 524 60 446 25 c 128,-1,8
 368 -10 368 -10 270 -10 c 0,9,10
 189 -10 189 -10 114.5 15.5 c 128,-1,11
 40 41 40 41 -5 83 c 1,12,-1
 107 239 l 1,13,14
 185 161 185 161 284 161 c 0,15,16
 382 161 382 161 382 235 c 0,17,18
 382 259 382 259 363.5 272.5 c 128,-1,19
 345 286 345 286 309 286 c 2,20,-1
 178 286 l 1,21,-1
 201 406 l 1,22,-1
 361 535 l 1,23,-1
 121 535 l 1,24,-1
 153 702 l 1,25,-1
 666 702 l 1,26,-1
 641 571 l 1,0,-1
EndSplineSet
Substitution2: "<21,0> Lower Case Numbers lookup 10 subtable" three.osf
Substitution2: "<6,0> Monospaced Numbers lookup 9 subtable" three.tf
Substitution2: "<11,2> Diagonal Fractions lookup 4 subtable" three.numr
Substitution2: "<10,1> Superiors lookup 2 subtable" uni00B3
Substitution2: "<10,2> Inferiors lookup 1 subtable" uni2083
EndChar

StartChar: four
Encoding: 52 52 24
Width: 666
Flags: W
LayerCount: 2
Fore
SplineSet
636 301 m 1,0,-1
 603 135 l 1,1,-1
 523 135 l 1,2,-1
 497 0 l 1,3,-1
 286 0 l 1,4,-1
 312 135 l 1,5,-1
 13 135 l 1,6,-1
 43 286 l 1,7,-1
 293 701 l 1,8,-1
 511 701 l 1,9,-1
 274 301 l 1,10,-1
 345 301 l 1,11,-1
 371 435 l 1,12,-1
 582 435 l 1,13,-1
 556 301 l 1,14,-1
 636 301 l 1,0,-1
EndSplineSet
Substitution2: "<21,0> Lower Case Numbers lookup 10 subtable" four.osf
Substitution2: "<6,0> Monospaced Numbers lookup 9 subtable" four.tf
Substitution2: "<11,2> Diagonal Fractions lookup 4 subtable" four.numr
Substitution2: "<10,1> Superiors lookup 2 subtable" uni2074
Substitution2: "<10,2> Inferiors lookup 1 subtable" uni2084
EndChar

StartChar: five
Encoding: 53 53 25
Width: 672
Flags: W
LayerCount: 2
Fore
SplineSet
359 523 m 1,0,-1
 344 449 l 1,1,-1
 376 449 l 2,2,3
 489 449 489 449 554 400.5 c 128,-1,4
 619 352 619 352 619 270 c 0,5,6
 619 190 619 190 574 126.5 c 128,-1,7
 529 63 529 63 449.5 26.5 c 128,-1,8
 370 -10 370 -10 269 -10 c 0,9,10
 195 -10 195 -10 121 15 c 128,-1,11
 47 40 47 40 -4 82 c 1,12,-1
 110 241 l 1,13,14
 191 160 191 160 275 160 c 0,15,16
 319 160 319 160 341.5 179.5 c 128,-1,17
 364 199 364 199 364 233 c 0,18,19
 364 280 364 280 297 280 c 2,20,-1
 99 280 l 1,21,-1
 181 701 l 1,22,-1
 672 701 l 1,23,-1
 638 523 l 1,24,-1
 359 523 l 1,0,-1
EndSplineSet
Substitution2: "<21,0> Lower Case Numbers lookup 10 subtable" five.osf
Substitution2: "<6,0> Monospaced Numbers lookup 9 subtable" five.tf
Substitution2: "<11,2> Diagonal Fractions lookup 4 subtable" five.numr
Substitution2: "<10,1> Superiors lookup 2 subtable" uni2075
Substitution2: "<10,2> Inferiors lookup 1 subtable" uni2085
EndChar

StartChar: six
Encoding: 54 54 26
Width: 676
Flags: W
LayerCount: 2
Fore
SplineSet
121.5 62.5 m 128,-1,1
 56 135 56 135 56 261 c 0,2,3
 56 390 56 390 110 492.5 c 128,-1,4
 164 595 164 595 258.5 653 c 128,-1,5
 353 711 353 711 469 711 c 0,6,7
 533 711 533 711 593 694.5 c 128,-1,8
 653 678 653 678 691 650 c 1,9,-1
 577 496 l 1,10,11
 529 542 529 542 449 542 c 0,12,13
 383 542 383 542 342.5 508.5 c 128,-1,14
 302 475 302 475 290 410 c 1,15,16
 352 467 352 467 444 467 c 0,17,18
 529 467 529 467 577.5 416.5 c 128,-1,19
 626 366 626 366 626 282 c 0,20,21
 626 197 626 197 584 130.5 c 128,-1,22
 542 64 542 64 469 27 c 128,-1,23
 396 -10 396 -10 306 -10 c 0,24,0
 187 -10 187 -10 121.5 62.5 c 128,-1,1
395 189 m 128,-1,26
 417 212 417 212 417 254 c 0,27,28
 417 280 417 280 403 293.5 c 128,-1,29
 389 307 389 307 361 307 c 0,30,31
 319 307 319 307 296.5 283.5 c 128,-1,32
 274 260 274 260 274 220 c 0,33,34
 274 194 274 194 288.5 180 c 128,-1,35
 303 166 303 166 332 166 c 0,36,25
 373 166 373 166 395 189 c 128,-1,26
EndSplineSet
Substitution2: "<21,0> Lower Case Numbers lookup 10 subtable" six.osf
Substitution2: "<6,0> Monospaced Numbers lookup 9 subtable" six.tf
Substitution2: "<11,2> Diagonal Fractions lookup 4 subtable" six.numr
Substitution2: "<10,1> Superiors lookup 2 subtable" uni2076
Substitution2: "<10,2> Inferiors lookup 1 subtable" uni2086
EndChar

StartChar: seven
Encoding: 55 55 27
Width: 657
Flags: W
LayerCount: 2
Fore
SplineSet
128 701 m 1,0,-1
 707 701 l 1,1,-1
 677 547 l 1,2,-1
 330 0 l 1,3,-1
 85 0 l 1,4,-1
 417 523 l 1,5,-1
 298 523 l 1,6,-1
 279 425 l 1,7,-1
 75 425 l 1,8,-1
 128 701 l 1,0,-1
EndSplineSet
Substitution2: "<21,0> Lower Case Numbers lookup 10 subtable" seven.osf
Substitution2: "<6,0> Monospaced Numbers lookup 9 subtable" seven.tf
Substitution2: "<11,2> Diagonal Fractions lookup 4 subtable" seven.numr
Substitution2: "<10,1> Superiors lookup 2 subtable" uni2077
Substitution2: "<10,2> Inferiors lookup 1 subtable" uni2087
EndChar

StartChar: eight
Encoding: 56 56 28
Width: 673
Flags: W
LayerCount: 2
Fore
SplineSet
584 666 m 128,-1,1
 644 621 644 621 644 545 c 0,2,3
 644 496 644 496 616 450 c 128,-1,4
 588 404 588 404 543 375 c 1,5,6
 578 354 578 354 598.5 314 c 128,-1,7
 619 274 619 274 619 228 c 0,8,9
 619 158 619 158 576 104 c 128,-1,10
 533 50 533 50 456 20 c 128,-1,11
 379 -10 379 -10 281 -10 c 0,12,13
 202 -10 202 -10 144 11.5 c 128,-1,14
 86 33 86 33 55 73 c 128,-1,15
 24 113 24 113 24 165 c 0,16,17
 24 229 24 229 68 286.5 c 128,-1,18
 112 344 112 344 181 375 c 1,19,20
 155 397 155 397 140.5 431 c 128,-1,21
 126 465 126 465 126 500 c 0,22,23
 126 561 126 561 163.5 609 c 128,-1,24
 201 657 201 657 268 684 c 128,-1,25
 335 711 335 711 420 711 c 0,26,0
 524 711 524 711 584 666 c 128,-1,1
335 542.5 m 128,-1,28
 315 524 315 524 315 492 c 0,29,30
 315 449 315 449 370 449 c 0,31,32
 408 449 408 449 427.5 466 c 128,-1,33
 447 483 447 483 447 516 c 0,34,35
 447 561 447 561 392 561 c 0,36,27
 355 561 355 561 335 542.5 c 128,-1,28
271.5 263 m 128,-1,38
 248 242 248 242 248 205 c 0,39,40
 248 181 248 181 264.5 168 c 128,-1,41
 281 155 281 155 313 155 c 0,42,43
 358 155 358 155 381.5 175 c 128,-1,44
 405 195 405 195 405 232 c 0,45,46
 405 257 405 257 388 270.5 c 128,-1,47
 371 284 371 284 339 284 c 0,48,37
 295 284 295 284 271.5 263 c 128,-1,38
EndSplineSet
Substitution2: "<21,0> Lower Case Numbers lookup 10 subtable" eight.osf
Substitution2: "<6,0> Monospaced Numbers lookup 9 subtable" eight.tf
Substitution2: "<11,2> Diagonal Fractions lookup 4 subtable" eight.numr
Substitution2: "<10,1> Superiors lookup 2 subtable" uni2078
Substitution2: "<10,2> Inferiors lookup 1 subtable" uni2088
EndChar

StartChar: nine
Encoding: 57 57 29
Width: 676
Flags: W
LayerCount: 2
Fore
SplineSet
256 160 m 0,1,2
 323 160 323 160 363.5 193.5 c 128,-1,3
 404 227 404 227 417 292 c 1,4,5
 352 234 352 234 262 234 c 0,6,7
 178 234 178 234 130 285 c 128,-1,8
 82 336 82 336 82 420 c 0,9,10
 82 505 82 505 123.5 571 c 128,-1,11
 165 637 165 637 237.5 674 c 128,-1,12
 310 711 310 711 401 711 c 0,13,14
 520 711 520 711 585 638.5 c 128,-1,15
 650 566 650 566 650 440 c 0,16,17
 650 311 650 311 596.5 208.5 c 128,-1,18
 543 106 543 106 448.5 48 c 128,-1,19
 354 -10 354 -10 236 -10 c 0,20,21
 174 -10 174 -10 114.5 7 c 128,-1,22
 55 24 55 24 15 52 c 1,23,-1
 129 206 l 1,24,0
 175 160 175 160 256 160 c 0,1,2
311.5 512.5 m 128,-1,26
 290 489 290 489 290 448 c 0,27,28
 290 395 290 395 346 395 c 0,29,30
 388 395 388 395 410.5 418.5 c 128,-1,31
 433 442 433 442 433 482 c 0,32,33
 433 508 433 508 418 522 c 128,-1,34
 403 536 403 536 374 536 c 0,35,25
 333 536 333 536 311.5 512.5 c 128,-1,26
EndSplineSet
Substitution2: "<21,0> Lower Case Numbers lookup 10 subtable" nine.osf
Substitution2: "<6,0> Monospaced Numbers lookup 9 subtable" nine.tf
Substitution2: "<11,2> Diagonal Fractions lookup 4 subtable" nine.numr
Substitution2: "<10,1> Superiors lookup 2 subtable" uni2079
Substitution2: "<10,2> Inferiors lookup 1 subtable" uni2089
EndChar

StartChar: less
Encoding: 60 60 32
Width: 523
Flags: W
LayerCount: 2
Fore
SplineSet
555 597 m 1,0,-1
 524 430 l 1,1,-1
 184 317 l 1,2,-1
 475 194 l 1,3,-1
 448 49 l 1,4,-1
 25 234 l 1,5,-1
 58 412 l 1,6,-1
 555 597 l 1,0,-1
EndSplineSet
Substitution2: "'rtla' Right to Left Alternates lookup 0 subtable" greater
EndChar

StartChar: equal
Encoding: 61 61 33
Width: 520
Flags: W
LayerCount: 2
Fore
SplineSet
537 509 m 1,0,-1
 509 369 l 1,1,-1
 49 369 l 1,2,-1
 77 509 l 1,3,-1
 537 509 l 1,0,-1
493 289 m 1,4,-1
 465 149 l 1,5,-1
 5 149 l 1,6,-1
 33 289 l 1,7,-1
 493 289 l 1,4,-1
EndSplineSet
EndChar

StartChar: greater
Encoding: 62 62 34
Width: 523
Flags: W
LayerCount: 2
Fore
SplineSet
-10 59 m 1,0,-1
 21 226 l 1,1,-1
 361 339 l 1,2,-1
 70 462 l 1,3,-1
 97 607 l 1,4,-1
 520 422 l 1,5,-1
 487 244 l 1,6,-1
 -10 59 l 1,0,-1
EndSplineSet
Substitution2: "'rtla' Right to Left Alternates lookup 0 subtable" less
EndChar

StartChar: question
Encoding: 63 63 35
Width: 495
Flags: W
LayerCount: 2
Fore
SplineSet
126 643.5 m 128,-1,1
 199 711 199 711 316 711 c 0,2,3
 416 711 416 711 471 669 c 128,-1,4
 526 627 526 627 526 550 c 0,5,6
 526 507 526 507 511.5 474 c 128,-1,7
 497 441 497 441 476 418 c 128,-1,8
 455 395 455 395 421 365 c 0,9,10
 384 333 384 333 364 307.5 c 128,-1,11
 344 282 344 282 340 250 c 1,12,-1
 173 250 l 1,13,14
 180 308 180 308 202 342 c 128,-1,15
 224 376 224 376 262 414 c 0,16,17
 288 438 288 438 300.5 456.5 c 128,-1,18
 313 475 313 475 313 499 c 0,19,20
 313 534 313 534 274 534 c 0,21,22
 246 534 246 534 230.5 515 c 128,-1,23
 215 496 215 496 210 455 c 1,24,-1
 38 455 l 1,25,0
 53 576 53 576 126 643.5 c 128,-1,1
315.5 171.5 m 128,-1,27
 341 146 341 146 341 105 c 0,28,29
 341 56 341 56 309.5 24 c 128,-1,30
 278 -8 278 -8 229 -8 c 0,31,32
 187 -8 187 -8 161.5 17.5 c 128,-1,33
 136 43 136 43 136 84 c 0,34,35
 136 135 136 135 167.5 166 c 128,-1,36
 199 197 199 197 247 197 c 0,37,26
 290 197 290 197 315.5 171.5 c 128,-1,27
EndSplineSet
Substitution2: "<3,3> Small Caps in Latin lookup 11 subtable" question.sc
EndChar

StartChar: at
Encoding: 64 64 36
Width: 869
Flags: W
LayerCount: 2
Fore
SplineSet
686 650.5 m 128,-1,1
 767 603 767 603 812 519.5 c 128,-1,2
 857 436 857 436 857 331 c 0,3,4
 857 243 857 243 826 175 c 128,-1,5
 795 107 795 107 742.5 70 c 128,-1,6
 690 33 690 33 627 33 c 0,7,8
 529 33 529 33 519 107 c 2,9,-1
 518 114 l 1,10,11
 487 77 487 77 450 60 c 128,-1,12
 413 43 413 43 376 43 c 0,13,14
 328 43 328 43 287.5 68 c 128,-1,15
 247 93 247 93 222.5 138 c 128,-1,16
 198 183 198 183 198 241 c 0,17,18
 198 308 198 308 228 368.5 c 128,-1,19
 258 429 258 429 310 466 c 128,-1,20
 362 503 362 503 426 503 c 0,21,22
 458 503 458 503 482 491 c 128,-1,23
 506 479 506 479 519.5 465.5 c 128,-1,24
 533 452 533 452 533 450 c 1,25,-1
 539 491 l 1,26,-1
 674 491 l 1,27,-1
 628 166 l 2,28,29
 627 160 627 160 627 151 c 0,30,31
 627 122 627 122 652 122 c 0,32,33
 673 122 673 122 696 147.5 c 128,-1,34
 719 173 719 173 734.5 219 c 128,-1,35
 750 265 750 265 750 322 c 0,36,37
 750 401 750 401 720 464 c 128,-1,38
 690 527 690 527 630.5 563 c 128,-1,39
 571 599 571 599 487 599 c 0,40,41
 393 599 393 599 308.5 548 c 128,-1,42
 224 497 224 497 172.5 411.5 c 128,-1,43
 121 326 121 326 121 228 c 0,44,45
 121 150 121 150 154.5 87.5 c 128,-1,46
 188 25 188 25 247.5 -10.5 c 128,-1,47
 307 -46 307 -46 384 -46 c 0,48,49
 429 -46 429 -46 481 -30 c 128,-1,50
 533 -14 533 -14 577 17 c 1,51,-1
 616 -69 l 1,52,53
 569 -103 569 -103 499.5 -124 c 128,-1,54
 430 -145 430 -145 370 -145 c 0,55,56
 266 -145 266 -145 184.5 -98.5 c 128,-1,57
 103 -52 103 -52 57.5 30.5 c 128,-1,58
 12 113 12 113 12 216 c 0,59,60
 12 346 12 346 80.5 457 c 128,-1,61
 149 568 149 568 261.5 633 c 128,-1,62
 374 698 374 698 501 698 c 0,63,0
 605 698 605 698 686 650.5 c 128,-1,1
373.5 342 m 128,-1,65
 348 305 348 305 348 255 c 0,66,67
 348 216 348 216 363.5 190 c 128,-1,68
 379 164 379 164 407 164 c 0,69,70
 449 164 449 164 475 203 c 128,-1,71
 501 242 501 242 501 294 c 0,72,73
 501 331 501 331 484 355 c 128,-1,74
 467 379 467 379 436 379 c 0,75,64
 399 379 399 379 373.5 342 c 128,-1,65
EndSplineSet
EndChar

StartChar: A
Encoding: 65 65 37
Width: 799
Flags: W
LayerCount: 2
Fore
SplineSet
505 0 m 1,0,-1
 487 99 l 1,1,-1
 224 99 l 1,2,-1
 171 0 l 1,3,-1
 -65 0 l 1,4,-1
 347 701 l 1,5,-1
 585 701 l 1,6,-1
 754 0 l 1,7,-1
 505 0 l 1,0,-1
312 265 m 1,8,-1
 458 265 l 1,9,-1
 421 469 l 1,10,-1
 312 265 l 1,8,-1
EndSplineSet
Substitution2: "<11,2> Diagonal Fractions lookup 7 nested-substitutions 0 subtable" ordfeminine
Substitution2: "<11,2> Diagonal Fractions lookup 5 nested-substitutions 0 subtable" ordfeminine
EndChar

StartChar: B
Encoding: 66 66 38
Width: 725
Flags: W
LayerCount: 2
Fore
SplineSet
663.5 322.5 m 128,-1,1
 692 283 692 283 692 229 c 0,2,3
 692 161 692 161 650.5 109 c 128,-1,4
 609 57 609 57 535 28.5 c 128,-1,5
 461 0 461 0 367 0 c 2,6,-1
 -5 0 l 1,7,-1
 135 701 l 1,8,-1
 490 701 l 2,9,10
 604 701 604 701 670 659.5 c 128,-1,11
 736 618 736 618 736 548 c 0,12,13
 736 489 736 489 694 441 c 128,-1,14
 652 393 652 393 585 374 c 1,15,0
 635 362 635 362 663.5 322.5 c 128,-1,1
469 448 m 128,-1,17
 487 465 487 465 487 491 c 0,18,19
 487 510 487 510 475.5 520.5 c 128,-1,20
 464 531 464 531 443 531 c 2,21,-1
 332 531 l 1,22,-1
 312 431 l 1,23,-1
 423 431 l 2,24,16
 451 431 451 431 469 448 c 128,-1,17
430.5 188 m 128,-1,26
 454 206 454 206 454 234 c 0,27,28
 454 254 454 254 437.5 265.5 c 128,-1,29
 421 277 421 277 392 277 c 2,30,-1
 282 277 l 1,31,-1
 261 170 l 1,32,-1
 371 170 l 2,33,25
 407 170 407 170 430.5 188 c 128,-1,26
EndSplineSet
EndChar

StartChar: C
Encoding: 67 67 39
Width: 714
Flags: W
LayerCount: 2
Fore
SplineSet
609 680.5 m 128,-1,1
 686 645 686 645 735 586 c 1,2,-1
 584 427 l 1,3,4
 557 470 557 470 516.5 496.5 c 128,-1,5
 476 523 476 523 435 523 c 0,6,7
 390 523 390 523 353 499 c 128,-1,8
 316 475 316 475 294 432.5 c 128,-1,9
 272 390 272 390 272 338 c 0,10,11
 272 272 272 272 308 229.5 c 128,-1,12
 344 187 344 187 401 187 c 0,13,14
 439 187 439 187 485 209.5 c 128,-1,15
 531 232 531 232 569 269 c 1,16,-1
 688 126 l 1,17,18
 623 61 623 61 536.5 22.5 c 128,-1,19
 450 -16 450 -16 369 -16 c 0,20,21
 270 -16 270 -16 193.5 27 c 128,-1,22
 117 70 117 70 75 146 c 128,-1,23
 33 222 33 222 33 318 c 0,24,25
 33 430 33 430 88.5 521 c 128,-1,26
 144 612 144 612 240 664 c 128,-1,27
 336 716 336 716 452 716 c 0,28,0
 532 716 532 716 609 680.5 c 128,-1,1
EndSplineSet
EndChar

StartChar: D
Encoding: 68 68 40
Width: 761
Flags: W
LayerCount: 2
Fore
SplineSet
615 662.5 m 128,-1,1
 692 624 692 624 730.5 552.5 c 128,-1,2
 769 481 769 481 764 386 c 0,3,4
 758 271 758 271 699.5 183.5 c 128,-1,5
 641 96 641 96 542 48 c 128,-1,6
 443 0 443 0 317 0 c 2,7,-1
 -4 0 l 1,8,-1
 135 701 l 1,9,-1
 432 701 l 2,10,0
 538 701 538 701 615 662.5 c 128,-1,1
491.5 483.5 m 128,-1,12
 458 521 458 521 399 521 c 2,13,-1
 331 521 l 1,14,-1
 264 180 l 1,15,-1
 359 180 l 2,16,17
 406 180 406 180 444 205.5 c 128,-1,18
 482 231 482 231 503.5 277.5 c 128,-1,19
 525 324 525 324 525 383 c 0,20,11
 525 446 525 446 491.5 483.5 c 128,-1,12
EndSplineSet
EndChar

StartChar: E
Encoding: 69 69 41
Width: 690
Flags: W
LayerCount: 2
Fore
SplineSet
693 525 m 1,0,-1
 332 525 l 1,1,-1
 314 439 l 1,2,-1
 643 439 l 1,3,-1
 608 263 l 1,4,-1
 279 263 l 1,5,-1
 261 176 l 1,6,-1
 632 176 l 1,7,-1
 597 0 l 1,8,-1
 -5 0 l 1,9,-1
 135 701 l 1,10,-1
 728 701 l 1,11,-1
 693 525 l 1,0,-1
EndSplineSet
EndChar

StartChar: F
Encoding: 70 70 42
Width: 631
Flags: W
LayerCount: 2
Fore
SplineSet
664 525 m 1,0,-1
 332 525 l 1,1,-1
 308 404 l 1,2,-1
 619 404 l 1,3,-1
 584 228 l 1,4,-1
 273 228 l 1,5,-1
 227 0 l 1,6,-1
 -5 0 l 1,7,-1
 135 701 l 1,8,-1
 699 701 l 1,9,-1
 664 525 l 1,0,-1
EndSplineSet
EndChar

StartChar: G
Encoding: 71 71 43
Width: 744
Flags: W
LayerCount: 2
Fore
SplineSet
453 404 m 1,0,-1
 757 404 l 1,1,-1
 691 76 l 1,2,3
 627 35 627 35 539 9.5 c 128,-1,4
 451 -16 451 -16 378 -16 c 0,5,6
 277 -16 277 -16 198.5 27 c 128,-1,7
 120 70 120 70 76.5 145.5 c 128,-1,8
 33 221 33 221 33 317 c 0,9,10
 33 430 33 430 90.5 521 c 128,-1,11
 148 612 148 612 247 664 c 128,-1,12
 346 716 346 716 467 716 c 0,13,14
 549 716 549 716 622.5 686 c 128,-1,15
 696 656 696 656 748 606 c 1,16,-1
 601 447 l 1,17,18
 569 482 569 482 529 502.5 c 128,-1,19
 489 523 489 523 446 523 c 0,20,21
 399 523 399 523 359 498 c 128,-1,22
 319 473 319 473 295.5 429.5 c 128,-1,23
 272 386 272 386 272 334 c 0,24,25
 272 265 272 265 311.5 221 c 128,-1,26
 351 177 351 177 413 177 c 0,27,28
 450 177 450 177 505 199 c 1,29,-1
 514 244 l 1,30,-1
 421 244 l 1,31,-1
 453 404 l 1,0,-1
EndSplineSet
EndChar

StartChar: H
Encoding: 72 72 44
Width: 865
Flags: W
LayerCount: 2
Fore
SplineSet
626 701 m 1,0,-1
 858 701 l 1,1,-1
 718 0 l 1,2,-1
 486 0 l 1,3,-1
 537 253 l 1,4,-1
 320 253 l 1,5,-1
 269 0 l 1,6,-1
 37 0 l 1,7,-1
 177 701 l 1,8,-1
 409 701 l 1,9,-1
 355 429 l 1,10,-1
 572 429 l 1,11,-1
 626 701 l 1,0,-1
EndSplineSet
EndChar

StartChar: I
Encoding: 73 73 45
Width: 332
Flags: W
LayerCount: 2
Fore
SplineSet
367 701 m 1,0,-1
 227 0 l 1,1,-1
 -5 0 l 1,2,-1
 135 701 l 1,3,-1
 367 701 l 1,0,-1
EndSplineSet
EndChar

StartChar: J
Encoding: 74 74 46
Width: 570
Flags: W
LayerCount: 2
Fore
SplineSet
615 701 m 1,0,-1
 522 237 l 2,1,2
 499 120 499 120 415 55 c 128,-1,3
 331 -10 331 -10 209 -10 c 0,4,5
 46 -10 46 -10 -40 112 c 1,6,-1
 95 262 l 1,7,8
 126 223 126 223 161.5 203 c 128,-1,9
 197 183 197 183 225 183 c 0,10,11
 250 183 250 183 267 198 c 128,-1,12
 284 213 284 213 290 242 c 2,13,-1
 345 518 l 1,14,-1
 107 518 l 1,15,-1
 144 701 l 1,16,-1
 615 701 l 1,0,-1
EndSplineSet
EndChar

StartChar: K
Encoding: 75 75 47
Width: 769
Flags: W
LayerCount: 2
Fore
SplineSet
847 701 m 1,0,-1
 537 410 l 1,1,-1
 714 0 l 1,2,-1
 445 0 l 1,3,-1
 349 235 l 1,4,-1
 257 148 l 1,5,-1
 227 0 l 1,6,-1
 -5 0 l 1,7,-1
 135 701 l 1,8,-1
 367 701 l 1,9,-1
 316 446 l 1,10,-1
 571 701 l 1,11,-1
 847 701 l 1,0,-1
EndSplineSet
EndChar

StartChar: L
Encoding: 76 76 48
Width: 584
Flags: W
LayerCount: 2
Fore
SplineSet
266 193 m 1,0,-1
 558 193 l 1,1,-1
 519 0 l 1,2,-1
 -5 0 l 1,3,-1
 135 701 l 1,4,-1
 367 701 l 1,5,-1
 266 193 l 1,0,-1
EndSplineSet
EndChar

StartChar: M
Encoding: 77 77 49
Width: 943
Flags: W
LayerCount: 2
Fore
SplineSet
728 701 m 1,0,-1
 974 701 l 1,1,-1
 838 0 l 1,2,-1
 635 0 l 1,3,-1
 709 383 l 1,4,-1
 507 68 l 1,5,-1
 356 68 l 1,6,-1
 277 384 l 1,7,-1
 202 0 l 1,8,-1
 -1 0 l 1,9,-1
 135 701 l 1,10,-1
 381 701 l 1,11,-1
 484 335 l 1,12,-1
 728 701 l 1,0,-1
EndSplineSet
EndChar

StartChar: N
Encoding: 78 78 50
Width: 781
Flags: W
LayerCount: 2
Fore
SplineSet
606 701 m 1,0,-1
 816 701 l 1,1,-1
 676 0 l 1,2,-1
 482 0 l 1,3,-1
 278 358 l 1,4,-1
 206 0 l 1,5,-1
 -5 0 l 1,6,-1
 135 701 l 1,7,-1
 329 701 l 1,8,-1
 534 341 l 1,9,-1
 606 701 l 1,0,-1
EndSplineSet
EndChar

StartChar: O
Encoding: 79 79 51
Width: 807
Flags: W
LayerCount: 2
Fore
SplineSet
639.5 673.5 m 128,-1,1
 719 631 719 631 763 556 c 128,-1,2
 807 481 807 481 807 385 c 0,3,4
 807 272 807 272 751 180.5 c 128,-1,5
 695 89 695 89 598 36.5 c 128,-1,6
 501 -16 501 -16 383 -16 c 0,7,8
 280 -16 280 -16 200.5 27 c 128,-1,9
 121 70 121 70 77 146 c 128,-1,10
 33 222 33 222 33 318 c 0,11,12
 33 431 33 431 89 522 c 128,-1,13
 145 613 145 613 242 664.5 c 128,-1,14
 339 716 339 716 457 716 c 0,15,0
 560 716 560 716 639.5 673.5 c 128,-1,1
358.5 498 m 128,-1,17
 320 473 320 473 296 429.5 c 128,-1,18
 272 386 272 386 272 334 c 0,19,20
 272 290 272 290 290 254 c 128,-1,21
 308 218 308 218 338.5 197.5 c 128,-1,22
 369 177 369 177 405 177 c 0,23,24
 448 177 448 177 485.5 202.5 c 128,-1,25
 523 228 523 228 545.5 272 c 128,-1,26
 568 316 568 316 568 369 c 0,27,28
 568 436 568 436 531.5 479.5 c 128,-1,29
 495 523 495 523 440 523 c 0,30,16
 397 523 397 523 358.5 498 c 128,-1,17
EndSplineSet
Substitution2: "<11,2> Diagonal Fractions lookup 7 nested-substitutions 0 subtable" ordmasculine
Substitution2: "<11,2> Diagonal Fractions lookup 5 nested-substitutions 0 subtable" ordmasculine
EndChar

StartChar: P
Encoding: 80 80 52
Width: 699
Flags: W
LayerCount: 2
Fore
SplineSet
644 648.5 m 128,-1,1
 707 596 707 596 707 500 c 0,2,3
 707 405 707 405 665 333 c 128,-1,4
 623 261 623 261 544.5 221.5 c 128,-1,5
 466 182 466 182 360 182 c 2,6,-1
 263 182 l 1,7,-1
 227 0 l 1,8,-1
 -5 0 l 1,9,-1
 135 701 l 1,10,-1
 464 701 l 2,11,0
 581 701 581 701 644 648.5 c 128,-1,1
455.5 386.5 m 128,-1,13
 482 415 482 415 482 462 c 0,14,15
 482 492 482 492 465 508.5 c 128,-1,16
 448 525 448 525 417 525 c 2,17,-1
 332 525 l 1,18,-1
 299 358 l 1,19,-1
 384 358 l 2,20,12
 429 358 429 358 455.5 386.5 c 128,-1,13
EndSplineSet
EndChar

StartChar: Q
Encoding: 81 81 53
Width: 810
Flags: W
LayerCount: 2
Fore
SplineSet
670.5 1.5 m 128,-1,1
 700 13 700 13 745 38 c 1,2,-1
 796 -99 l 1,3,4
 748 -134 748 -134 684.5 -155.5 c 128,-1,5
 621 -177 621 -177 566 -177 c 0,6,7
 490 -177 490 -177 438 -133.5 c 128,-1,8
 386 -90 386 -90 371 -16 c 1,9,10
 271 -14 271 -14 194.5 30 c 128,-1,11
 118 74 118 74 75.5 149 c 128,-1,12
 33 224 33 224 33 318 c 0,13,14
 33 431 33 431 89 522 c 128,-1,15
 145 613 145 613 242 664.5 c 128,-1,16
 339 716 339 716 457 716 c 0,17,18
 560 716 560 716 639.5 673.5 c 128,-1,19
 719 631 719 631 763 556 c 128,-1,20
 807 481 807 481 807 385 c 0,21,22
 807 263 807 263 741 165.5 c 128,-1,23
 675 68 675 68 565 21 c 1,24,25
 572 7 572 7 584.5 -1.5 c 128,-1,26
 597 -10 597 -10 613 -10 c 0,27,0
 641 -10 641 -10 670.5 1.5 c 128,-1,1
290 254 m 128,-1,29
 308 218 308 218 338.5 197.5 c 128,-1,30
 369 177 369 177 405 177 c 0,31,32
 448 177 448 177 485.5 202.5 c 128,-1,33
 523 228 523 228 545.5 272 c 128,-1,34
 568 316 568 316 568 369 c 0,35,36
 568 436 568 436 531.5 479.5 c 128,-1,37
 495 523 495 523 440 523 c 0,38,39
 397 523 397 523 358.5 498 c 128,-1,40
 320 473 320 473 296 429.5 c 128,-1,41
 272 386 272 386 272 334 c 0,42,28
 272 290 272 290 290 254 c 128,-1,29
EndSplineSet
EndChar

StartChar: R
Encoding: 82 82 54
Width: 725
Flags: W
LayerCount: 2
Fore
SplineSet
687.5 335 m 128,-1,1
 646 264 646 264 568 225 c 1,2,-1
 660 0 l 1,3,-1
 398 0 l 1,4,-1
 350 182 l 1,5,-1
 263 182 l 1,6,-1
 227 0 l 1,7,-1
 -5 0 l 1,8,-1
 135 701 l 1,9,-1
 474 701 l 2,10,11
 597 701 597 701 663 648.5 c 128,-1,12
 729 596 729 596 729 499 c 0,13,0
 729 406 729 406 687.5 335 c 128,-1,1
299 358 m 1,14,-1
 406 358 l 2,15,16
 451 358 451 358 477.5 386.5 c 128,-1,17
 504 415 504 415 504 462 c 0,18,19
 504 492 504 492 487 508.5 c 128,-1,20
 470 525 470 525 439 525 c 2,21,-1
 332 525 l 1,22,-1
 299 358 l 1,14,-1
EndSplineSet
EndChar

StartChar: S
Encoding: 83 83 55
Width: 650
Flags: W
LayerCount: 2
Fore
SplineSet
549 695 m 128,-1,1
 628 672 628 672 685 634 c 1,2,-1
 582 457 l 1,3,4
 529 490 529 490 461.5 515 c 128,-1,5
 394 540 394 540 350 540 c 0,6,7
 329 540 329 540 316.5 532 c 128,-1,8
 304 524 304 524 304 507 c 0,9,10
 304 485 304 485 329.5 472 c 128,-1,11
 355 459 355 459 410 444 c 0,12,13
 478 424 478 424 522.5 404 c 128,-1,14
 567 384 567 384 600 343 c 128,-1,15
 633 302 633 302 633 235 c 0,16,17
 633 153 633 153 589.5 96.5 c 128,-1,18
 546 40 546 40 473.5 13 c 128,-1,19
 401 -14 401 -14 314 -14 c 0,20,21
 221 -14 221 -14 129.5 16.5 c 128,-1,22
 38 47 38 47 -26 100 c 1,23,-1
 78 275 l 1,24,25
 126 229 126 229 202.5 196.5 c 128,-1,26
 279 164 279 164 333 164 c 0,27,28
 361 164 361 164 377 174.5 c 128,-1,29
 393 185 393 185 393 206 c 0,30,31
 393 229 393 229 367 241.5 c 128,-1,32
 341 254 341 254 284 269 c 0,33,34
 217 287 217 287 172.5 306 c 128,-1,35
 128 325 128 325 95.5 364.5 c 128,-1,36
 63 404 63 404 63 468 c 0,37,38
 63 543 63 543 104 600 c 128,-1,39
 145 657 145 657 218.5 687.5 c 128,-1,40
 292 718 292 718 388 718 c 0,41,0
 470 718 470 718 549 695 c 128,-1,1
EndSplineSet
EndChar

StartChar: T
Encoding: 84 84 56
Width: 642
Flags: W
LayerCount: 2
Fore
SplineSet
722 701 m 1,0,-1
 685 518 l 1,1,-1
 485 518 l 1,2,-1
 381 0 l 1,3,-1
 149 0 l 1,4,-1
 253 518 l 1,5,-1
 54 518 l 1,6,-1
 91 701 l 1,7,-1
 722 701 l 1,0,-1
EndSplineSet
EndChar

StartChar: U
Encoding: 85 85 57
Width: 754
Flags: W
LayerCount: 2
Fore
SplineSet
718 297 m 2,0,1
 700 204 700 204 647 135 c 128,-1,2
 594 66 594 66 513.5 28 c 128,-1,3
 433 -10 433 -10 333 -10 c 0,4,5
 244 -10 244 -10 177.5 19.5 c 128,-1,6
 111 49 111 49 74.5 104 c 128,-1,7
 38 159 38 159 38 233 c 0,8,9
 38 259 38 259 45 297 c 2,10,-1
 126 701 l 1,11,-1
 358 701 l 1,12,-1
 277 297 l 2,13,14
 274 284 274 284 274 271 c 0,15,16
 274 231 274 231 299 207 c 128,-1,17
 324 183 324 183 362 183 c 0,18,19
 406 183 406 183 441 214.5 c 128,-1,20
 476 246 476 246 486 297 c 2,21,-1
 567 701 l 1,22,-1
 799 701 l 1,23,-1
 718 297 l 2,0,1
EndSplineSet
EndChar

StartChar: V
Encoding: 86 86 58
Width: 764
Flags: W
LayerCount: 2
Fore
SplineSet
617 701 m 1,0,-1
 854 701 l 1,1,-1
 470 0 l 1,2,-1
 230 0 l 1,3,-1
 80 701 l 1,4,-1
 328 701 l 1,5,-1
 397 242 l 1,6,-1
 617 701 l 1,0,-1
EndSplineSet
EndChar

StartChar: W
Encoding: 87 87 59
Width: 1121
Flags: W
LayerCount: 2
Fore
SplineSet
974 701 m 1,0,-1
 1211 701 l 1,1,-1
 866 0 l 1,2,-1
 627 0 l 1,3,-1
 600 418 l 1,4,-1
 430 0 l 1,5,-1
 191 0 l 1,6,-1
 80 701 l 1,7,-1
 328 701 l 1,8,-1
 358 242 l 1,9,-1
 538 700 l 1,10,-1
 764 701 l 1,11,-1
 794 242 l 1,12,-1
 974 701 l 1,0,-1
EndSplineSet
EndChar

StartChar: X
Encoding: 88 88 60
Width: 782
Flags: W
LayerCount: 2
Fore
SplineSet
827 701 m 1,0,-1
 544 367 l 1,1,-1
 732 0 l 1,2,-1
 454 0 l 1,3,-1
 366 181 l 1,4,-1
 220 0 l 1,5,-1
 -51 0 l 1,6,-1
 254 356 l 1,7,-1
 80 701 l 1,8,-1
 350 701 l 1,9,-1
 425 536 l 1,10,-1
 554 701 l 1,11,-1
 827 701 l 1,0,-1
EndSplineSet
EndChar

StartChar: Y
Encoding: 89 89 61
Width: 719
Flags: W
LayerCount: 2
Fore
SplineSet
814 701 m 1,0,-1
 483 216 l 1,1,-1
 447 0 l 1,2,-1
 215 0 l 1,3,-1
 250 213 l 1,4,-1
 75 701 l 1,5,-1
 306 701 l 1,6,-1
 402 431 l 1,7,-1
 583 701 l 1,8,-1
 814 701 l 1,0,-1
EndSplineSet
EndChar

StartChar: Z
Encoding: 90 90 62
Width: 695
Flags: W
LayerCount: 2
Fore
SplineSet
729 701 m 1,0,-1
 705 556 l 1,1,-1
 316 178 l 1,2,-1
 650 178 l 1,3,-1
 620 0 l 1,4,-1
 -23 0 l 1,5,-1
 1 145 l 1,6,-1
 392 523 l 1,7,-1
 76 523 l 1,8,-1
 105 701 l 1,9,-1
 729 701 l 1,0,-1
EndSplineSet
EndChar

StartChar: bracketleft
Encoding: 91 91 63
Width: 381
Flags: W
LayerCount: 2
Fore
SplineSet
465 742 m 1,0,-1
 431 576 l 1,1,-1
 314 576 l 1,2,-1
 208 42 l 1,3,-1
 325 42 l 1,4,-1
 291 -124 l 1,5,-1
 -26 -124 l 1,6,-1
 148 742 l 1,7,-1
 465 742 l 1,0,-1
EndSplineSet
Substitution2: "'rtla' Right to Left Alternates lookup 0 subtable" bracketright
EndChar

StartChar: backslash
Encoding: 92 92 64
Width: 736
Flags: W
LayerCount: 2
Fore
SplineSet
67 806 m 1,0,-1
 255 806 l 1,1,-1
 664 -104 l 1,2,-1
 476 -104 l 1,3,-1
 67 806 l 1,0,-1
EndSplineSet
EndChar

StartChar: bracketright
Encoding: 93 93 65
Width: 381
Flags: W
LayerCount: 2
Fore
SplineSet
-70 -124 m 1,0,-1
 -36 42 l 1,1,-1
 81 42 l 1,2,-1
 187 576 l 1,3,-1
 70 576 l 1,4,-1
 104 742 l 1,5,-1
 421 742 l 1,6,-1
 247 -124 l 1,7,-1
 -70 -124 l 1,0,-1
EndSplineSet
Substitution2: "'rtla' Right to Left Alternates lookup 0 subtable" bracketleft
EndChar

StartChar: asciicircum
Encoding: 94 94 66
Width: 608
Flags: W
LayerCount: 2
Fore
SplineSet
552 143 m 1,0,-1
 400 143 l 1,1,-1
 336 404 l 1,2,-1
 164 143 l 1,3,-1
 4 143 l 1,4,-1
 265 523 l 1,5,-1
 443 523 l 1,6,-1
 552 143 l 1,0,-1
EndSplineSet
EndChar

StartChar: underscore
Encoding: 95 95 67
Width: 599
Flags: W
LayerCount: 2
Fore
SplineSet
528 -84 m 1,0,-1
 504 -204 l 1,1,-1
 -95 -204 l 1,2,-1
 -71 -84 l 1,3,-1
 528 -84 l 1,0,-1
EndSplineSet
EndChar

StartChar: a
Encoding: 97 97 69
Width: 690
Flags: W
LayerCount: 2
Fore
SplineSet
111 22 m 128,-1,1
 65 52 65 52 39.5 106 c 128,-1,2
 14 160 14 160 14 229 c 0,3,4
 14 319 14 319 51.5 393.5 c 128,-1,5
 89 468 89 468 153.5 511.5 c 128,-1,6
 218 555 218 555 296 555 c 0,7,8
 348 555 348 555 387.5 534.5 c 128,-1,9
 427 514 427 514 450 475 c 1,10,-1
 464 547 l 1,11,-1
 689 547 l 1,12,-1
 580 0 l 1,13,-1
 355 0 l 1,14,-1
 366 54 l 1,15,16
 298 -8 298 -8 216 -8 c 0,17,0
 157 -8 157 -8 111 22 c 128,-1,1
358.5 177.5 m 128,-1,19
 382 195 382 195 395.5 224.5 c 128,-1,20
 409 254 409 254 409 288 c 0,21,22
 409 326 409 326 390 348.5 c 128,-1,23
 371 371 371 371 339 371 c 0,24,25
 298 371 298 371 269.5 333.5 c 128,-1,26
 241 296 241 296 241 244 c 0,27,28
 241 204 241 204 258.5 182 c 128,-1,29
 276 160 276 160 308 160 c 0,30,18
 335 160 335 160 358.5 177.5 c 128,-1,19
EndSplineSet
Substitution2: "<3,3> Small Caps in Latin lookup 11 subtable" a.sc
Substitution2: "<11,2> Diagonal Fractions lookup 7 nested-substitutions 0 subtable" ordfeminine
Substitution2: "<11,2> Diagonal Fractions lookup 5 nested-substitutions 0 subtable" ordfeminine
EndChar

StartChar: b
Encoding: 98 98 70
Width: 696
Flags: W
LayerCount: 2
Fore
SplineSet
585 525 m 128,-1,1
 631 495 631 495 656.5 441 c 128,-1,2
 682 387 682 387 682 318 c 0,3,4
 682 228 682 228 644.5 153.5 c 128,-1,5
 607 79 607 79 542.5 35.5 c 128,-1,6
 478 -8 478 -8 400 -8 c 0,7,8
 348 -8 348 -8 308.5 12.5 c 128,-1,9
 269 33 269 33 246 72 c 1,10,-1
 232 0 l 1,11,-1
 7 0 l 1,12,-1
 154 742 l 1,13,-1
 379 742 l 1,14,-1
 330 493 l 1,15,16
 398 555 398 555 480 555 c 0,17,0
 539 555 539 555 585 525 c 128,-1,1
337.5 369.5 m 128,-1,19
 314 352 314 352 300.5 322.5 c 128,-1,20
 287 293 287 293 287 259 c 0,21,22
 287 221 287 221 306 198.5 c 128,-1,23
 325 176 325 176 357 176 c 0,24,25
 398 176 398 176 426.5 213.5 c 128,-1,26
 455 251 455 251 455 303 c 0,27,28
 455 343 455 343 437.5 365 c 128,-1,29
 420 387 420 387 388 387 c 0,30,18
 361 387 361 387 337.5 369.5 c 128,-1,19
EndSplineSet
Substitution2: "<3,3> Small Caps in Latin lookup 11 subtable" b.sc
EndChar

StartChar: c
Encoding: 99 99 71
Width: 577
Flags: W
LayerCount: 2
Fore
SplineSet
138 22.5 m 128,-1,1
 79 53 79 53 47.5 109.5 c 128,-1,2
 16 166 16 166 16 242 c 0,3,4
 16 334 16 334 56 405.5 c 128,-1,5
 96 477 96 477 168.5 516 c 128,-1,6
 241 555 241 555 335 555 c 0,7,8
 424 555 424 555 488 513.5 c 128,-1,9
 552 472 552 472 578 397 c 1,10,-1
 392 321 l 1,11,12
 375 373 375 373 327 373 c 0,13,14
 290 373 290 373 267 341 c 128,-1,15
 244 309 244 309 244 257 c 0,16,17
 244 217 244 217 260.5 193.5 c 128,-1,18
 277 170 277 170 307 170 c 0,19,20
 357 170 357 170 380 229 c 1,21,-1
 553 145 l 1,22,23
 516 72 516 72 443.5 32 c 128,-1,24
 371 -8 371 -8 277 -8 c 0,25,0
 197 -8 197 -8 138 22.5 c 128,-1,1
EndSplineSet
Substitution2: "<3,3> Small Caps in Latin lookup 11 subtable" c.sc
EndChar

StartChar: d
Encoding: 100 100 72
Width: 695
Flags: W
LayerCount: 2
Fore
SplineSet
111 22 m 128,-1,1
 65 52 65 52 39.5 106 c 128,-1,2
 14 160 14 160 14 229 c 0,3,4
 14 319 14 319 51.5 393.5 c 128,-1,5
 89 468 89 468 153.5 511.5 c 128,-1,6
 218 555 218 555 296 555 c 0,7,8
 348 555 348 555 387.5 534.5 c 128,-1,9
 427 514 427 514 450 475 c 1,10,-1
 503 742 l 1,11,-1
 728 742 l 1,12,-1
 580 0 l 1,13,-1
 355 0 l 1,14,-1
 366 54 l 1,15,16
 298 -8 298 -8 216 -8 c 0,17,0
 157 -8 157 -8 111 22 c 128,-1,1
358.5 177.5 m 128,-1,19
 382 195 382 195 395.5 224.5 c 128,-1,20
 409 254 409 254 409 288 c 0,21,22
 409 326 409 326 390 348.5 c 128,-1,23
 371 371 371 371 339 371 c 0,24,25
 298 371 298 371 269.5 333.5 c 128,-1,26
 241 296 241 296 241 244 c 0,27,28
 241 204 241 204 258.5 182 c 128,-1,29
 276 160 276 160 308 160 c 0,30,18
 335 160 335 160 358.5 177.5 c 128,-1,19
EndSplineSet
Substitution2: "<3,3> Small Caps in Latin lookup 11 subtable" d.sc
EndChar

StartChar: e
Encoding: 101 101 73
Width: 623
Flags: W
LayerCount: 2
Fore
SplineSet
474 522.5 m 128,-1,1
 538 491 538 491 572.5 433.5 c 128,-1,2
 607 376 607 376 607 301 c 0,3,4
 607 264 607 264 598 223 c 1,5,-1
 236 223 l 1,6,7
 247 157 247 157 322 157 c 0,8,9
 379 157 379 157 432 198 c 1,10,-1
 548 84 l 1,11,12
 451 -7 451 -7 314 -7 c 0,13,14
 223 -7 223 -7 155.5 23 c 128,-1,15
 88 53 88 53 51.5 109 c 128,-1,16
 15 165 15 165 15 239 c 0,17,18
 15 329 15 329 54.5 401 c 128,-1,19
 94 473 94 473 164.5 513.5 c 128,-1,20
 235 554 235 554 324 554 c 0,21,0
 410 554 410 554 474 522.5 c 128,-1,1
394 350 m 0,23,24
 394 372 394 372 379 387 c 128,-1,25
 364 402 364 402 340 402 c 0,26,27
 314 402 314 402 290.5 381.5 c 128,-1,28
 267 361 267 361 252 327 c 1,29,-1
 389 327 l 1,30,22
 394 340 394 340 394 350 c 0,23,24
EndSplineSet
Substitution2: "<3,3> Small Caps in Latin lookup 11 subtable" e.sc
EndChar

StartChar: f
Encoding: 102 102 74
Width: 423
Flags: W
LayerCount: 2
Fore
SplineSet
396 561.5 m 128,-1,1
 375 545 375 545 370 523 c 2,2,-1
 369 517 l 1,3,-1
 474 517 l 1,4,-1
 446 375 l 1,5,-1
 340 375 l 1,6,-1
 265 0 l 1,7,-1
 41 0 l 1,8,-1
 116 375 l 1,9,-1
 41 375 l 1,10,-1
 69 517 l 1,11,-1
 144 517 l 1,12,-1
 156 575 l 2,13,14
 173 659 173 659 238.5 705.5 c 128,-1,15
 304 752 304 752 402 752 c 0,16,17
 473 752 473 752 540 729 c 1,18,-1
 487 569 l 1,19,20
 475 573 475 573 463 575.5 c 128,-1,21
 451 578 451 578 443 578 c 0,22,0
 417 578 417 578 396 561.5 c 128,-1,1
EndSplineSet
Substitution2: "<3,3> Small Caps in Latin lookup 11 subtable" f.sc
EndChar

StartChar: g
Encoding: 103 103 75
Width: 660
Flags: W
LayerCount: 2
Fore
SplineSet
81 -182 m 128,-1,1
 13 -160 13 -160 -34 -128 c 1,2,-1
 57 13 l 1,3,4
 89 -8 89 -8 133 -19 c 128,-1,5
 177 -30 177 -30 218 -30 c 0,6,7
 268 -30 268 -30 301 -5.5 c 128,-1,8
 334 19 334 19 341 60 c 2,9,-1
 344 78 l 1,10,11
 281 32 281 32 206 32 c 0,12,13
 151 32 151 32 108 59 c 128,-1,14
 65 86 65 86 41 134.5 c 128,-1,15
 17 183 17 183 17 245 c 0,16,17
 17 331 17 331 52.5 402 c 128,-1,18
 88 473 88 473 148.5 514 c 128,-1,19
 209 555 209 555 282 555 c 0,20,21
 330 555 330 555 366 537 c 128,-1,22
 402 519 402 519 424 484 c 1,23,-1
 437 547 l 1,24,-1
 662 547 l 1,25,-1
 560 36 l 2,26,27
 539 -76 539 -76 448.5 -140 c 128,-1,28
 358 -204 358 -204 229 -204 c 0,29,0
 149 -204 149 -204 81 -182 c 128,-1,1
359.5 230 m 128,-1,31
 385 260 385 260 385 301 c 0,32,33
 385 333 385 333 369 352 c 128,-1,34
 353 371 353 371 327 371 c 0,35,36
 293 371 293 371 268.5 338.5 c 128,-1,37
 244 306 244 306 244 260 c 0,38,39
 244 231 244 231 258.5 215.5 c 128,-1,40
 273 200 273 200 299 200 c 0,41,30
 334 200 334 200 359.5 230 c 128,-1,31
EndSplineSet
Substitution2: "<3,3> Small Caps in Latin lookup 11 subtable" g.sc
EndChar

StartChar: h
Encoding: 104 104 76
Width: 691
Flags: W
LayerCount: 2
Fore
SplineSet
581 532 m 128,-1,1
 621 509 621 509 643.5 468 c 128,-1,2
 666 427 666 427 666 375 c 0,3,4
 666 353 666 353 661 325 c 2,5,-1
 596 0 l 1,6,-1
 371 0 l 1,7,-1
 429 291 l 2,8,9
 431 305 431 305 431 312 c 0,10,11
 431 338 431 338 417.5 352.5 c 128,-1,12
 404 367 404 367 380 367 c 0,13,14
 348 367 348 367 320.5 338.5 c 128,-1,15
 293 310 293 310 285 267 c 2,16,-1
 232 0 l 1,17,-1
 7 0 l 1,18,-1
 154 742 l 1,19,-1
 379 742 l 1,20,-1
 327 479 l 1,21,22
 394 555 394 555 488 555 c 0,23,0
 541 555 541 555 581 532 c 128,-1,1
EndSplineSet
Substitution2: "<3,3> Small Caps in Latin lookup 11 subtable" h.sc
EndChar

StartChar: k
Encoding: 107 107 79
Width: 684
Flags: W
LayerCount: 2
Fore
SplineSet
743 547 m 1,0,-1
 487 324 l 1,1,-1
 618 0 l 1,2,-1
 359 0 l 1,3,-1
 309 169 l 1,4,-1
 255 123 l 1,5,-1
 231 0 l 1,6,-1
 6 0 l 1,7,-1
 154 742 l 1,8,-1
 379 742 l 1,9,-1
 312 407 l 1,10,-1
 465 547 l 1,11,-1
 743 547 l 1,0,-1
EndSplineSet
Substitution2: "<3,3> Small Caps in Latin lookup 11 subtable" k.sc
EndChar

StartChar: l
Encoding: 108 108 80
Width: 346
Flags: W
LayerCount: 2
Fore
SplineSet
379 742 m 1,0,-1
 231 0 l 1,1,-1
 6 0 l 1,2,-1
 154 742 l 1,3,-1
 379 742 l 1,0,-1
EndSplineSet
Substitution2: "<3,3> Small Caps in Latin lookup 11 subtable" l.sc
EndChar

StartChar: m
Encoding: 109 109 81
Width: 1050
Flags: W
LayerCount: 2
Fore
SplineSet
940 532 m 128,-1,1
 980 509 980 509 1002.5 468 c 128,-1,2
 1025 427 1025 427 1025 375 c 0,3,4
 1025 353 1025 353 1020 325 c 2,5,-1
 955 0 l 1,6,-1
 730 0 l 1,7,-1
 788 291 l 2,8,9
 790 305 790 305 790 312 c 0,10,11
 790 338 790 338 776.5 352.5 c 128,-1,12
 763 367 763 367 739 367 c 0,13,14
 709 367 709 367 683.5 342.5 c 128,-1,15
 658 318 658 318 647 280 c 2,16,-1
 591 0 l 1,17,-1
 366 0 l 1,18,-1
 424 291 l 2,19,20
 426 305 426 305 426 312 c 0,21,22
 426 338 426 338 412.5 352.5 c 128,-1,23
 399 367 399 367 375 367 c 0,24,25
 343 367 343 367 315.5 338.5 c 128,-1,26
 288 310 288 310 280 267 c 2,27,-1
 227 0 l 1,28,-1
 2 0 l 1,29,-1
 110 547 l 1,30,-1
 335 547 l 1,31,-1
 322 479 l 1,32,33
 389 555 389 555 483 555 c 0,34,35
 544 555 544 555 588.5 523 c 128,-1,36
 633 491 633 491 651 438 c 1,37,38
 737 555 737 555 847 555 c 0,39,0
 900 555 900 555 940 532 c 128,-1,1
EndSplineSet
Substitution2: "<3,3> Small Caps in Latin lookup 11 subtable" m.sc
EndChar

StartChar: n
Encoding: 110 110 82
Width: 686
Flags: W
LayerCount: 2
Fore
SplineSet
576 532 m 128,-1,1
 616 509 616 509 638.5 468 c 128,-1,2
 661 427 661 427 661 375 c 0,3,4
 661 353 661 353 656 325 c 2,5,-1
 591 0 l 1,6,-1
 366 0 l 1,7,-1
 424 291 l 2,8,9
 426 305 426 305 426 312 c 0,10,11
 426 338 426 338 412.5 352.5 c 128,-1,12
 399 367 399 367 375 367 c 0,13,14
 343 367 343 367 315.5 338.5 c 128,-1,15
 288 310 288 310 280 267 c 2,16,-1
 227 0 l 1,17,-1
 2 0 l 1,18,-1
 110 547 l 1,19,-1
 335 547 l 1,20,-1
 322 479 l 1,21,22
 389 555 389 555 483 555 c 0,23,0
 536 555 536 555 576 532 c 128,-1,1
EndSplineSet
Substitution2: "<3,3> Small Caps in Latin lookup 11 subtable" n.sc
EndChar

StartChar: o
Encoding: 111 111 83
Width: 654
Flags: W
LayerCount: 2
Fore
SplineSet
506.5 524 m 128,-1,1
 570 493 570 493 604 436 c 128,-1,2
 638 379 638 379 638 302 c 0,3,4
 638 210 638 210 595.5 139.5 c 128,-1,5
 553 69 553 69 476.5 30.5 c 128,-1,6
 400 -8 400 -8 300 -8 c 0,7,8
 213 -8 213 -8 149.5 23.5 c 128,-1,9
 86 55 86 55 51.5 112 c 128,-1,10
 17 169 17 169 17 246 c 0,11,12
 17 338 17 338 59.5 408 c 128,-1,13
 102 478 102 478 179 516.5 c 128,-1,14
 256 555 256 555 356 555 c 0,15,0
 443 555 443 555 506.5 524 c 128,-1,1
271 343.5 m 128,-1,17
 245 310 245 310 245 257 c 0,18,19
 245 215 245 215 264 190 c 128,-1,20
 283 165 283 165 317 165 c 0,21,22
 358 165 358 165 384 198.5 c 128,-1,23
 410 232 410 232 410 285 c 0,24,25
 410 327 410 327 391 352 c 128,-1,26
 372 377 372 377 338 377 c 0,27,16
 297 377 297 377 271 343.5 c 128,-1,17
EndSplineSet
Substitution2: "<3,3> Small Caps in Latin lookup 11 subtable" o.sc
Substitution2: "<11,2> Diagonal Fractions lookup 7 nested-substitutions 0 subtable" ordmasculine
Substitution2: "<11,2> Diagonal Fractions lookup 5 nested-substitutions 0 subtable" ordmasculine
EndChar

StartChar: p
Encoding: 112 112 84
Width: 695
Flags: W
LayerCount: 2
Fore
SplineSet
584 525 m 128,-1,1
 630 495 630 495 655.5 441 c 128,-1,2
 681 387 681 387 681 318 c 0,3,4
 681 228 681 228 643.5 153.5 c 128,-1,5
 606 79 606 79 541.5 35.5 c 128,-1,6
 477 -8 477 -8 399 -8 c 0,7,8
 347 -8 347 -8 307.5 12.5 c 128,-1,9
 268 33 268 33 245 72 c 1,10,-1
 192 -194 l 1,11,-1
 -33 -194 l 1,12,-1
 115 547 l 1,13,-1
 340 547 l 1,14,-1
 329 493 l 1,15,16
 397 555 397 555 479 555 c 0,17,0
 538 555 538 555 584 525 c 128,-1,1
336.5 369.5 m 128,-1,19
 313 352 313 352 299.5 322.5 c 128,-1,20
 286 293 286 293 286 259 c 0,21,22
 286 221 286 221 305 198.5 c 128,-1,23
 324 176 324 176 356 176 c 0,24,25
 397 176 397 176 425.5 213.5 c 128,-1,26
 454 251 454 251 454 303 c 0,27,28
 454 343 454 343 436.5 365 c 128,-1,29
 419 387 419 387 387 387 c 0,30,18
 360 387 360 387 336.5 369.5 c 128,-1,19
EndSplineSet
Substitution2: "<3,3> Small Caps in Latin lookup 11 subtable" p.sc
EndChar

StartChar: q
Encoding: 113 113 85
Width: 694
Flags: W
LayerCount: 2
Fore
SplineSet
111 22 m 128,-1,1
 65 52 65 52 39.5 106 c 128,-1,2
 14 160 14 160 14 229 c 0,3,4
 14 319 14 319 51.5 393.5 c 128,-1,5
 89 468 89 468 153.5 511.5 c 128,-1,6
 218 555 218 555 296 555 c 0,7,8
 348 555 348 555 387.5 534.5 c 128,-1,9
 427 514 427 514 450 475 c 1,10,-1
 464 547 l 1,11,-1
 689 547 l 1,12,-1
 541 -194 l 1,13,-1
 316 -194 l 1,14,-1
 366 54 l 1,15,16
 298 -8 298 -8 216 -8 c 0,17,0
 157 -8 157 -8 111 22 c 128,-1,1
358.5 177.5 m 128,-1,19
 382 195 382 195 395.5 224.5 c 128,-1,20
 409 254 409 254 409 288 c 0,21,22
 409 326 409 326 390 348.5 c 128,-1,23
 371 371 371 371 339 371 c 0,24,25
 298 371 298 371 269.5 333.5 c 128,-1,26
 241 296 241 296 241 244 c 0,27,28
 241 204 241 204 258.5 182 c 128,-1,29
 276 160 276 160 308 160 c 0,30,18
 335 160 335 160 358.5 177.5 c 128,-1,19
EndSplineSet
Substitution2: "<3,3> Small Caps in Latin lookup 11 subtable" q.sc
EndChar

StartChar: r
Encoding: 114 114 86
Width: 465
Flags: W
LayerCount: 2
Fore
SplineSet
497 557 m 1,1,-1
 471 355 l 1,2,3
 451 358 451 358 434 358 c 0,4,5
 373 358 373 358 329.5 328.5 c 128,-1,6
 286 299 286 299 277 252 c 1,7,-1
 276 252 l 1,8,-1
 226 0 l 1,9,-1
 1 0 l 1,10,-1
 110 547 l 1,11,-1
 335 547 l 1,12,-1
 321 476 l 1,13,0
 393 557 393 557 497 557 c 1,1,-1
EndSplineSet
Substitution2: "<3,3> Small Caps in Latin lookup 11 subtable" r.sc
EndChar

StartChar: s
Encoding: 115 115 87
Width: 556
Flags: W
LayerCount: 2
Fore
SplineSet
114 19 m 128,-1,1
 36 47 36 47 -23 98 c 1,2,-1
 67 226 l 1,3,4
 118 186 118 186 168 164 c 128,-1,5
 218 142 218 142 259 142 c 0,6,7
 296 142 296 142 296 164 c 0,8,9
 296 173 296 173 282.5 179.5 c 128,-1,10
 269 186 269 186 235 199 c 0,11,12
 184 218 184 218 148.5 236 c 128,-1,13
 113 254 113 254 86 286.5 c 128,-1,14
 59 319 59 319 59 366 c 0,15,16
 59 421 59 421 88 464 c 128,-1,17
 117 507 117 507 169.5 531 c 128,-1,18
 222 555 222 555 290 555 c 0,19,20
 362 555 362 555 435.5 529.5 c 128,-1,21
 509 504 509 504 574 457 c 1,22,-1
 478 331 l 1,23,24
 425 366 425 366 378.5 386 c 128,-1,25
 332 406 332 406 301 406 c 0,26,27
 287 406 287 406 278 400 c 128,-1,28
 269 394 269 394 269 384 c 0,29,30
 269 373 269 373 284.5 365 c 128,-1,31
 300 357 300 357 337 342 c 0,32,33
 388 322 388 322 423 304 c 128,-1,34
 458 286 458 286 484 254.5 c 128,-1,35
 510 223 510 223 510 176 c 0,36,37
 510 122 510 122 480.5 80 c 128,-1,38
 451 38 451 38 398 14.5 c 128,-1,39
 345 -9 345 -9 276 -9 c 0,40,0
 192 -9 192 -9 114 19 c 128,-1,1
EndSplineSet
Substitution2: "<3,3> Small Caps in Latin lookup 11 subtable" s.sc
EndChar

StartChar: t
Encoding: 116 116 88
Width: 467
Flags: W
LayerCount: 2
Fore
SplineSet
293 201 m 2,0,1
 291 189 291 189 291 186 c 0,2,3
 291 162 291 162 317 164 c 0,4,5
 339 164 339 164 381 181 c 1,6,-1
 401 20 l 1,7,8
 372 5 372 5 329 -2.5 c 128,-1,9
 286 -10 286 -10 244 -10 c 0,10,11
 160 -10 160 -10 111 32.5 c 128,-1,12
 62 75 62 75 62 144 c 0,13,14
 62 166 62 166 66 185 c 2,15,-1
 104 375 l 1,16,-1
 29 375 l 1,17,-1
 57 517 l 1,18,-1
 132 517 l 1,19,-1
 163 670 l 1,20,-1
 387 670 l 1,21,-1
 356 517 l 1,22,-1
 484 517 l 1,23,-1
 456 375 l 1,24,-1
 328 375 l 1,25,-1
 293 201 l 2,0,1
EndSplineSet
Substitution2: "<3,3> Small Caps in Latin lookup 11 subtable" t.sc
EndChar

StartChar: u
Encoding: 117 117 89
Width: 686
Flags: W
LayerCount: 2
Fore
SplineSet
110 15 m 128,-1,1
 70 38 70 38 47.5 79 c 128,-1,2
 25 120 25 120 25 172 c 0,3,4
 25 194 25 194 30 222 c 2,5,-1
 95 547 l 1,6,-1
 320 547 l 1,7,-1
 262 256 l 2,8,9
 260 242 260 242 260 235 c 0,10,11
 260 209 260 209 273.5 194.5 c 128,-1,12
 287 180 287 180 311 180 c 0,13,14
 343 180 343 180 370.5 208.5 c 128,-1,15
 398 237 398 237 406 280 c 2,16,-1
 459 547 l 1,17,-1
 684 547 l 1,18,-1
 576 0 l 1,19,-1
 351 0 l 1,20,-1
 364 68 l 1,21,22
 297 -8 297 -8 203 -8 c 0,23,0
 150 -8 150 -8 110 15 c 128,-1,1
EndSplineSet
Substitution2: "<3,3> Small Caps in Latin lookup 11 subtable" u.sc
EndChar

StartChar: v
Encoding: 118 118 90
Width: 612
Flags: W
LayerCount: 2
Fore
SplineSet
677 547 m 1,0,-1
 366 0 l 1,1,-1
 136 0 l 1,2,-1
 45 547 l 1,3,-1
 273 547 l 1,4,-1
 290 204 l 1,5,-1
 448 547 l 1,6,-1
 677 547 l 1,0,-1
EndSplineSet
Substitution2: "<3,3> Small Caps in Latin lookup 11 subtable" v.sc
EndChar

StartChar: w
Encoding: 119 119 91
Width: 977
Flags: W
LayerCount: 2
Fore
SplineSet
1042 547 m 1,0,-1
 733 0 l 1,1,-1
 513 0 l 1,2,-1
 494 288 l 1,3,-1
 354 0 l 1,4,-1
 134 0 l 1,5,-1
 45 547 l 1,6,-1
 269 547 l 1,7,-1
 290 221 l 1,8,-1
 440 547 l 1,9,-1
 648 547 l 1,10,-1
 669 221 l 1,11,-1
 821 547 l 1,12,-1
 1042 547 l 1,0,-1
EndSplineSet
Substitution2: "<3,3> Small Caps in Latin lookup 11 subtable" w.sc
EndChar

StartChar: x
Encoding: 120 120 92
Width: 654
Flags: W
LayerCount: 2
Fore
SplineSet
319 547 m 1,0,-1
 354 419 l 1,1,-1
 456 547 l 1,2,-1
 707 547 l 1,3,-1
 481 281 l 1,4,-1
 604 0 l 1,5,-1
 350 0 l 1,6,-1
 308 142 l 1,7,-1
 193 0 l 1,8,-1
 -60 0 l 1,9,-1
 180 280 l 1,10,-1
 66 547 l 1,11,-1
 319 547 l 1,0,-1
EndSplineSet
Substitution2: "<3,3> Small Caps in Latin lookup 11 subtable" x.sc
EndChar

StartChar: y
Encoding: 121 121 93
Width: 622
Flags: W
LayerCount: 2
Fore
SplineSet
687 547 m 1,0,-1
 344 -46 l 2,1,2
 295 -130 295 -130 232 -167 c 128,-1,3
 169 -204 169 -204 83 -204 c 0,4,5
 27 -204 27 -204 -17 -187 c 128,-1,6
 -61 -170 -61 -170 -102 -135 c 1,7,-1
 11 2 l 1,8,9
 25 -13 25 -13 39 -18.5 c 128,-1,10
 53 -24 53 -24 71 -24 c 0,11,12
 108 -24 108 -24 141 5 c 2,13,-1
 154 17 l 1,14,-1
 35 547 l 1,15,-1
 262 547 l 1,16,-1
 306 235 l 1,17,-1
 459 547 l 1,18,-1
 687 547 l 1,0,-1
EndSplineSet
Substitution2: "<3,3> Small Caps in Latin lookup 11 subtable" y.sc
EndChar

StartChar: z
Encoding: 122 122 94
Width: 571
Flags: W
LayerCount: 2
Fore
SplineSet
594 547 m 1,0,-1
 570 416 l 1,1,-1
 293 168 l 1,2,-1
 529 168 l 1,3,-1
 495 0 l 1,4,-1
 -27 0 l 1,5,-1
 -3 131 l 1,6,-1
 275 379 l 1,7,-1
 59 379 l 1,8,-1
 92 547 l 1,9,-1
 594 547 l 1,0,-1
EndSplineSet
Substitution2: "<3,3> Small Caps in Latin lookup 11 subtable" z.sc
EndChar

StartChar: braceleft
Encoding: 123 123 95
Width: 378
Flags: W
LayerCount: 2
Fore
SplineSet
281 351 m 128,-1,1
 253 320 253 320 198 309 c 1,2,3
 237 298 237 298 254.5 278 c 128,-1,4
 272 258 272 258 272 223 c 0,5,6
 272 198 272 198 267 175 c 2,7,-1
 252 98 l 2,8,9
 250 90 250 90 250 77 c 0,10,11
 250 55 250 55 266 47 c 128,-1,12
 282 39 282 39 321 39 c 1,13,-1
 288 -126 l 1,14,-1
 200 -126 l 2,15,16
 109 -126 109 -126 70.5 -103.5 c 128,-1,17
 32 -81 32 -81 32 -26 c 0,18,19
 32 -3 32 -3 38 27 c 2,20,-1
 70 190 l 2,21,22
 72 202 72 202 72 204 c 0,23,24
 72 215 72 215 66 219.5 c 128,-1,25
 60 224 60 224 46 224 c 2,26,-1
 1 224 l 1,27,-1
 35 394 l 1,28,-1
 80 394 l 2,29,30
 97 394 97 394 105.5 401.5 c 128,-1,31
 114 409 114 409 118 428 c 2,32,-1
 150 591 l 2,33,34
 162 649 162 649 186.5 682 c 128,-1,35
 211 715 211 715 255.5 729.5 c 128,-1,36
 300 744 300 744 374 744 c 2,37,-1
 462 744 l 1,38,-1
 429 579 l 1,39,40
 381 579 381 579 362 567 c 128,-1,41
 343 555 343 555 336 520 c 2,42,-1
 321 443 l 2,43,0
 309 382 309 382 281 351 c 128,-1,1
EndSplineSet
Substitution2: "'rtla' Right to Left Alternates lookup 0 subtable" braceright
EndChar

StartChar: bar
Encoding: 124 124 96
Width: 327
Flags: W
LayerCount: 2
Fore
SplineSet
351 796 m 1,0,-1
 171 -103 l 1,1,-1
 5 -103 l 1,2,-1
 185 796 l 1,3,-1
 351 796 l 1,0,-1
EndSplineSet
EndChar

StartChar: braceright
Encoding: 125 125 97
Width: 398
Flags: W
LayerCount: 2
Fore
SplineSet
132 267 m 128,-1,1
 160 298 160 298 215 309 c 1,2,3
 176 320 176 320 158.5 340 c 128,-1,4
 141 360 141 360 141 395 c 0,5,6
 141 421 141 421 146 443 c 2,7,-1
 161 520 l 2,8,9
 163 528 163 528 163 541 c 0,10,11
 163 563 163 563 147 571 c 128,-1,12
 131 579 131 579 92 579 c 1,13,-1
 125 744 l 1,14,-1
 213 744 l 2,15,16
 304 744 304 744 342.5 721.5 c 128,-1,17
 381 699 381 699 381 644 c 0,18,19
 381 621 381 621 375 591 c 2,20,-1
 343 428 l 2,21,22
 341 416 341 416 341 414 c 0,23,24
 341 403 341 403 347 398.5 c 128,-1,25
 353 394 353 394 367 394 c 2,26,-1
 412 394 l 1,27,-1
 378 224 l 1,28,-1
 333 224 l 2,29,30
 316 224 316 224 307.5 216.5 c 128,-1,31
 299 209 299 209 295 190 c 2,32,-1
 263 27 l 2,33,34
 251 -31 251 -31 226.5 -64 c 128,-1,35
 202 -97 202 -97 157.5 -111.5 c 128,-1,36
 113 -126 113 -126 39 -126 c 2,37,-1
 -49 -126 l 1,38,-1
 -16 39 l 1,39,40
 32 39 32 39 51 51 c 128,-1,41
 70 63 70 63 77 98 c 2,42,-1
 92 175 l 2,43,0
 104 236 104 236 132 267 c 128,-1,1
EndSplineSet
Substitution2: "'rtla' Right to Left Alternates lookup 0 subtable" braceleft
EndChar

StartChar: asciitilde
Encoding: 126 126 98
Width: 520
Flags: W
LayerCount: 2
Fore
SplineSet
249 423 m 128,-1,1
 268 415 268 415 287 401 c 256,2,3
 306 387 306 387 317 387 c 0,4,5
 331 387 331 387 341.5 397.5 c 128,-1,6
 352 408 352 408 356 428 c 1,7,-1
 504 428 l 1,8,9
 483 325 483 325 442 276 c 128,-1,10
 401 227 401 227 336 227 c 0,11,12
 308 227 308 227 289 235 c 128,-1,13
 270 243 270 243 251 257 c 256,14,15
 232 271 232 271 221 271 c 0,16,17
 208 271 208 271 200 261 c 128,-1,18
 192 251 192 251 187 230 c 1,19,-1
 38 230 l 1,20,21
 58 333 58 333 97.5 382 c 128,-1,22
 137 431 137 431 202 431 c 0,23,0
 230 431 230 431 249 423 c 128,-1,1
EndSplineSet
EndChar

StartChar: exclamdown
Encoding: 161 161 100
Width: 297
Flags: W
LayerCount: 2
Fore
SplineSet
101.5 374.5 m 128,-1,1
 76 400 76 400 76 441 c 0,2,3
 76 490 76 490 107.5 522 c 128,-1,4
 139 554 139 554 188 554 c 0,5,6
 230 554 230 554 255.5 528.5 c 128,-1,7
 281 503 281 503 281 462 c 0,8,9
 281 411 281 411 249.5 380 c 128,-1,10
 218 349 218 349 170 349 c 0,11,0
 127 349 127 349 101.5 374.5 c 128,-1,1
-45 -155 m 1,12,-1
 -8 29 l 1,13,-1
 83 288 l 1,14,-1
 217 288 l 1,15,-1
 206 29 l 1,16,-1
 169 -155 l 1,17,-1
 -45 -155 l 1,12,-1
EndSplineSet
Substitution2: "<3,3> Small Caps in Latin lookup 11 subtable" exclamdown.sc
EndChar

StartChar: cent
Encoding: 162 162 101
Width: 577
Flags: W
LayerCount: 2
Fore
SplineSet
380 229 m 1,1,-1
 553 145 l 1,2,3
 522 85 522 85 466 46.5 c 128,-1,4
 410 8 410 8 337 -3 c 1,5,-1
 305 -165 l 1,6,-1
 139 -165 l 1,7,-1
 173 8 l 1,8,9
 98 34 98 34 57 94.5 c 128,-1,10
 16 155 16 155 16 242 c 0,11,12
 16 325 16 325 48.5 391 c 128,-1,13
 81 457 81 457 141 498.5 c 128,-1,14
 201 540 201 540 280 551 c 1,15,-1
 313 714 l 1,16,-1
 479 714 l 1,17,-1
 443 536 l 1,18,19
 491 518 491 518 526 482.5 c 128,-1,20
 561 447 561 447 578 397 c 1,21,-1
 392 321 l 1,22,23
 375 373 375 373 327 373 c 0,24,25
 290 373 290 373 267 341 c 128,-1,26
 244 309 244 309 244 257 c 0,27,28
 244 217 244 217 260.5 193.5 c 128,-1,29
 277 170 277 170 307 170 c 0,30,0
 357 170 357 170 380 229 c 1,1,-1
EndSplineSet
EndChar

StartChar: sterling
Encoding: 163 163 102
Width: 566
Flags: W
LayerCount: 2
Fore
SplineSet
303 173 m 1,0,-1
 541 173 l 1,1,-1
 506 0 l 1,2,-1
 -35 0 l 1,3,-1
 0 173 l 1,4,-1
 70 173 l 1,5,-1
 96 303 l 1,6,-1
 26 303 l 1,7,-1
 40 373 l 1,8,-1
 110 373 l 1,9,-1
 128 464 l 2,10,11
 151 582 151 582 232 646.5 c 128,-1,12
 313 711 313 711 438 711 c 0,13,14
 502 711 502 711 556.5 690 c 128,-1,15
 611 669 611 669 647 629 c 1,16,-1
 529 459 l 1,17,18
 476 518 476 518 425 518 c 0,19,20
 372 518 372 518 360 459 c 2,21,-1
 343 373 l 1,22,-1
 502 373 l 1,23,-1
 488 303 l 1,24,-1
 329 303 l 1,25,-1
 303 173 l 1,0,-1
EndSplineSet
EndChar

StartChar: currency
Encoding: 164 164 103
Width: 775
Flags: W
LayerCount: 2
Fore
SplineSet
625 214 m 1,1,-1
 728 111 l 1,2,-1
 603 -14 l 1,3,-1
 498 91 l 1,4,5
 449 69 449 69 396 69 c 0,6,7
 344 69 344 69 294 90 c 1,8,-1
 190 -14 l 1,9,-1
 65 111 l 1,10,-1
 167 213 l 1,11,12
 142 265 142 265 142 323 c 0,13,14
 142 376 142 376 164 425 c 1,15,-1
 65 524 l 1,16,-1
 190 649 l 1,17,-1
 287 552 l 1,18,19
 339 577 339 577 396 577 c 0,20,21
 454 577 454 577 506 552 c 1,22,-1
 603 649 l 1,23,-1
 728 524 l 1,24,-1
 629 425 l 1,25,26
 650 375 650 375 650 323 c 0,27,0
 650 266 650 266 625 214 c 1,1,-1
452.5 267 m 128,-1,29
 476 290 476 290 476 323 c 256,30,31
 476 356 476 356 452.5 379.5 c 128,-1,32
 429 403 429 403 396 403 c 256,33,34
 363 403 363 403 340 379.5 c 128,-1,35
 317 356 317 356 317 323 c 256,36,37
 317 290 317 290 340 267 c 128,-1,38
 363 244 363 244 396 244 c 256,39,28
 429 244 429 244 452.5 267 c 128,-1,29
EndSplineSet
EndChar

StartChar: yen
Encoding: 165 165 104
Width: 699
Flags: W
LayerCount: 2
Fore
SplineSet
814 701 m 1,0,-1
 570 345 l 1,1,-1
 686 345 l 1,2,-1
 672 275 l 1,3,-1
 522 275 l 1,4,-1
 492 230 l 1,5,-1
 664 230 l 1,6,-1
 650 160 l 1,7,-1
 474 160 l 1,8,-1
 448 0 l 1,9,-1
 216 0 l 1,10,-1
 242 160 l 1,11,-1
 57 160 l 1,12,-1
 71 230 l 1,13,-1
 244 230 l 1,14,-1
 228 275 l 1,15,-1
 79 275 l 1,16,-1
 93 345 l 1,17,-1
 203 345 l 1,18,-1
 75 701 l 1,19,-1
 306 701 l 1,20,-1
 403 431 l 1,21,-1
 583 701 l 1,22,-1
 814 701 l 1,0,-1
EndSplineSet
EndChar

StartChar: brokenbar
Encoding: 166 166 105
Width: 327
Flags: W
LayerCount: 2
Fore
SplineSet
351 796 m 1,0,-1
 283 457 l 1,1,-1
 117 457 l 1,2,-1
 185 796 l 1,3,-1
 351 796 l 1,0,-1
239 236 m 1,4,-1
 171 -103 l 1,5,-1
 5 -103 l 1,6,-1
 73 236 l 1,7,-1
 239 236 l 1,4,-1
EndSplineSet
EndChar

StartChar: section
Encoding: 167 167 106
Width: 595
Flags: W
LayerCount: 2
Fore
SplineSet
96.5 -58 m 128,-1,1
 19 -30 19 -30 -39 19 c 1,2,-1
 49 151 l 1,3,4
 104 110 104 110 156.5 87 c 128,-1,5
 209 64 209 64 249 64 c 0,6,7
 275 64 275 64 275 78 c 0,8,9
 275 88 275 88 258.5 97.5 c 128,-1,10
 242 107 242 107 205 123 c 0,11,12
 153 145 153 145 117.5 165 c 128,-1,13
 82 185 82 185 55 217 c 128,-1,14
 28 249 28 249 28 293 c 0,15,16
 28 346 28 346 58.5 385 c 128,-1,17
 89 424 89 424 148 446 c 1,18,19
 119 486 119 486 119 527 c 0,20,21
 119 571 119 571 149.5 608 c 128,-1,22
 180 645 180 645 232 666.5 c 128,-1,23
 284 688 284 688 346 688 c 0,24,25
 419 688 419 688 491 663.5 c 128,-1,26
 563 639 563 639 628 593 c 1,27,-1
 534 463 l 1,28,29
 481 499 481 499 431.5 520 c 128,-1,30
 382 541 382 541 351 541 c 0,31,32
 326 541 326 541 326 526 c 0,33,34
 326 515 326 515 343.5 504.5 c 128,-1,35
 361 494 361 494 401 477 c 0,36,37
 454 454 454 454 490 434 c 128,-1,38
 526 414 526 414 552.5 382 c 128,-1,39
 579 350 579 350 579 306 c 0,40,41
 579 255 579 255 548 216 c 128,-1,42
 517 177 517 177 458 154 c 1,43,44
 488 115 488 115 488 72 c 256,45,46
 488 29 488 29 456.5 -7 c 128,-1,47
 425 -43 425 -43 371 -64.5 c 128,-1,48
 317 -86 317 -86 254 -86 c 0,49,0
 174 -86 174 -86 96.5 -58 c 128,-1,1
365 292 m 0,51,52
 365 307 365 307 336.5 319 c 128,-1,53
 308 331 308 331 273 331 c 0,54,55
 236 331 236 331 236 311 c 0,56,57
 236 297 236 297 264 285.5 c 128,-1,58
 292 274 292 274 325 274 c 0,59,50
 365 274 365 274 365 292 c 0,51,52
EndSplineSet
EndChar

StartChar: copyright
Encoding: 169 169 108
Width: 720
Flags: W
LayerCount: 2
Fore
SplineSet
546.5 643.5 m 128,-1,1
 624 598 624 598 669 520 c 128,-1,2
 714 442 714 442 714 350 c 0,3,4
 714 259 714 259 669 180.5 c 128,-1,5
 624 102 624 102 546 55.5 c 128,-1,6
 468 9 468 9 374 9 c 0,7,8
 281 9 281 9 203.5 55 c 128,-1,9
 126 101 126 101 81.5 179 c 128,-1,10
 37 257 37 257 37 348 c 256,11,12
 37 439 37 439 82 517.5 c 128,-1,13
 127 596 127 596 204.5 642.5 c 128,-1,14
 282 689 282 689 376 689 c 0,15,0
 469 689 469 689 546.5 643.5 c 128,-1,1
255 556.5 m 128,-1,17
 200 524 200 524 168.5 468.5 c 128,-1,18
 137 413 137 413 137 348 c 256,19,20
 137 283 137 283 168.5 228.5 c 128,-1,21
 200 174 200 174 254 141.5 c 128,-1,22
 308 109 308 109 374 109 c 0,23,24
 441 109 441 109 496 141.5 c 128,-1,25
 551 174 551 174 582.5 229.5 c 128,-1,26
 614 285 614 285 614 350 c 256,27,28
 614 415 614 415 582.5 469.5 c 128,-1,29
 551 524 551 524 496.5 556.5 c 128,-1,30
 442 589 442 589 376 589 c 256,31,16
 310 589 310 589 255 556.5 c 128,-1,17
455.5 494 m 128,-1,33
 492 478 492 478 516 452 c 1,34,-1
 456 380 l 1,35,36
 442 400 442 400 422.5 411.5 c 128,-1,37
 403 423 403 423 385 423 c 0,38,39
 356 423 356 423 337.5 402.5 c 128,-1,40
 319 382 319 382 319 351 c 0,41,42
 319 319 319 319 337.5 298.5 c 128,-1,43
 356 278 356 278 385 278 c 0,44,45
 402 278 402 278 421 288 c 128,-1,46
 440 298 440 298 456 314 c 1,47,-1
 516 250 l 1,48,49
 490 221 490 221 453 204 c 128,-1,50
 416 187 416 187 379 187 c 0,51,52
 331 187 331 187 293 208 c 128,-1,53
 255 229 255 229 233.5 266 c 128,-1,54
 212 303 212 303 212 349 c 256,55,56
 212 395 212 395 234 431.5 c 128,-1,57
 256 468 256 468 295 489 c 128,-1,58
 334 510 334 510 383 510 c 0,59,32
 419 510 419 510 455.5 494 c 128,-1,33
EndSplineSet
EndChar

StartChar: ordfeminine
Encoding: 170 170 109
Width: 401
Flags: W
LayerCount: 2
Fore
SplineSet
414.5 768.5 m 128,-1,1
 456 743 456 743 456 696 c 0,2,3
 456 685 456 685 453 671 c 2,4,-1
 410 458 l 1,5,-1
 261 458 l 1,6,-1
 268 491 l 1,7,8
 233 451 233 451 184 451 c 0,9,10
 130 451 130 451 98 475 c 128,-1,11
 66 499 66 499 66 539 c 0,12,13
 66 551 66 551 69 564 c 0,14,15
 78 611 78 611 116 634 c 128,-1,16
 154 657 154 657 224 658 c 2,17,-1
 301 658 l 1,18,19
 302 686 302 686 246 686 c 0,20,21
 209 686 209 686 147 667 c 1,22,-1
 133 764 l 1,23,24
 226 794 226 794 294 794 c 0,25,0
 373 794 373 794 414.5 768.5 c 128,-1,1
282 563 m 1,27,-1
 288 591 l 1,28,-1
 243 591 l 2,29,30
 218 591 218 591 213 568 c 2,31,-1
 212 562 l 2,32,33
 212 544 212 544 236 544 c 256,34,26
 260 544 260 544 282 563 c 1,27,-1
EndSplineSet
EndChar

StartChar: logicalnot
Encoding: 172 172 111
Width: 595
Flags: W
LayerCount: 2
Fore
SplineSet
575 449 m 1,0,-1
 511 129 l 1,1,-1
 351 129 l 1,2,-1
 387 309 l 1,3,-1
 37 309 l 1,4,-1
 65 449 l 1,5,-1
 575 449 l 1,0,-1
EndSplineSet
EndChar

StartChar: registered
Encoding: 174 174 113
Width: 720
Flags: W
LayerCount: 2
Fore
SplineSet
546.5 643.5 m 128,-1,1
 624 598 624 598 669 520 c 128,-1,2
 714 442 714 442 714 350 c 0,3,4
 714 259 714 259 669 180.5 c 128,-1,5
 624 102 624 102 546 55.5 c 128,-1,6
 468 9 468 9 374 9 c 0,7,8
 281 9 281 9 203.5 55 c 128,-1,9
 126 101 126 101 81.5 179 c 128,-1,10
 37 257 37 257 37 348 c 256,11,12
 37 439 37 439 82 517.5 c 128,-1,13
 127 596 127 596 204.5 642.5 c 128,-1,14
 282 689 282 689 376 689 c 0,15,0
 469 689 469 689 546.5 643.5 c 128,-1,1
496 141.5 m 128,-1,17
 551 174 551 174 582.5 229.5 c 128,-1,18
 614 285 614 285 614 350 c 256,19,20
 614 415 614 415 582.5 469.5 c 128,-1,21
 551 524 551 524 496.5 556.5 c 128,-1,22
 442 589 442 589 376 589 c 256,23,24
 310 589 310 589 255 556.5 c 128,-1,25
 200 524 200 524 168.5 468.5 c 128,-1,26
 137 413 137 413 137 348 c 256,27,28
 137 283 137 283 168.5 228.5 c 128,-1,29
 200 174 200 174 254 141.5 c 128,-1,30
 308 109 308 109 374 109 c 0,31,16
 441 109 441 109 496 141.5 c 128,-1,17
468 309 m 1,33,-1
 528 211 l 1,34,-1
 415 211 l 1,35,-1
 379 289 l 1,36,-1
 346 289 l 1,37,-1
 346 211 l 1,38,-1
 246 211 l 1,39,-1
 246 512 l 1,40,-1
 387 512 l 2,41,42
 448 512 448 512 482 484 c 128,-1,43
 516 456 516 456 516 405 c 0,44,32
 516 338 516 338 468 309 c 1,33,-1
346 365 m 1,45,-1
 387 365 l 2,46,47
 403 365 403 365 412 374.5 c 128,-1,48
 421 384 421 384 421 401 c 256,49,50
 421 418 421 418 412 427.5 c 128,-1,51
 403 437 403 437 387 437 c 2,52,-1
 346 437 l 1,53,-1
 346 365 l 1,45,-1
EndSplineSet
EndChar

StartChar: degree
Encoding: 176 176 115
Width: 405
Flags: W
LayerCount: 2
Fore
SplineSet
380.5 788.5 m 128,-1,1
 416 753 416 753 416 703 c 256,2,3
 416 653 416 653 380.5 617.5 c 128,-1,4
 345 582 345 582 295 582 c 256,5,6
 245 582 245 582 209.5 617.5 c 128,-1,7
 174 653 174 653 174 703 c 256,8,9
 174 753 174 753 209.5 788.5 c 128,-1,10
 245 824 245 824 295 824 c 256,11,0
 345 824 345 824 380.5 788.5 c 128,-1,1
268 730 m 128,-1,13
 257 719 257 719 257 703 c 256,14,15
 257 687 257 687 268 676 c 128,-1,16
 279 665 279 665 295 665 c 256,17,18
 311 665 311 665 322 676 c 128,-1,19
 333 687 333 687 333 703 c 256,20,21
 333 719 333 719 322 730 c 128,-1,22
 311 741 311 741 295 741 c 256,23,12
 279 741 279 741 268 730 c 128,-1,13
EndSplineSet
EndChar

StartChar: plusminus
Encoding: 177 177 116
Width: 592
Flags: W
LayerCount: 2
Fore
SplineSet
172 193 m 1,0,-1
 204 345 l 1,1,-1
 44 345 l 1,2,-1
 72 478 l 1,3,-1
 232 478 l 1,4,-1
 264 630 l 1,5,-1
 404 630 l 1,6,-1
 372 478 l 1,7,-1
 532 478 l 1,8,-1
 504 345 l 1,9,-1
 344 345 l 1,10,-1
 312 193 l 1,11,-1
 172 193 l 1,0,-1
44 -16 m 1,12,-1
 72 124 l 1,13,-1
 532 124 l 1,14,-1
 504 -16 l 1,15,-1
 44 -16 l 1,12,-1
EndSplineSet
EndChar

StartChar: uni00B5
Encoding: 181 181 120
Width: 706
Flags: W
LayerCount: 2
Fore
SplineSet
704 547 m 1,0,-1
 596 0 l 1,1,-1
 371 0 l 1,2,-1
 384 68 l 1,3,4
 319 -5 319 -5 229 -8 c 1,5,-1
 192 -194 l 1,6,-1
 -33 -194 l 1,7,-1
 49 215 l 1,8,-1
 50 222 l 1,9,-1
 115 547 l 1,10,-1
 340 547 l 1,11,-1
 282 256 l 2,12,13
 280 242 280 242 280 235 c 0,14,15
 280 209 280 209 293.5 194.5 c 128,-1,16
 307 180 307 180 331 180 c 0,17,18
 363 180 363 180 390.5 208.5 c 128,-1,19
 418 237 418 237 426 280 c 2,20,-1
 479 547 l 1,21,-1
 704 547 l 1,0,-1
EndSplineSet
EndChar

StartChar: paragraph
Encoding: 182 182 121
Width: 682
Flags: W
LayerCount: 2
Fore
SplineSet
556 -105 m 1,0,-1
 390 -105 l 1,1,-1
 535 618 l 1,2,-1
 463 618 l 1,3,-1
 318 -105 l 1,4,-1
 152 -105 l 1,5,-1
 232 293 l 1,6,-1
 210 293 l 2,7,8
 114 293 114 293 73.5 341.5 c 128,-1,9
 33 390 33 390 33 461 c 0,10,11
 33 486 33 486 38 513 c 0,12,13
 50 575 50 575 87 626.5 c 128,-1,14
 124 678 124 678 189 710 c 128,-1,15
 254 742 254 742 343 742 c 2,16,-1
 726 742 l 1,17,-1
 556 -105 l 1,0,-1
EndSplineSet
EndChar

StartChar: ordmasculine
Encoding: 186 186 125
Width: 423
Flags: W
LayerCount: 2
Fore
SplineSet
431 751.5 m 128,-1,1
 480 710 480 710 480 639 c 0,2,3
 480 584 480 584 453 541.5 c 128,-1,4
 426 499 426 499 377 476 c 128,-1,5
 328 453 328 453 264 453 c 0,6,7
 180 453 180 453 131.5 495 c 128,-1,8
 83 537 83 537 83 607 c 0,9,10
 83 663 83 663 110 705 c 128,-1,11
 137 747 137 747 185.5 770 c 128,-1,12
 234 793 234 793 298 793 c 0,13,0
 382 793 382 793 431 751.5 c 128,-1,1
250 660 m 128,-1,15
 236 642 236 642 236 613 c 0,16,17
 236 591 236 591 246.5 578 c 128,-1,18
 257 565 257 565 275 565 c 0,19,20
 297 565 297 565 311 582.5 c 128,-1,21
 325 600 325 600 325 629 c 0,22,23
 325 652 325 652 315 665 c 128,-1,24
 305 678 305 678 286 678 c 0,25,14
 264 678 264 678 250 660 c 128,-1,15
EndSplineSet
EndChar

StartChar: questiondown
Encoding: 191 191 130
Width: 495
Flags: W
LayerCount: 2
Fore
SplineSet
179.5 375.5 m 128,-1,1
 154 401 154 401 154 442 c 0,2,3
 154 491 154 491 185.5 523 c 128,-1,4
 217 555 217 555 266 555 c 0,5,6
 308 555 308 555 333.5 529.5 c 128,-1,7
 359 504 359 504 359 463 c 0,8,9
 359 412 359 412 327.5 381 c 128,-1,10
 296 350 296 350 248 350 c 0,11,0
 205 350 205 350 179.5 375.5 c 128,-1,1
369 -96.5 m 128,-1,13
 296 -164 296 -164 179 -164 c 0,14,15
 79 -164 79 -164 24 -122 c 128,-1,16
 -31 -80 -31 -80 -31 -3 c 0,17,18
 -31 40 -31 40 -16.5 73 c 128,-1,19
 -2 106 -2 106 19 129 c 128,-1,20
 40 152 40 152 74 182 c 0,21,22
 111 214 111 214 131 239.5 c 128,-1,23
 151 265 151 265 155 297 c 1,24,-1
 322 297 l 1,25,26
 315 239 315 239 293 205 c 128,-1,27
 271 171 271 171 233 133 c 0,28,29
 207 109 207 109 194.5 90.5 c 128,-1,30
 182 72 182 72 182 48 c 0,31,32
 182 13 182 13 221 13 c 0,33,34
 249 13 249 13 264.5 32 c 128,-1,35
 280 51 280 51 285 92 c 1,36,-1
 457 92 l 1,37,12
 442 -29 442 -29 369 -96.5 c 128,-1,13
EndSplineSet
Substitution2: "<3,3> Small Caps in Latin lookup 11 subtable" questiondown.sc
EndChar

StartChar: AE
Encoding: 198 198 137
Width: 1150
Flags: W
LayerCount: 2
Fore
SplineSet
792 525 m 1,0,-1
 775 439 l 1,1,-1
 1103 439 l 1,2,-1
 1068 263 l 1,3,-1
 740 263 l 1,4,-1
 722 176 l 1,5,-1
 1092 176 l 1,6,-1
 1057 0 l 1,7,-1
 455 0 l 1,8,-1
 479 122 l 1,9,-1
 263 122 l 1,10,-1
 178 0 l 1,11,-1
 -65 0 l 1,12,-1
 465 701 l 1,13,-1
 1188 701 l 1,14,-1
 1153 525 l 1,15,-1
 792 525 l 1,0,-1
513 288 m 1,16,-1
 560 525 l 1,17,-1
 543 525 l 1,18,-1
 378 288 l 1,19,-1
 513 288 l 1,16,-1
EndSplineSet
EndChar

StartChar: Ccedilla
Encoding: 199 199 138
Width: 714
Flags: W
LayerCount: 2
Fore
SplineSet
556 31.5 m 128,-1,1
 481 -6 481 -6 407 -14 c 1,2,-1
 384 -54 l 1,3,4
 420 -64 420 -64 437.5 -83.5 c 128,-1,5
 455 -103 455 -103 455 -129 c 0,6,7
 455 -186 455 -186 408.5 -215 c 128,-1,8
 362 -244 362 -244 295 -244 c 0,9,10
 235 -244 235 -244 178 -223 c 1,11,-1
 227 -130 l 1,12,13
 250 -139 250 -139 274 -139 c 0,14,15
 294 -139 294 -139 307.5 -132 c 128,-1,16
 321 -125 321 -125 321 -114 c 256,17,18
 321 -103 321 -103 305 -97 c 128,-1,19
 289 -91 289 -91 267 -91 c 2,20,-1
 247 -91 l 1,21,-1
 290 -8 l 1,22,23
 212 8 212 8 154 53.5 c 128,-1,24
 96 99 96 99 64.5 167 c 128,-1,25
 33 235 33 235 33 318 c 0,26,27
 33 430 33 430 88.5 521 c 128,-1,28
 144 612 144 612 240 664 c 128,-1,29
 336 716 336 716 452 716 c 0,30,31
 532 716 532 716 609 680.5 c 128,-1,32
 686 645 686 645 735 586 c 1,33,-1
 584 427 l 1,34,35
 557 470 557 470 516.5 496.5 c 128,-1,36
 476 523 476 523 435 523 c 0,37,38
 390 523 390 523 353 499 c 128,-1,39
 316 475 316 475 294 432.5 c 128,-1,40
 272 390 272 390 272 338 c 0,41,42
 272 272 272 272 308 229.5 c 128,-1,43
 344 187 344 187 401 187 c 0,44,45
 439 187 439 187 485 209.5 c 128,-1,46
 531 232 531 232 569 269 c 1,47,-1
 688 126 l 1,48,0
 631 69 631 69 556 31.5 c 128,-1,1
EndSplineSet
EndChar

StartChar: multiply
Encoding: 215 215 154
Width: 565
Flags: W
LayerCount: 2
Fore
SplineSet
506 442 m 1,0,-1
 393 329 l 1,1,-1
 506 216 l 1,2,-1
 407 117 l 1,3,-1
 294 230 l 1,4,-1
 181 117 l 1,5,-1
 82 216 l 1,6,-1
 195 329 l 1,7,-1
 82 442 l 1,8,-1
 181 541 l 1,9,-1
 294 428 l 1,10,-1
 407 541 l 1,11,-1
 506 442 l 1,0,-1
EndSplineSet
EndChar

StartChar: Oslash
Encoding: 216 216 155
Width: 807
Flags: W
LayerCount: 2
Fore
SplineSet
779.5 523 m 128,-1,1
 807 460 807 460 807 385 c 0,2,3
 807 272 807 272 751 180.5 c 128,-1,4
 695 89 695 89 598 36.5 c 128,-1,5
 501 -16 501 -16 383 -16 c 0,6,7
 302 -16 302 -16 232 12 c 1,8,-1
 181 -55 l 1,9,-1
 54 -55 l 1,10,-1
 145 65 l 1,11,12
 91 110 91 110 62 175 c 128,-1,13
 33 240 33 240 33 318 c 0,14,15
 33 431 33 431 89 522 c 128,-1,16
 145 613 145 613 242 664.5 c 128,-1,17
 339 716 339 716 457 716 c 0,18,19
 543 716 543 716 616 685 c 1,20,-1
 669 755 l 1,21,-1
 796 755 l 1,22,-1
 702 631 l 1,23,0
 752 586 752 586 779.5 523 c 128,-1,1
289 255 m 1,25,-1
 486 514 l 1,26,27
 465 523 465 523 440 523 c 0,28,29
 397 523 397 523 358.5 498 c 128,-1,30
 320 473 320 473 296 429.5 c 128,-1,31
 272 386 272 386 272 334 c 0,32,24
 272 291 272 291 289 255 c 1,25,-1
485.5 202.5 m 128,-1,34
 523 228 523 228 545.5 272 c 128,-1,35
 568 316 568 316 568 369 c 0,36,37
 568 408 568 408 556 438 c 1,38,-1
 363 185 l 1,39,40
 384 177 384 177 405 177 c 0,41,33
 448 177 448 177 485.5 202.5 c 128,-1,34
EndSplineSet
EndChar

StartChar: Thorn
Encoding: 222 222 161
Width: 711
Flags: W
LayerCount: 2
Fore
SplineSet
635 559.5 m 128,-1,1
 702 504 702 504 702 410 c 0,2,3
 702 322 702 322 656.5 251.5 c 128,-1,4
 611 181 611 181 530 141.5 c 128,-1,5
 449 102 449 102 347 102 c 2,6,-1
 247 102 l 1,7,-1
 227 0 l 1,8,-1
 -5 0 l 1,9,-1
 135 701 l 1,10,-1
 367 701 l 1,11,-1
 350 615 l 1,12,-1
 450 615 l 2,13,0
 568 615 568 615 635 559.5 c 128,-1,1
434.5 306.5 m 128,-1,15
 459 335 459 335 459 378 c 0,16,17
 459 406 459 406 444.5 422.5 c 128,-1,18
 430 439 430 439 405 439 c 2,19,-1
 315 439 l 1,20,-1
 283 278 l 1,21,-1
 373 278 l 2,22,14
 410 278 410 278 434.5 306.5 c 128,-1,15
EndSplineSet
EndChar

StartChar: germandbls
Encoding: 223 223 162
Width: 674
Flags: W
LayerCount: 2
Fore
SplineSet
543.5 729 m 128,-1,1
 601 706 601 706 632.5 664.5 c 128,-1,2
 664 623 664 623 664 568 c 0,3,4
 664 518 664 518 633 468.5 c 128,-1,5
 602 419 602 419 550 385 c 1,6,7
 593 368 593 368 617.5 327.5 c 128,-1,8
 642 287 642 287 642 235 c 0,9,10
 642 167 642 167 599 113.5 c 128,-1,11
 556 60 556 60 479 30 c 128,-1,12
 402 0 402 0 304 0 c 2,13,-1
 257 0 l 1,14,-1
 289 158 l 1,15,-1
 312 158 l 2,16,17
 369 158 369 158 396 176.5 c 128,-1,18
 423 195 423 195 423 235 c 0,19,20
 423 284 423 284 337 284 c 2,21,-1
 314 284 l 1,22,-1
 345 441 l 1,23,24
 394 441 394 441 416.5 464 c 128,-1,25
 439 487 439 487 439 536 c 256,26,27
 439 585 439 585 391 585 c 0,28,29
 358 585 358 585 339 567.5 c 128,-1,30
 320 550 320 550 313 513 c 2,31,-1
 210 0 l 1,32,-1
 -15 0 l 1,33,-1
 84 496 l 2,34,35
 107 614 107 614 194.5 683 c 128,-1,36
 282 752 282 752 410 752 c 0,37,0
 486 752 486 752 543.5 729 c 128,-1,1
EndSplineSet
Substitution2: "<3,3> Small Caps in Latin lookup 11 subtable" germandbls.sc
EndChar

StartChar: ae
Encoding: 230 230 169
Width: 955
Flags: W
LayerCount: 2
Fore
SplineSet
50 33 m 128,-1,1
 -2 77 -2 77 -2 151 c 0,2,3
 -2 238 -2 238 55 283.5 c 128,-1,4
 112 329 112 329 223 329 c 2,5,-1
 353 329 l 1,6,-1
 353 342 l 2,7,8
 353 389 353 389 278 389 c 0,9,10
 244 389 244 389 198 379.5 c 128,-1,11
 152 370 152 370 105 353 c 1,12,-1
 61 505 l 1,13,14
 133 530 133 530 204 543.5 c 128,-1,15
 275 557 275 557 334 557 c 0,16,17
 445 557 445 557 506 512 c 1,18,19
 572 555 572 555 662 555 c 0,20,21
 791 555 791 555 863 484 c 128,-1,22
 935 413 935 413 935 290 c 0,23,24
 935 262 935 262 930 224 c 1,25,-1
 574 224 l 1,26,-1
 574 213 l 2,27,28
 574 185 574 185 597 171.5 c 128,-1,29
 620 158 620 158 653 158 c 0,30,31
 684 158 684 158 714.5 171.5 c 128,-1,32
 745 185 745 185 772 210 c 1,33,-1
 884 89 l 1,34,35
 787 -8 787 -8 630 -8 c 0,36,37
 554 -8 554 -8 500 18.5 c 128,-1,38
 446 45 446 45 416 93 c 1,39,40
 344 -11 344 -11 194 -11 c 0,41,0
 102 -11 102 -11 50 33 c 128,-1,1
715 329 m 1,42,43
 716 335 716 335 716 346 c 0,44,45
 716 374 716 374 701.5 389.5 c 128,-1,46
 687 405 687 405 662 405 c 0,47,48
 632 405 632 405 611 384 c 128,-1,49
 590 363 590 363 580 329 c 1,50,-1
 715 329 l 1,42,43
298.5 145 m 128,-1,52
 321 157 321 157 338 178 c 1,53,-1
 344 224 l 1,54,-1
 267 224 l 2,55,56
 243 226 243 226 226.5 210.5 c 128,-1,57
 210 195 210 195 210 169 c 0,58,59
 210 133 210 133 252 133 c 0,60,51
 276 133 276 133 298.5 145 c 128,-1,52
EndSplineSet
Substitution2: "<3,3> Small Caps in Latin lookup 11 subtable" ae.sc
EndChar

StartChar: ccedilla
Encoding: 231 231 170
Width: 577
Flags: W
LayerCount: 2
Fore
SplineSet
380 229 m 1,1,-1
 553 145 l 1,2,3
 520 80 520 80 457.5 40.5 c 128,-1,4
 395 1 395 1 313 -6 c 1,5,-1
 286 -54 l 1,6,7
 322 -64 322 -64 339.5 -83.5 c 128,-1,8
 357 -103 357 -103 357 -129 c 0,9,10
 357 -186 357 -186 310.5 -215 c 128,-1,11
 264 -244 264 -244 197 -244 c 0,12,13
 137 -244 137 -244 80 -223 c 1,14,-1
 129 -130 l 1,15,16
 151 -139 151 -139 176 -139 c 0,17,18
 196 -139 196 -139 209.5 -132 c 128,-1,19
 223 -125 223 -125 223 -114 c 256,20,21
 223 -103 223 -103 207 -97 c 128,-1,22
 191 -91 191 -91 169 -91 c 2,23,-1
 149 -91 l 1,24,-1
 196 1 l 1,25,26
 111 22 111 22 63.5 85.5 c 128,-1,27
 16 149 16 149 16 242 c 0,28,29
 16 334 16 334 56 405.5 c 128,-1,30
 96 477 96 477 168.5 516 c 128,-1,31
 241 555 241 555 335 555 c 0,32,33
 424 555 424 555 488 513.5 c 128,-1,34
 552 472 552 472 578 397 c 1,35,-1
 392 321 l 1,36,37
 375 373 375 373 327 373 c 0,38,39
 290 373 290 373 267 341 c 128,-1,40
 244 309 244 309 244 257 c 0,41,42
 244 217 244 217 260.5 193.5 c 128,-1,43
 277 170 277 170 307 170 c 0,44,0
 357 170 357 170 380 229 c 1,1,-1
EndSplineSet
Substitution2: "<3,3> Small Caps in Latin lookup 11 subtable" ccedilla.sc
EndChar

StartChar: eth
Encoding: 240 240 179
Width: 619
Flags: W
LayerCount: 2
Fore
SplineSet
494 623 m 1,0,1
 550 563 550 563 579.5 490.5 c 128,-1,2
 609 418 609 418 609 339 c 0,3,4
 609 239 609 239 566.5 160 c 128,-1,5
 524 81 524 81 447 36.5 c 128,-1,6
 370 -8 370 -8 270 -8 c 0,7,8
 188 -8 188 -8 127.5 18.5 c 128,-1,9
 67 45 67 45 34.5 94 c 128,-1,10
 2 143 2 143 2 209 c 0,11,12
 2 279 2 279 32 333.5 c 128,-1,13
 62 388 62 388 116 419 c 128,-1,14
 170 450 170 450 241 450 c 0,15,16
 287 450 287 450 329.5 438 c 128,-1,17
 372 426 372 426 398 408 c 1,18,19
 383 478 383 478 315 548 c 1,20,-1
 141 476 l 1,21,-1
 111 549 l 1,22,-1
 248 606 l 1,23,24
 196 644 196 644 139 671 c 1,25,-1
 297 752 l 1,26,27
 368 725 368 725 427 682 c 1,28,-1
 595 752 l 1,29,-1
 625 677 l 1,30,-1
 494 623 l 1,0,1
335.5 199 m 128,-1,32
 359 223 359 223 359 251 c 0,33,34
 359 273 359 273 344 287 c 128,-1,35
 329 301 329 301 300 301 c 0,36,37
 264 301 264 301 241 278 c 128,-1,38
 218 255 218 255 218 223 c 0,39,40
 218 201 218 201 233.5 188 c 128,-1,41
 249 175 249 175 274 175 c 0,42,31
 312 175 312 175 335.5 199 c 128,-1,32
EndSplineSet
Substitution2: "<3,3> Small Caps in Latin lookup 11 subtable" eth.sc
EndChar

StartChar: divide
Encoding: 247 247 186
Width: 520
Flags: W
LayerCount: 2
Fore
SplineSet
388 579.5 m 128,-1,1
 408 559 408 559 408 525 c 0,2,3
 408 479 408 479 376 448 c 128,-1,4
 344 417 344 417 297 417 c 0,5,6
 263 417 263 417 242.5 438 c 128,-1,7
 222 459 222 459 222 492 c 0,8,9
 222 537 222 537 254.5 568.5 c 128,-1,10
 287 600 287 600 333 600 c 0,11,0
 368 600 368 600 388 579.5 c 128,-1,1
515 399 m 1,12,-1
 487 259 l 1,13,-1
 27 259 l 1,14,-1
 55 399 l 1,15,-1
 515 399 l 1,12,-1
316 219.5 m 128,-1,17
 336 199 336 199 336 165 c 0,18,19
 336 119 336 119 304 88 c 128,-1,20
 272 57 272 57 225 57 c 0,21,22
 191 57 191 57 170.5 78 c 128,-1,23
 150 99 150 99 150 132 c 0,24,25
 150 177 150 177 182.5 208.5 c 128,-1,26
 215 240 215 240 261 240 c 0,27,16
 296 240 296 240 316 219.5 c 128,-1,17
EndSplineSet
EndChar

StartChar: oslash
Encoding: 248 248 187
Width: 654
Flags: W
LayerCount: 2
Fore
SplineSet
612 420.5 m 128,-1,1
 638 368 638 368 638 302 c 0,2,3
 638 210 638 210 595.5 139.5 c 128,-1,4
 553 69 553 69 476.5 30.5 c 128,-1,5
 400 -8 400 -8 300 -8 c 0,6,7
 239 -8 239 -8 191 7 c 1,8,-1
 130 -80 l 1,9,-1
 42 -80 l 1,10,-1
 124 38 l 1,11,12
 73 71 73 71 45 124.5 c 128,-1,13
 17 178 17 178 17 246 c 0,14,15
 17 338 17 338 59.5 408 c 128,-1,16
 102 478 102 478 179 516.5 c 128,-1,17
 256 555 256 555 356 555 c 0,18,19
 419 555 419 555 472 538 c 1,20,-1
 534 627 l 1,21,-1
 622 627 l 1,22,-1
 538 506 l 1,23,0
 586 473 586 473 612 420.5 c 128,-1,1
239 203 m 1,25,-1
 369 390 l 1,26,27
 354 395 354 395 340 395 c 0,28,29
 292 395 292 395 261.5 356 c 128,-1,30
 231 317 231 317 231 255 c 0,31,24
 231 227 231 227 239 203 c 1,25,-1
393.5 186 m 128,-1,33
 424 225 424 225 424 287 c 0,34,35
 424 314 424 314 418 333 c 1,36,-1
 290 151 l 1,37,38
 301 147 301 147 315 147 c 0,39,32
 363 147 363 147 393.5 186 c 128,-1,33
EndSplineSet
Substitution2: "<3,3> Small Caps in Latin lookup 11 subtable" oslash.sc
EndChar

StartChar: thorn
Encoding: 254 254 193
Width: 695
Flags: W
LayerCount: 2
Fore
SplineSet
584 525 m 128,-1,1
 630 495 630 495 655.5 441 c 128,-1,2
 681 387 681 387 681 318 c 0,3,4
 681 228 681 228 643.5 153.5 c 128,-1,5
 606 79 606 79 541.5 35.5 c 128,-1,6
 477 -8 477 -8 399 -8 c 0,7,8
 347 -8 347 -8 307.5 12.5 c 128,-1,9
 268 33 268 33 245 72 c 1,10,-1
 192 -194 l 1,11,-1
 -33 -194 l 1,12,-1
 154 742 l 1,13,-1
 379 742 l 1,14,-1
 329 493 l 1,15,16
 397 555 397 555 479 555 c 0,17,0
 538 555 538 555 584 525 c 128,-1,1
336.5 369.5 m 128,-1,19
 313 352 313 352 299.5 322.5 c 128,-1,20
 286 293 286 293 286 259 c 0,21,22
 286 221 286 221 305 198.5 c 128,-1,23
 324 176 324 176 356 176 c 0,24,25
 397 176 397 176 425.5 213.5 c 128,-1,26
 454 251 454 251 454 303 c 0,27,28
 454 343 454 343 436.5 365 c 128,-1,29
 419 387 419 387 387 387 c 0,30,18
 360 387 360 387 336.5 369.5 c 128,-1,19
EndSplineSet
Substitution2: "<3,3> Small Caps in Latin lookup 11 subtable" thorn.sc
EndChar

StartChar: Aogonek
Encoding: 260 260 199
Width: 799
Flags: W
LayerCount: 2
Fore
SplineSet
606.5 -49 m 128,-1,1
 583 -73 583 -73 583 -98 c 0,2,3
 583 -116 583 -116 599 -116 c 0,4,5
 610 -116 610 -116 626 -108 c 1,6,-1
 634 -219 l 1,7,8
 571 -244 571 -244 521 -244 c 0,9,10
 473 -244 473 -244 449.5 -218.5 c 128,-1,11
 426 -193 426 -193 426 -151 c 0,12,13
 426 -75 426 -75 505 1 c 1,14,-1
 487 99 l 1,15,-1
 224 99 l 1,16,-1
 171 0 l 1,17,-1
 -65 0 l 1,18,-1
 347 701 l 1,19,-1
 585 701 l 1,20,-1
 754 0 l 1,21,-1
 670 0 l 1,22,0
 630 -25 630 -25 606.5 -49 c 128,-1,1
312 265 m 1,23,-1
 458 265 l 1,24,-1
 421 469 l 1,25,-1
 312 265 l 1,23,-1
EndSplineSet
EndChar

StartChar: aogonek
Encoding: 261 261 200
Width: 690
Flags: W
LayerCount: 2
Fore
SplineSet
689 547 m 1,0,-1
 580 0 l 1,1,-1
 522 0 l 1,2,3
 482 -25 482 -25 458.5 -49 c 128,-1,4
 435 -73 435 -73 435 -98 c 0,5,6
 435 -116 435 -116 451 -116 c 0,7,8
 462 -116 462 -116 478 -108 c 1,9,-1
 486 -219 l 1,10,11
 423 -244 423 -244 373 -244 c 0,12,13
 325 -244 325 -244 301.5 -218.5 c 128,-1,14
 278 -193 278 -193 278 -151 c 0,15,16
 278 -75 278 -75 356 0 c 1,17,-1
 355 0 l 1,18,-1
 366 54 l 1,19,20
 298 -8 298 -8 216 -8 c 0,21,22
 157 -8 157 -8 111 22 c 128,-1,23
 65 52 65 52 39.5 106 c 128,-1,24
 14 160 14 160 14 229 c 0,25,26
 14 319 14 319 51.5 393.5 c 128,-1,27
 89 468 89 468 153.5 511.5 c 128,-1,28
 218 555 218 555 296 555 c 0,29,30
 348 555 348 555 387.5 534.5 c 128,-1,31
 427 514 427 514 450 475 c 1,32,-1
 464 547 l 1,33,-1
 689 547 l 1,0,-1
358.5 177.5 m 128,-1,35
 382 195 382 195 395.5 224.5 c 128,-1,36
 409 254 409 254 409 288 c 0,37,38
 409 326 409 326 390 348.5 c 128,-1,39
 371 371 371 371 339 371 c 0,40,41
 298 371 298 371 269.5 333.5 c 128,-1,42
 241 296 241 296 241 244 c 0,43,44
 241 204 241 204 258.5 182 c 128,-1,45
 276 160 276 160 308 160 c 0,46,34
 335 160 335 160 358.5 177.5 c 128,-1,35
EndSplineSet
Substitution2: "<3,3> Small Caps in Latin lookup 11 subtable" aogonek.sc
EndChar

StartChar: Dcroat
Encoding: 272 272 211
Width: 761
Flags: W
LayerCount: 2
Fore
SplineSet
615 662.5 m 128,-1,1
 692 624 692 624 730.5 552.5 c 128,-1,2
 769 481 769 481 764 386 c 0,3,4
 758 271 758 271 699.5 183.5 c 128,-1,5
 641 96 641 96 542 48 c 128,-1,6
 443 0 443 0 317 0 c 2,7,-1
 -4 0 l 1,8,-1
 56 302 l 1,9,-1
 -12 302 l 1,10,-1
 7 400 l 1,11,-1
 75 400 l 1,12,-1
 135 701 l 1,13,-1
 432 701 l 2,14,0
 538 701 538 701 615 662.5 c 128,-1,1
491.5 483.5 m 128,-1,16
 458 521 458 521 399 521 c 2,17,-1
 331 521 l 1,18,-1
 307 399 l 1,19,-1
 424 399 l 1,20,-1
 405 302 l 1,21,-1
 288 302 l 1,22,-1
 264 180 l 1,23,-1
 359 180 l 2,24,25
 406 180 406 180 444 205.5 c 128,-1,26
 482 231 482 231 503.5 277.5 c 128,-1,27
 525 324 525 324 525 383 c 0,28,15
 525 446 525 446 491.5 483.5 c 128,-1,16
EndSplineSet
EndChar

StartChar: dcroat
Encoding: 273 273 212
Width: 686
Flags: W
LayerCount: 2
Fore
SplineSet
753 567 m 1,0,-1
 693 567 l 1,1,-1
 581 0 l 1,2,-1
 356 0 l 1,3,-1
 366 46 l 1,4,5
 334 20 334 20 296 6 c 128,-1,6
 258 -8 258 -8 217 -8 c 0,7,8
 157 -8 157 -8 110 20 c 128,-1,9
 63 48 63 48 37 99 c 128,-1,10
 11 150 11 150 11 215 c 0,11,12
 11 297 11 297 47.5 365.5 c 128,-1,13
 84 434 84 434 147.5 473.5 c 128,-1,14
 211 513 211 513 288 513 c 0,15,16
 394 513 394 513 443 446 c 1,17,-1
 468 567 l 1,18,-1
 318 567 l 1,19,-1
 338 667 l 1,20,-1
 488 667 l 1,21,-1
 503 742 l 1,22,-1
 728 742 l 1,23,-1
 713 667 l 1,24,-1
 773 667 l 1,25,-1
 753 567 l 1,0,-1
375.5 190.5 m 128,-1,27
 405 221 405 221 405 263 c 0,28,29
 405 294 405 294 386 311.5 c 128,-1,30
 367 329 367 329 334 329 c 0,31,32
 294 329 294 329 266 299 c 128,-1,33
 238 269 238 269 238 227 c 0,34,35
 238 195 238 195 256 177.5 c 128,-1,36
 274 160 274 160 306 160 c 0,37,26
 346 160 346 160 375.5 190.5 c 128,-1,27
EndSplineSet
Substitution2: "<3,3> Small Caps in Latin lookup 11 subtable" dcroat.sc
EndChar

StartChar: Eogonek
Encoding: 280 280 219
Width: 690
Flags: W
LayerCount: 2
Fore
SplineSet
332 525 m 1,0,-1
 314 439 l 1,1,-1
 643 439 l 1,2,-1
 608 263 l 1,3,-1
 279 263 l 1,4,-1
 261 176 l 1,5,-1
 632 176 l 1,6,-1
 597 0 l 1,7,8
 557 -25 557 -25 533.5 -49 c 128,-1,9
 510 -73 510 -73 510 -98 c 0,10,11
 510 -116 510 -116 526 -116 c 0,12,13
 537 -116 537 -116 553 -108 c 1,14,-1
 561 -219 l 1,15,16
 498 -244 498 -244 448 -244 c 0,17,18
 400 -244 400 -244 376.5 -218.5 c 128,-1,19
 353 -193 353 -193 353 -151 c 0,20,21
 353 -75 353 -75 431 0 c 1,22,-1
 -5 0 l 1,23,-1
 135 701 l 1,24,-1
 728 701 l 1,25,-1
 693 525 l 1,26,-1
 332 525 l 1,0,-1
EndSplineSet
EndChar

StartChar: eogonek
Encoding: 281 281 220
Width: 623
Flags: W
LayerCount: 2
Fore
SplineSet
474 522.5 m 128,-1,1
 538 491 538 491 572.5 433.5 c 128,-1,2
 607 376 607 376 607 301 c 0,3,4
 607 264 607 264 598 223 c 1,5,-1
 236 223 l 1,6,7
 247 157 247 157 322 157 c 0,8,9
 379 157 379 157 432 198 c 1,10,-1
 548 84 l 1,11,12
 534 70 534 70 516 57 c 0,13,14
 466 16 466 16 436 -26 c 128,-1,15
 406 -68 406 -68 406 -97 c 0,16,17
 406 -116 406 -116 421 -116 c 0,18,19
 432 -116 432 -116 448 -108 c 1,20,-1
 456 -219 l 1,21,22
 426 -231 426 -231 401.5 -237.5 c 128,-1,23
 377 -244 377 -244 348 -244 c 0,24,25
 303 -244 303 -244 275 -222 c 128,-1,26
 247 -200 247 -200 247 -156 c 0,27,28
 247 -114 247 -114 267 -79 c 128,-1,29
 287 -44 287 -44 332 -7 c 1,30,-1
 314 -7 l 2,31,32
 223 -7 223 -7 155.5 23 c 128,-1,33
 88 53 88 53 51.5 109 c 128,-1,34
 15 165 15 165 15 239 c 0,35,36
 15 329 15 329 54.5 401 c 128,-1,37
 94 473 94 473 164.5 513.5 c 128,-1,38
 235 554 235 554 324 554 c 0,39,0
 410 554 410 554 474 522.5 c 128,-1,1
394 350 m 0,41,42
 394 372 394 372 379 387 c 128,-1,43
 364 402 364 402 340 402 c 0,44,45
 314 402 314 402 290.5 381.5 c 128,-1,46
 267 361 267 361 252 327 c 1,47,-1
 389 327 l 1,48,40
 394 340 394 340 394 350 c 0,41,42
EndSplineSet
Substitution2: "<3,3> Small Caps in Latin lookup 11 subtable" eogonek.sc
EndChar

StartChar: Hbar
Encoding: 294 294 233
Width: 881
Flags: W
LayerCount: 2
Fore
SplineSet
928 610 m 1,0,-1
 909 513 l 1,1,-1
 828 513 l 1,2,-1
 726 0 l 1,3,-1
 494 0 l 1,4,-1
 545 253 l 1,5,-1
 328 253 l 1,6,-1
 277 0 l 1,7,-1
 45 0 l 1,8,-1
 147 513 l 1,9,-1
 68 513 l 1,10,-1
 87 611 l 1,11,-1
 167 611 l 1,12,-1
 185 701 l 1,13,-1
 417 701 l 1,14,-1
 399 611 l 1,15,-1
 616 610 l 1,16,-1
 634 701 l 1,17,-1
 866 701 l 1,18,-1
 848 610 l 1,19,-1
 928 610 l 1,0,-1
580 429 m 1,20,-1
 596 513 l 1,21,-1
 379 513 l 1,22,-1
 363 429 l 1,23,-1
 580 429 l 1,20,-1
EndSplineSet
EndChar

StartChar: hbar
Encoding: 295 295 234
Width: 685
Flags: W
LayerCount: 2
Fore
SplineSet
572 490.5 m 128,-1,1
 613 468 613 468 636 429 c 128,-1,2
 659 390 659 390 659 342 c 0,3,4
 659 320 659 320 655 301 c 2,5,-1
 596 0 l 1,6,-1
 371 0 l 1,7,-1
 424 266 l 2,8,9
 425 271 425 271 425 280 c 0,10,11
 425 301 425 301 412 313 c 128,-1,12
 399 325 399 325 374 325 c 0,13,14
 342 325 342 325 315 301.5 c 128,-1,15
 288 278 288 278 281 242 c 2,16,-1
 232 0 l 1,17,-1
 7 0 l 1,18,-1
 119 567 l 1,19,-1
 59 567 l 1,20,-1
 79 667 l 1,21,-1
 139 667 l 1,22,-1
 154 742 l 1,23,-1
 379 742 l 1,24,-1
 364 667 l 1,25,-1
 514 667 l 1,26,-1
 494 567 l 1,27,-1
 343 567 l 1,28,-1
 318 445 l 1,29,30
 384 513 384 513 478 513 c 0,31,0
 531 513 531 513 572 490.5 c 128,-1,1
EndSplineSet
Substitution2: "<3,3> Small Caps in Latin lookup 11 subtable" hbar.sc
EndChar

StartChar: Iogonek
Encoding: 302 302 241
Width: 332
Flags: W
LayerCount: 2
Fore
SplineSet
367 701 m 1,0,-1
 227 0 l 1,1,-1
 162 0 l 1,2,3
 122 -25 122 -25 98.5 -49 c 128,-1,4
 75 -73 75 -73 75 -98 c 0,5,6
 75 -116 75 -116 91 -116 c 0,7,8
 102 -116 102 -116 118 -108 c 1,9,-1
 126 -219 l 1,10,11
 63 -244 63 -244 13 -244 c 0,12,13
 -35 -244 -35 -244 -58.5 -218.5 c 128,-1,14
 -82 -193 -82 -193 -82 -151 c 0,15,16
 -82 -75 -82 -75 -4 0 c 1,17,-1
 -5 0 l 1,18,-1
 135 701 l 1,19,-1
 367 701 l 1,0,-1
EndSplineSet
EndChar

StartChar: iogonek
Encoding: 303 303 242
Width: 336
Flags: W
LayerCount: 2
Fore
SplineSet
162.5 614.5 m 128,-1,1
 137 640 137 640 137 682 c 0,2,3
 137 720 137 720 155.5 751 c 128,-1,4
 174 782 174 782 206 799.5 c 128,-1,5
 238 817 238 817 276 817 c 0,6,7
 319 817 319 817 344.5 791.5 c 128,-1,8
 370 766 370 766 370 724 c 0,9,10
 370 686 370 686 351.5 655 c 128,-1,11
 333 624 333 624 301 606.5 c 128,-1,12
 269 589 269 589 231 589 c 0,13,0
 188 589 188 589 162.5 614.5 c 128,-1,1
110 547 m 1,14,-1
 335 547 l 1,15,-1
 226 0 l 1,16,-1
 167 0 l 1,17,18
 127 -25 127 -25 103.5 -49 c 128,-1,19
 80 -73 80 -73 80 -98 c 0,20,21
 80 -116 80 -116 96 -116 c 0,22,23
 107 -116 107 -116 123 -108 c 1,24,-1
 131 -219 l 1,25,26
 68 -244 68 -244 18 -244 c 0,27,28
 -30 -244 -30 -244 -53.5 -218.5 c 128,-1,29
 -77 -193 -77 -193 -77 -151 c 0,30,31
 -77 -75 -77 -75 1 0 c 1,32,-1
 110 547 l 1,14,-1
EndSplineSet
Substitution2: "<3,3> Small Caps in Latin lookup 11 subtable" iogonek.sc
EndChar

StartChar: dotlessi
Encoding: 305 305 244
Width: 336
Flags: W
LayerCount: 2
Fore
SplineSet
335 547 m 1,0,-1
 226 0 l 1,1,-1
 1 0 l 1,2,-1
 110 547 l 1,3,-1
 335 547 l 1,0,-1
EndSplineSet
Substitution2: "<3,3> Small Caps in Latin lookup 11 subtable" dotlessi.sc
EndChar

StartChar: kgreenlandic
Encoding: 312 312 251
Width: 679
Flags: W
LayerCount: 2
Fore
SplineSet
738 547 m 1,0,-1
 482 324 l 1,1,-1
 613 0 l 1,2,-1
 354 0 l 1,3,-1
 304 169 l 1,4,-1
 250 123 l 1,5,-1
 226 0 l 1,6,-1
 1 0 l 1,7,-1
 110 547 l 1,8,-1
 335 547 l 1,9,-1
 307 407 l 1,10,-1
 460 547 l 1,11,-1
 738 547 l 1,0,-1
EndSplineSet
Substitution2: "<3,3> Small Caps in Latin lookup 11 subtable" kgreenlandic.sc
EndChar

StartChar: Lslash
Encoding: 321 321 260
Width: 624
Flags: W
LayerCount: 2
Fore
SplineSet
306 193 m 1,0,-1
 598 193 l 1,1,-1
 559 0 l 1,2,-1
 35 0 l 1,3,-1
 86 255 l 1,4,-1
 -3 214 l 1,5,-1
 20 332 l 1,6,-1
 110 373 l 1,7,-1
 175 701 l 1,8,-1
 407 701 l 1,9,-1
 365 491 l 1,10,-1
 488 548 l 1,11,-1
 465 430 l 1,12,-1
 342 373 l 1,13,-1
 306 193 l 1,0,-1
EndSplineSet
EndChar

StartChar: lslash
Encoding: 322 322 261
Width: 449
Flags: W
LayerCount: 2
Fore
SplineSet
488 548 m 1,0,-1
 465 430 l 1,1,-1
 355 379 l 1,2,-1
 279 0 l 1,3,-1
 54 0 l 1,4,-1
 107 265 l 1,5,-1
 -3 214 l 1,6,-1
 20 332 l 1,7,-1
 130 383 l 1,8,-1
 202 742 l 1,9,-1
 427 742 l 1,10,-1
 378 497 l 1,11,-1
 488 548 l 1,0,-1
EndSplineSet
Substitution2: "<3,3> Small Caps in Latin lookup 11 subtable" lslash.sc
EndChar

StartChar: Eng
Encoding: 330 330 269
Width: 781
Flags: W
LayerCount: 2
Fore
SplineSet
816 701 m 1,0,-1
 676 0 l 1,1,2
 648 -106 648 -106 565.5 -165.5 c 128,-1,3
 483 -225 483 -225 367 -225 c 0,4,5
 275 -225 275 -225 206 -185 c 1,6,-1
 316 -10 l 1,7,8
 369 -32 369 -32 406 -32 c 0,9,10
 457 -32 457 -32 473 16 c 1,11,-1
 278 358 l 1,12,-1
 206 0 l 1,13,-1
 -5 0 l 1,14,-1
 135 701 l 1,15,-1
 329 701 l 1,16,-1
 534 341 l 1,17,-1
 606 701 l 1,18,-1
 816 701 l 1,0,-1
EndSplineSet
EndChar

StartChar: eng
Encoding: 331 331 270
Width: 683
Flags: W
LayerCount: 2
Fore
SplineSet
620 515 m 128,-1,1
 663 473 663 473 663 400 c 0,2,3
 663 372 663 372 658 349 c 2,4,-1
 583 -23 l 2,5,6
 566 -105 566 -105 497.5 -154 c 128,-1,7
 429 -203 429 -203 330 -203 c 0,8,9
 240 -203 240 -203 180 -169 c 1,10,-1
 261 -15 l 1,11,12
 287 -29 287 -29 313 -29 c 0,13,14
 334 -30 334 -30 348 -18 c 128,-1,15
 362 -6 362 -6 366 17 c 2,16,-1
 420 284 l 2,17,18
 422 298 422 298 422 305 c 0,19,20
 422 331 422 331 408.5 345 c 128,-1,21
 395 359 395 359 370 359 c 0,22,23
 337 359 337 359 312.5 335 c 128,-1,24
 288 311 288 311 280 271 c 2,25,-1
 226 0 l 1,26,-1
 1 0 l 1,27,-1
 110 547 l 1,28,-1
 335 547 l 1,29,-1
 320 469 l 1,30,31
 356 512 356 512 403 534.5 c 128,-1,32
 450 557 450 557 503 557 c 0,33,0
 577 557 577 557 620 515 c 128,-1,1
EndSplineSet
Substitution2: "<3,3> Small Caps in Latin lookup 11 subtable" eng.sc
EndChar

StartChar: OE
Encoding: 338 338 277
Width: 1133
Flags: W
LayerCount: 2
Fore
SplineSet
775 525 m 1,0,-1
 758 439 l 1,1,-1
 1086 439 l 1,2,-1
 1051 263 l 1,3,-1
 723 263 l 1,4,-1
 706 176 l 1,5,-1
 1076 176 l 1,6,-1
 1040 0 l 1,7,-1
 385 0 l 2,8,9
 285 0 285 0 205 41.5 c 128,-1,10
 125 83 125 83 79 157.5 c 128,-1,11
 33 232 33 232 33 328 c 0,12,13
 33 432 33 432 89 517.5 c 128,-1,14
 145 603 145 603 242 652 c 128,-1,15
 339 701 339 701 456 701 c 2,16,-1
 1172 701 l 1,17,-1
 1136 525 l 1,18,-1
 775 525 l 1,0,-1
475 183 m 1,19,-1
 541 514 l 1,20,-1
 437 514 l 2,21,22
 391 514 391 514 353.5 490.5 c 128,-1,23
 316 467 316 467 294 426 c 128,-1,24
 272 385 272 385 272 336 c 0,25,26
 272 269 272 269 308.5 226 c 128,-1,27
 345 183 345 183 404 183 c 2,28,-1
 475 183 l 1,19,-1
EndSplineSet
EndChar

StartChar: oe
Encoding: 339 339 278
Width: 1007
Flags: W
LayerCount: 2
Fore
SplineSet
917.5 485 m 128,-1,1
 988 415 988 415 988 294 c 0,2,3
 988 261 988 261 982 223 c 1,4,-1
 623 223 l 1,5,6
 632 191 632 191 654 174.5 c 128,-1,7
 676 158 676 158 708 158 c 0,8,9
 768 158 768 158 826 207 c 1,10,-1
 932 92 l 1,11,12
 829 -8 829 -8 672 -8 c 0,13,14
 555 -8 555 -8 498 63 c 1,15,16
 422 -8 422 -8 300 -8 c 0,17,18
 213 -8 213 -8 149.5 23.5 c 128,-1,19
 86 55 86 55 51.5 112 c 128,-1,20
 17 169 17 169 17 246 c 0,21,22
 17 338 17 338 59.5 408 c 128,-1,23
 102 478 102 478 179 516.5 c 128,-1,24
 256 555 256 555 356 555 c 0,25,26
 472 555 472 555 534 484 c 1,27,28
 607 555 607 555 722 555 c 0,29,0
 847 555 847 555 917.5 485 c 128,-1,1
768 342 m 0,31,32
 768 370 768 370 751.5 387.5 c 128,-1,33
 735 405 735 405 709 405 c 0,34,35
 679 405 679 405 657.5 384 c 128,-1,36
 636 363 636 363 626 327 c 1,37,-1
 767 327 l 1,38,30
 768 332 768 332 768 342 c 0,31,32
384 198.5 m 128,-1,40
 410 232 410 232 410 285 c 0,41,42
 410 327 410 327 391 352 c 128,-1,43
 372 377 372 377 338 377 c 0,44,45
 297 377 297 377 271 343.5 c 128,-1,46
 245 310 245 310 245 257 c 0,47,48
 245 215 245 215 264 190 c 128,-1,49
 283 165 283 165 317 165 c 0,50,39
 358 165 358 165 384 198.5 c 128,-1,40
EndSplineSet
Substitution2: "<3,3> Small Caps in Latin lookup 11 subtable" oe.sc
EndChar

StartChar: Scedilla
Encoding: 350 350 289
Width: 650
Flags: W
LayerCount: 2
Fore
SplineSet
329.5 472 m 128,-1,1
 355 459 355 459 410 444 c 0,2,3
 478 424 478 424 522.5 404 c 128,-1,4
 567 384 567 384 600 343 c 128,-1,5
 633 302 633 302 633 235 c 0,6,7
 633 158 633 158 594.5 103.5 c 128,-1,8
 556 49 556 49 491.5 20.5 c 128,-1,9
 427 -8 427 -8 347 -13 c 1,10,-1
 323 -54 l 1,11,12
 359 -64 359 -64 376.5 -83.5 c 128,-1,13
 394 -103 394 -103 394 -129 c 0,14,15
 394 -186 394 -186 347.5 -215 c 128,-1,16
 301 -244 301 -244 234 -244 c 0,17,18
 174 -244 174 -244 117 -223 c 1,19,-1
 166 -130 l 1,20,21
 189 -139 189 -139 213 -139 c 0,22,23
 233 -139 233 -139 246.5 -132 c 128,-1,24
 260 -125 260 -125 260 -114 c 256,25,26
 260 -103 260 -103 244 -97 c 128,-1,27
 228 -91 228 -91 206 -91 c 2,28,-1
 186 -91 l 1,29,-1
 229 -7 l 1,30,31
 157 4 157 4 90 31.5 c 128,-1,32
 23 59 23 59 -26 100 c 1,33,-1
 78 275 l 1,34,35
 126 229 126 229 202.5 196.5 c 128,-1,36
 279 164 279 164 333 164 c 0,37,38
 361 164 361 164 377 174.5 c 128,-1,39
 393 185 393 185 393 206 c 0,40,41
 393 229 393 229 367 241.5 c 128,-1,42
 341 254 341 254 284 269 c 0,43,44
 217 287 217 287 172.5 306 c 128,-1,45
 128 325 128 325 95.5 364.5 c 128,-1,46
 63 404 63 404 63 468 c 0,47,48
 63 543 63 543 104 600 c 128,-1,49
 145 657 145 657 218.5 687.5 c 128,-1,50
 292 718 292 718 388 718 c 0,51,52
 470 718 470 718 549 695 c 128,-1,53
 628 672 628 672 685 634 c 1,54,-1
 582 457 l 1,55,56
 529 490 529 490 461.5 515 c 128,-1,57
 394 540 394 540 350 540 c 0,58,59
 329 540 329 540 316.5 532 c 128,-1,60
 304 524 304 524 304 507 c 0,61,0
 304 485 304 485 329.5 472 c 128,-1,1
EndSplineSet
EndChar

StartChar: scedilla
Encoding: 351 351 290
Width: 556
Flags: W
LayerCount: 2
Fore
SplineSet
284.5 365 m 128,-1,1
 300 357 300 357 337 342 c 0,2,3
 388 322 388 322 423 304 c 128,-1,4
 458 286 458 286 484 254.5 c 128,-1,5
 510 223 510 223 510 176 c 0,6,7
 510 122 510 122 481 80.5 c 128,-1,8
 452 39 452 39 400 15.5 c 128,-1,9
 348 -8 348 -8 281 -9 c 1,10,-1
 255 -54 l 1,11,12
 291 -64 291 -64 308.5 -83.5 c 128,-1,13
 326 -103 326 -103 326 -129 c 0,14,15
 326 -186 326 -186 279.5 -215 c 128,-1,16
 233 -244 233 -244 166 -244 c 0,17,18
 106 -244 106 -244 49 -223 c 1,19,-1
 98 -130 l 1,20,21
 121 -139 121 -139 145 -139 c 0,22,23
 165 -139 165 -139 178.5 -132 c 128,-1,24
 192 -125 192 -125 192 -114 c 256,25,26
 192 -103 192 -103 176 -97 c 128,-1,27
 160 -91 160 -91 138 -91 c 2,28,-1
 118 -91 l 1,29,-1
 167 4 l 1,30,31
 60 28 60 28 -23 98 c 1,32,-1
 67 226 l 1,33,34
 118 186 118 186 168 164 c 128,-1,35
 218 142 218 142 259 142 c 0,36,37
 296 142 296 142 296 164 c 0,38,39
 296 173 296 173 282.5 179.5 c 128,-1,40
 269 186 269 186 235 199 c 0,41,42
 184 218 184 218 148.5 236 c 128,-1,43
 113 254 113 254 86 286.5 c 128,-1,44
 59 319 59 319 59 366 c 0,45,46
 59 421 59 421 88 464 c 128,-1,47
 117 507 117 507 169.5 531 c 128,-1,48
 222 555 222 555 290 555 c 0,49,50
 362 555 362 555 435.5 529.5 c 128,-1,51
 509 504 509 504 574 457 c 1,52,-1
 478 331 l 1,53,54
 425 366 425 366 378.5 386 c 128,-1,55
 332 406 332 406 301 406 c 0,56,57
 287 406 287 406 278 400 c 128,-1,58
 269 394 269 394 269 384 c 0,59,0
 269 373 269 373 284.5 365 c 128,-1,1
EndSplineSet
Substitution2: "<3,3> Small Caps in Latin lookup 11 subtable" scedilla.sc
EndChar

StartChar: uni0162
Encoding: 354 354 293
Width: 642
Flags: W
LayerCount: 2
Fore
SplineSet
685 518 m 1,0,-1
 485 518 l 1,1,-1
 381 0 l 1,2,-1
 328 0 l 1,3,-1
 297 -54 l 1,4,5
 333 -64 333 -64 350.5 -83.5 c 128,-1,6
 368 -103 368 -103 368 -129 c 0,7,8
 368 -186 368 -186 321.5 -215 c 128,-1,9
 275 -244 275 -244 208 -244 c 0,10,11
 148 -244 148 -244 91 -223 c 1,12,-1
 140 -130 l 1,13,14
 163 -139 163 -139 187 -139 c 0,15,16
 207 -139 207 -139 220.5 -132 c 128,-1,17
 234 -125 234 -125 234 -114 c 256,18,19
 234 -103 234 -103 218 -97 c 128,-1,20
 202 -91 202 -91 180 -91 c 2,21,-1
 160 -91 l 1,22,-1
 207 0 l 1,23,-1
 149 0 l 1,24,-1
 253 518 l 1,25,-1
 54 518 l 1,26,-1
 91 701 l 1,27,-1
 722 701 l 1,28,-1
 685 518 l 1,0,-1
EndSplineSet
EndChar

StartChar: uni0163
Encoding: 355 355 294
Width: 467
Flags: W
LayerCount: 2
Fore
SplineSet
293 201 m 2,0,1
 291 189 291 189 291 186 c 0,2,3
 291 162 291 162 317 164 c 0,4,5
 339 164 339 164 381 181 c 1,6,-1
 401 20 l 1,7,8
 357 -4 357 -4 277 -9 c 1,9,-1
 251 -54 l 1,10,11
 287 -64 287 -64 304.5 -83.5 c 128,-1,12
 322 -103 322 -103 322 -129 c 0,13,14
 322 -186 322 -186 275.5 -215 c 128,-1,15
 229 -244 229 -244 162 -244 c 0,16,17
 102 -244 102 -244 45 -223 c 1,18,-1
 94 -130 l 1,19,20
 116 -139 116 -139 141 -139 c 0,21,22
 161 -139 161 -139 174.5 -132 c 128,-1,23
 188 -125 188 -125 188 -114 c 256,24,25
 188 -103 188 -103 172 -97 c 128,-1,26
 156 -91 156 -91 134 -91 c 2,27,-1
 114 -91 l 1,28,-1
 162 3 l 1,29,30
 114 20 114 20 88 57 c 128,-1,31
 62 94 62 94 62 145 c 0,32,33
 62 166 62 166 66 185 c 2,34,-1
 104 375 l 1,35,-1
 29 375 l 1,36,-1
 57 517 l 1,37,-1
 132 517 l 1,38,-1
 163 670 l 1,39,-1
 387 670 l 1,40,-1
 356 517 l 1,41,-1
 484 517 l 1,42,-1
 456 375 l 1,43,-1
 328 375 l 1,44,-1
 293 201 l 2,0,1
EndSplineSet
Substitution2: "<3,3> Small Caps in Latin lookup 11 subtable" uni0163.sc
EndChar

StartChar: Tbar
Encoding: 358 358 297
Width: 642
Flags: W
LayerCount: 2
Fore
SplineSet
685 518 m 1,0,-1
 485 518 l 1,1,-1
 453 359 l 1,2,-1
 565 359 l 1,3,-1
 542 240 l 1,4,-1
 429 240 l 1,5,-1
 381 0 l 1,6,-1
 149 0 l 1,7,-1
 197 240 l 1,8,-1
 87 240 l 1,9,-1
 110 359 l 1,10,-1
 221 359 l 1,11,-1
 253 518 l 1,12,-1
 54 518 l 1,13,-1
 91 701 l 1,14,-1
 722 701 l 1,15,-1
 685 518 l 1,0,-1
EndSplineSet
EndChar

StartChar: tbar
Encoding: 359 359 298
Width: 460
Flags: W
LayerCount: 2
Fore
SplineSet
333 400 m 1,0,-1
 323 349 l 1,1,-1
 450 349 l 1,2,-1
 427 232 l 1,3,-1
 299 232 l 1,4,-1
 295 210 l 2,5,6
 294 205 294 205 294 197 c 0,7,8
 294 181 294 181 303 172 c 128,-1,9
 312 163 312 163 329 164 c 0,10,11
 350 164 350 164 388 178 c 1,12,-1
 395 24 l 1,13,14
 365 8 365 8 320 -1 c 128,-1,15
 275 -10 275 -10 230 -10 c 0,16,17
 150 -10 150 -10 104.5 28.5 c 128,-1,18
 59 67 59 67 59 133 c 0,19,20
 59 151 59 151 64 176 c 2,21,-1
 75 232 l 1,22,-1
 0 232 l 1,23,-1
 23 349 l 1,24,-1
 99 349 l 1,25,-1
 109 400 l 1,26,-1
 34 400 l 1,27,-1
 57 517 l 1,28,-1
 132 517 l 1,29,-1
 163 670 l 1,30,-1
 387 670 l 1,31,-1
 356 517 l 1,32,-1
 484 517 l 1,33,-1
 461 400 l 1,34,-1
 333 400 l 1,0,-1
EndSplineSet
Substitution2: "<3,3> Small Caps in Latin lookup 11 subtable" tbar.sc
EndChar

StartChar: Uogonek
Encoding: 370 370 309
Width: 754
Flags: W
LayerCount: 2
Fore
SplineSet
799 701 m 1,0,-1
 718 297 l 2,1,2
 703 224 703 224 667 165 c 128,-1,3
 631 106 631 106 577 65 c 0,4,5
 522 22 522 22 489.5 -22 c 128,-1,6
 457 -66 457 -66 457 -97 c 0,7,8
 457 -116 457 -116 472 -116 c 0,9,10
 483 -116 483 -116 499 -108 c 1,11,-1
 507 -219 l 1,12,13
 477 -231 477 -231 452.5 -237.5 c 128,-1,14
 428 -244 428 -244 399 -244 c 0,15,16
 354 -244 354 -244 326 -222 c 128,-1,17
 298 -200 298 -200 298 -156 c 0,18,19
 298 -114 298 -114 318 -79 c 128,-1,20
 338 -44 338 -44 381 -8 c 1,21,22
 351 -10 351 -10 333 -10 c 0,23,24
 244 -10 244 -10 177.5 19.5 c 128,-1,25
 111 49 111 49 74.5 104 c 128,-1,26
 38 159 38 159 38 233 c 0,27,28
 38 259 38 259 45 297 c 2,29,-1
 126 701 l 1,30,-1
 358 701 l 1,31,-1
 277 297 l 2,32,33
 274 284 274 284 274 271 c 0,34,35
 274 231 274 231 299 207 c 128,-1,36
 324 183 324 183 362 183 c 0,37,38
 406 183 406 183 441 214.5 c 128,-1,39
 476 246 476 246 486 297 c 2,40,-1
 567 701 l 1,41,-1
 799 701 l 1,0,-1
EndSplineSet
EndChar

StartChar: uogonek
Encoding: 371 371 310
Width: 686
Flags: W
LayerCount: 2
Fore
SplineSet
684 547 m 1,0,-1
 576 0 l 1,1,-1
 517 0 l 1,2,3
 477 -25 477 -25 453.5 -49 c 128,-1,4
 430 -73 430 -73 430 -98 c 0,5,6
 430 -116 430 -116 446 -116 c 0,7,8
 457 -116 457 -116 473 -108 c 1,9,-1
 481 -219 l 1,10,11
 418 -244 418 -244 368 -244 c 0,12,13
 320 -244 320 -244 296.5 -218.5 c 128,-1,14
 273 -193 273 -193 273 -151 c 0,15,16
 273 -75 273 -75 351 0 c 1,17,-1
 364 68 l 1,18,19
 297 -8 297 -8 203 -8 c 0,20,21
 150 -8 150 -8 110 15 c 128,-1,22
 70 38 70 38 47.5 79 c 128,-1,23
 25 120 25 120 25 172 c 0,24,25
 25 194 25 194 30 222 c 2,26,-1
 95 547 l 1,27,-1
 320 547 l 1,28,-1
 262 256 l 2,29,30
 260 242 260 242 260 235 c 0,31,32
 260 209 260 209 273.5 194.5 c 128,-1,33
 287 180 287 180 311 180 c 0,34,35
 343 180 343 180 370.5 208.5 c 128,-1,36
 398 237 398 237 406 280 c 2,37,-1
 459 547 l 1,38,-1
 684 547 l 1,0,-1
EndSplineSet
Substitution2: "<3,3> Small Caps in Latin lookup 11 subtable" uogonek.sc
EndChar

StartChar: uni018F
Encoding: 399 399 322
Width: 788
Flags: W
LayerCount: 2
Fore
SplineSet
623 674 m 128,-1,1
 701 632 701 632 744.5 557.5 c 128,-1,2
 788 483 788 483 788 388 c 0,3,4
 788 276 788 276 733.5 183.5 c 128,-1,5
 679 91 679 91 585.5 37.5 c 128,-1,6
 492 -16 492 -16 380 -16 c 0,7,8
 276 -16 276 -16 199 28.5 c 128,-1,9
 122 73 122 73 80.5 154.5 c 128,-1,10
 39 236 39 236 39 346 c 0,11,12
 39 362 39 362 41 398 c 1,13,-1
 549 398 l 1,14,15
 543 454 543 454 512 488.5 c 128,-1,16
 481 523 481 523 431 523 c 0,17,18
 390 523 390 523 353 500 c 128,-1,19
 316 477 316 477 292 438 c 1,20,-1
 149 603 l 1,21,22
 205 657 205 657 281 686.5 c 128,-1,23
 357 716 357 716 444 716 c 0,24,0
 545 716 545 716 623 674 c 128,-1,1
479.5 202 m 128,-1,26
 513 227 513 227 531 271 c 1,27,-1
 282 271 l 1,28,29
 295 227 295 227 325.5 202 c 128,-1,30
 356 177 356 177 399 177 c 0,31,25
 446 177 446 177 479.5 202 c 128,-1,26
EndSplineSet
EndChar

StartChar: florin
Encoding: 402 402 323
Width: 491
Flags: W
LayerCount: 2
Fore
SplineSet
413 564 m 128,-1,1
 396 550 396 550 392 529 c 2,2,-1
 380 467 l 1,3,-1
 485 467 l 1,4,-1
 458 325 l 1,5,-1
 353 325 l 1,6,-1
 286 -21 l 2,7,8
 270 -105 270 -105 203.5 -154.5 c 128,-1,9
 137 -204 137 -204 41 -204 c 0,10,11
 2 -204 2 -204 -36 -192.5 c 128,-1,12
 -74 -181 -74 -181 -97 -163 c 1,13,-1
 -36 -13 l 1,14,15
 -26 -22 -26 -22 -12 -26 c 128,-1,16
 2 -30 2 -30 14 -30 c 0,17,18
 35 -30 35 -30 49 -16.5 c 128,-1,19
 63 -3 63 -3 67 19 c 2,20,-1
 127 325 l 1,21,-1
 53 325 l 1,22,-1
 80 467 l 1,23,-1
 155 467 l 1,24,-1
 175 569 l 2,25,26
 191 653 191 653 257.5 702.5 c 128,-1,27
 324 752 324 752 419 752 c 0,28,29
 466 752 466 752 511.5 740.5 c 128,-1,30
 557 729 557 729 588 711 c 1,31,-1
 506 561 l 1,32,33
 495 570 495 570 480.5 574 c 128,-1,34
 466 578 466 578 455 578 c 0,35,0
 430 578 430 578 413 564 c 128,-1,1
EndSplineSet
EndChar

StartChar: Ohorn
Encoding: 416 416 324
Width: 848
Flags: W
LayerCount: 2
Fore
SplineSet
896 785 m 0,1,2
 896 714 896 714 856 660 c 128,-1,3
 816 606 816 606 747 581 c 1,4,5
 807 496 807 496 807 385 c 0,6,7
 807 272 807 272 751 180.5 c 128,-1,8
 695 89 695 89 598 36.5 c 128,-1,9
 501 -16 501 -16 383 -16 c 0,10,11
 280 -16 280 -16 200.5 27 c 128,-1,12
 121 70 121 70 77 146 c 128,-1,13
 33 222 33 222 33 318 c 0,14,15
 33 431 33 431 89 522 c 128,-1,16
 145 613 145 613 242 664.5 c 128,-1,17
 339 716 339 716 457 716 c 0,18,19
 546 716 546 716 618 684 c 1,20,-1
 619 684 l 2,21,22
 623 681 623 681 633 677 c 0,23,24
 642 674 642 674 652 674 c 0,25,26
 683 674 683 674 703 699 c 128,-1,27
 723 724 723 724 723 758 c 0,28,29
 723 781 723 781 713 801 c 1,30,-1
 885 859 l 1,31,0
 896 823 896 823 896 785 c 0,1,2
485.5 202.5 m 128,-1,33
 523 228 523 228 545.5 272 c 128,-1,34
 568 316 568 316 568 369 c 0,35,36
 568 436 568 436 531.5 479.5 c 128,-1,37
 495 523 495 523 440 523 c 0,38,39
 397 523 397 523 358.5 498 c 128,-1,40
 320 473 320 473 296 429.5 c 128,-1,41
 272 386 272 386 272 334 c 0,42,43
 272 290 272 290 290 254 c 128,-1,44
 308 218 308 218 338.5 197.5 c 128,-1,45
 369 177 369 177 405 177 c 0,46,32
 448 177 448 177 485.5 202.5 c 128,-1,33
EndSplineSet
EndChar

StartChar: ohorn
Encoding: 417 417 325
Width: 707
Flags: W
LayerCount: 2
Fore
SplineSet
770 631 m 0,1,2
 770 558 770 558 727 503 c 128,-1,3
 684 448 684 448 611 424 c 1,4,5
 638 372 638 372 638 302 c 0,6,7
 638 210 638 210 595.5 139.5 c 128,-1,8
 553 69 553 69 476.5 30.5 c 128,-1,9
 400 -8 400 -8 300 -8 c 0,10,11
 213 -8 213 -8 149.5 23.5 c 128,-1,12
 86 55 86 55 51.5 112 c 128,-1,13
 17 169 17 169 17 246 c 0,14,15
 17 338 17 338 59.5 408 c 128,-1,16
 102 478 102 478 179 516.5 c 128,-1,17
 256 555 256 555 356 555 c 0,18,19
 444 555 444 555 510 522 c 0,20,21
 520 520 520 520 526 520 c 0,22,23
 557 520 557 520 577 545 c 128,-1,24
 597 570 597 570 597 604 c 0,25,26
 597 627 597 627 587 647 c 1,27,-1
 759 705 l 1,28,0
 770 664 770 664 770 631 c 0,1,2
384 198.5 m 128,-1,30
 410 232 410 232 410 285 c 0,31,32
 410 327 410 327 391 352 c 128,-1,33
 372 377 372 377 338 377 c 0,34,35
 297 377 297 377 271 343.5 c 128,-1,36
 245 310 245 310 245 257 c 0,37,38
 245 215 245 215 264 190 c 128,-1,39
 283 165 283 165 317 165 c 0,40,29
 358 165 358 165 384 198.5 c 128,-1,30
EndSplineSet
Substitution2: "<3,3> Small Caps in Latin lookup 11 subtable" ohorn.sc
EndChar

StartChar: Uhorn
Encoding: 431 431 326
Width: 853
Flags: W
LayerCount: 2
Fore
SplineSet
943 794 m 0,1,2
 943 719 943 719 901 670 c 128,-1,3
 859 621 859 621 779 602 c 1,4,-1
 718 297 l 2,5,6
 700 204 700 204 647 135 c 128,-1,7
 594 66 594 66 513.5 28 c 128,-1,8
 433 -10 433 -10 333 -10 c 0,9,10
 244 -10 244 -10 177.5 19.5 c 128,-1,11
 111 49 111 49 74.5 104 c 128,-1,12
 38 159 38 159 38 233 c 0,13,14
 38 259 38 259 45 297 c 2,15,-1
 126 701 l 1,16,-1
 358 701 l 1,17,-1
 277 297 l 2,18,19
 274 284 274 284 274 271 c 0,20,21
 274 231 274 231 299 207 c 128,-1,22
 324 183 324 183 362 183 c 0,23,24
 406 183 406 183 441 214.5 c 128,-1,25
 476 246 476 246 486 297 c 2,26,-1
 567 701 l 1,27,-1
 719 701 l 2,28,29
 749 701 749 701 764.5 721 c 128,-1,30
 780 741 780 741 780 768 c 0,31,32
 780 789 780 789 772 802 c 1,33,-1
 936 859 l 1,34,0
 943 827 943 827 943 794 c 0,1,2
EndSplineSet
EndChar

StartChar: uhorn
Encoding: 432 432 327
Width: 752
Flags: W
LayerCount: 2
Fore
SplineSet
827 640 m 0,1,2
 827 565 827 565 785 516 c 128,-1,3
 743 467 743 467 665 449 c 1,4,-1
 576 0 l 1,5,-1
 351 0 l 1,6,-1
 364 68 l 1,7,8
 297 -8 297 -8 203 -8 c 0,9,10
 150 -8 150 -8 110 15 c 128,-1,11
 70 38 70 38 47.5 79 c 128,-1,12
 25 120 25 120 25 172 c 0,13,14
 25 194 25 194 30 222 c 2,15,-1
 95 547 l 1,16,-1
 320 547 l 1,17,-1
 262 256 l 2,18,19
 260 242 260 242 260 235 c 0,20,21
 260 209 260 209 273.5 194.5 c 128,-1,22
 287 180 287 180 311 180 c 0,23,24
 343 180 343 180 370.5 208.5 c 128,-1,25
 398 237 398 237 406 280 c 2,26,-1
 459 547 l 1,27,-1
 603 547 l 2,28,29
 633 547 633 547 648.5 567 c 128,-1,30
 664 587 664 587 664 614 c 0,31,32
 664 635 664 635 656 648 c 1,33,-1
 820 705 l 1,34,0
 827 673 827 673 827 640 c 0,1,2
EndSplineSet
Substitution2: "<3,3> Small Caps in Latin lookup 11 subtable" uhorn.sc
EndChar

StartChar: uni01EA
Encoding: 490 490 339
Width: 807
Flags: W
LayerCount: 2
Fore
SplineSet
761.5 199.5 m 128,-1,1
 716 115 716 115 636 60 c 1,2,3
 585 18 585 18 554 -25 c 128,-1,4
 523 -68 523 -68 523 -97 c 0,5,6
 523 -116 523 -116 538 -116 c 0,7,8
 549 -116 549 -116 565 -108 c 1,9,-1
 573 -219 l 1,10,11
 543 -231 543 -231 518.5 -237.5 c 128,-1,12
 494 -244 494 -244 465 -244 c 0,13,14
 420 -244 420 -244 392 -222 c 128,-1,15
 364 -200 364 -200 364 -156 c 0,16,17
 364 -116 364 -116 382.5 -81.5 c 128,-1,18
 401 -47 401 -47 442 -12 c 1,19,20
 417 -16 417 -16 383 -16 c 0,21,22
 280 -16 280 -16 200.5 27 c 128,-1,23
 121 70 121 70 77 146 c 128,-1,24
 33 222 33 222 33 318 c 0,25,26
 33 431 33 431 89 522 c 128,-1,27
 145 613 145 613 242 664.5 c 128,-1,28
 339 716 339 716 457 716 c 0,29,30
 560 716 560 716 639.5 673.5 c 128,-1,31
 719 631 719 631 763 556 c 128,-1,32
 807 481 807 481 807 385 c 0,33,0
 807 284 807 284 761.5 199.5 c 128,-1,1
290 254 m 128,-1,35
 308 218 308 218 338.5 197.5 c 128,-1,36
 369 177 369 177 405 177 c 0,37,38
 448 177 448 177 485.5 202.5 c 128,-1,39
 523 228 523 228 545.5 272 c 128,-1,40
 568 316 568 316 568 369 c 0,41,42
 568 436 568 436 531.5 479.5 c 128,-1,43
 495 523 495 523 440 523 c 0,44,45
 397 523 397 523 358.5 498 c 128,-1,46
 320 473 320 473 296 429.5 c 128,-1,47
 272 386 272 386 272 334 c 0,48,34
 272 290 272 290 290 254 c 128,-1,35
EndSplineSet
EndChar

StartChar: uni01EB
Encoding: 491 491 340
Width: 654
Flags: W
LayerCount: 2
Fore
SplineSet
607 161 m 128,-1,1
 576 98 576 98 520 57 c 0,2,3
 470 16 470 16 440 -26 c 128,-1,4
 410 -68 410 -68 410 -97 c 0,5,6
 410 -116 410 -116 425 -116 c 0,7,8
 436 -116 436 -116 452 -108 c 1,9,-1
 460 -219 l 1,10,11
 430 -231 430 -231 405.5 -237.5 c 128,-1,12
 381 -244 381 -244 352 -244 c 0,13,14
 307 -244 307 -244 279 -222 c 128,-1,15
 251 -200 251 -200 251 -156 c 0,16,17
 251 -114 251 -114 271 -79 c 128,-1,18
 291 -44 291 -44 336 -7 c 1,19,20
 324 -8 324 -8 300 -8 c 0,21,22
 213 -8 213 -8 149.5 23.5 c 128,-1,23
 86 55 86 55 51.5 112 c 128,-1,24
 17 169 17 169 17 246 c 0,25,26
 17 338 17 338 59.5 408 c 128,-1,27
 102 478 102 478 179 516.5 c 128,-1,28
 256 555 256 555 356 555 c 0,29,30
 443 555 443 555 506.5 524 c 128,-1,31
 570 493 570 493 604 436 c 128,-1,32
 638 379 638 379 638 302 c 0,33,0
 638 224 638 224 607 161 c 128,-1,1
264 190 m 128,-1,35
 283 165 283 165 317 165 c 0,36,37
 358 165 358 165 384 198.5 c 128,-1,38
 410 232 410 232 410 285 c 0,39,40
 410 327 410 327 391 352 c 128,-1,41
 372 377 372 377 338 377 c 0,42,43
 297 377 297 377 271 343.5 c 128,-1,44
 245 310 245 310 245 257 c 0,45,34
 245 215 245 215 264 190 c 128,-1,35
EndSplineSet
Substitution2: "<3,3> Small Caps in Latin lookup 11 subtable" uni01EB.sc
EndChar

StartChar: uni0237
Encoding: 567 567 383
Width: 336
Flags: W
LayerCount: 2
Fore
SplineSet
-60 -29 m 0,1,2
 -36 -29 -36 -29 -17.5 -13 c 128,-1,3
 1 3 1 3 6 26 c 2,4,-1
 110 547 l 1,5,-1
 335 547 l 1,6,-1
 221 -26 l 2,7,8
 204 -111 204 -111 141 -157 c 128,-1,9
 78 -203 78 -203 -16 -203 c 0,10,11
 -87 -203 -87 -203 -149 -178 c 1,12,-1
 -87 -27 l 1,13,0
 -76 -29 -76 -29 -60 -29 c 0,1,2
EndSplineSet
EndChar

StartChar: uni0259
Encoding: 601 601 384
Width: 623
Flags: W
LayerCount: 2
Fore
SplineSet
467.5 524 m 128,-1,1
 535 494 535 494 571.5 438 c 128,-1,2
 608 382 608 382 608 308 c 0,3,4
 608 218 608 218 568.5 146 c 128,-1,5
 529 74 529 74 458.5 33.5 c 128,-1,6
 388 -7 388 -7 299 -7 c 0,7,8
 213 -7 213 -7 149 24.5 c 128,-1,9
 85 56 85 56 50.5 113.5 c 128,-1,10
 16 171 16 171 16 246 c 0,11,12
 16 284 16 284 25 324 c 1,13,-1
 387 324 l 1,14,15
 376 390 376 390 301 390 c 0,16,17
 244 390 244 390 191 349 c 1,18,-1
 75 463 l 1,19,20
 172 554 172 554 309 554 c 0,21,0
 400 554 400 554 467.5 524 c 128,-1,1
332.5 165.5 m 128,-1,23
 356 186 356 186 371 220 c 1,24,-1
 234 220 l 1,25,26
 229 207 229 207 229 197 c 0,27,28
 229 175 229 175 244 160 c 128,-1,29
 259 145 259 145 283 145 c 0,30,22
 309 145 309 145 332.5 165.5 c 128,-1,23
EndSplineSet
Substitution2: "<3,3> Small Caps in Latin lookup 11 subtable" uni0259.sc
EndChar

StartChar: uni02BB
Encoding: 699 699 385
Width: 328
Flags: W
LayerCount: 2
Fore
SplineSet
271 470 m 1,0,-1
 120 506 l 1,1,-1
 188 700 l 1,2,-1
 316 700 l 1,3,-1
 271 470 l 1,0,-1
EndSplineSet
EndChar

StartChar: uni02BC
Encoding: 700 700 386
Width: 185
Flags: W
LayerCount: 2
Fore
SplineSet
105 701 m 1,0,-1
 250 701 l 1,1,-1
 169 437 l 1,2,-1
 54 437 l 1,3,-1
 105 701 l 1,0,-1
EndSplineSet
EndChar

StartChar: uni02BE
Encoding: 702 702 387
Width: 243
Flags: W
LayerCount: 2
Fore
SplineSet
149 664 m 1,0,1
 167 664 167 664 180 677 c 128,-1,2
 193 690 193 690 193 709 c 0,3,4
 193 723 193 723 183.5 732.5 c 128,-1,5
 174 742 174 742 159 742 c 1,6,-1
 169 827 l 1,7,8
 217 827 217 827 248 796 c 128,-1,9
 279 765 279 765 279 718 c 0,10,11
 279 681 279 681 259.5 649 c 128,-1,12
 240 617 240 617 207.5 598 c 128,-1,13
 175 579 175 579 139 579 c 1,14,-1
 149 664 l 1,0,1
EndSplineSet
EndChar

StartChar: uni02BF
Encoding: 703 703 388
Width: 268
Flags: W
LayerCount: 2
Fore
SplineSet
255 664 m 1,0,1
 241 664 241 664 232 673.5 c 128,-1,2
 223 683 223 683 223 697 c 0,3,4
 223 716 223 716 237 729 c 128,-1,5
 251 742 251 742 270 742 c 1,6,-1
 286 827 l 1,7,8
 248 827 248 827 213.5 807 c 128,-1,9
 179 787 179 787 157.5 754 c 128,-1,10
 136 721 136 721 136 683 c 0,11,12
 136 639 136 639 165 609 c 128,-1,13
 194 579 194 579 238 579 c 1,14,-1
 255 664 l 1,0,1
EndSplineSet
EndChar

StartChar: caron
Encoding: 711 711 390
Width: 461
Flags: W
LayerCount: 2
Fore
SplineSet
385 769 m 1,0,-1
 525 769 l 1,1,-1
 383 607 l 1,2,-1
 195 607 l 1,3,-1
 115 769 l 1,4,-1
 255 769 l 1,5,-1
 306 698 l 1,6,-1
 385 769 l 1,0,-1
EndSplineSet
EndChar

StartChar: uni02C8
Encoding: 712 712 391
Width: 332
Flags: W
LayerCount: 2
Fore
SplineSet
139 497 m 1,0,-1
 179 701 l 1,1,-1
 323 701 l 1,2,-1
 283 497 l 1,3,-1
 139 497 l 1,0,-1
EndSplineSet
EndChar

StartChar: uni02C9
Encoding: 713 713 392
Width: 473
Flags: W
LayerCount: 2
Fore
SplineSet
184 762 m 1,0,-1
 484 762 l 1,1,-1
 459 634 l 1,2,-1
 159 634 l 1,3,-1
 184 762 l 1,0,-1
EndSplineSet
EndChar

StartChar: uni02CA
Encoding: 714 714 393
Width: 360
Flags: W
LayerCount: 2
Fore
SplineSet
264 780 m 1,0,-1
 421 720 l 1,1,-1
 234 591 l 1,2,-1
 94 601 l 1,3,-1
 264 780 l 1,0,-1
EndSplineSet
EndChar

StartChar: uni02CB
Encoding: 715 715 394
Width: 324
Flags: W
LayerCount: 2
Fore
SplineSet
295 780 m 1,0,-1
 371 601 l 1,1,-1
 226 591 l 1,2,-1
 113 720 l 1,3,-1
 295 780 l 1,0,-1
EndSplineSet
EndChar

StartChar: uni02CC
Encoding: 716 716 395
Width: 336
Flags: W
LayerCount: 2
Fore
SplineSet
-7 -234 m 1,0,-1
 33 -30 l 1,1,-1
 181 -30 l 1,2,-1
 141 -234 l 1,3,-1
 -7 -234 l 1,0,-1
EndSplineSet
EndChar

StartChar: gravecomb
Encoding: 768 768 402
Width: 0
Flags: W
LayerCount: 2
Fore
SplineSet
-41 780 m 1,0,-1
 70 601 l 1,1,-1
 -73 591 l 1,2,-1
 -211 720 l 1,3,-1
 -41 780 l 1,0,-1
EndSplineSet
Substitution2: "<3,3> Small Caps in Latin lookup 11 subtable" gravecomb.sc
EndChar

StartChar: acutecomb
Encoding: 769 769 403
Width: 0
Flags: W
LayerCount: 2
Fore
SplineSet
-131 780 m 1,0,-1
 38 720 l 1,1,-1
 -124 591 l 1,2,-1
 -266 601 l 1,3,-1
 -131 780 l 1,0,-1
EndSplineSet
Substitution2: "<3,3> Small Caps in Latin lookup 11 subtable" acutecomb.sc
EndChar

StartChar: uni0302
Encoding: 770 770 404
Width: 0
Flags: W
LayerCount: 2
Fore
SplineSet
51 607 m 1,0,-1
 -89 607 l 1,1,-1
 -140 679 l 1,2,-1
 -219 607 l 1,3,-1
 -359 607 l 1,4,-1
 -217 769 l 1,5,-1
 -29 769 l 1,6,-1
 51 607 l 1,0,-1
EndSplineSet
Substitution2: "<3,3> Small Caps in Latin lookup 11 subtable" uni0302.sc
EndChar

StartChar: tildecomb
Encoding: 771 771 405
Width: 0
Flags: W
LayerCount: 2
Fore
SplineSet
-26.5 636 m 128,-1,1
 -60 594 -60 594 -116 594 c 0,2,3
 -141 594 -141 594 -160 601 c 128,-1,4
 -179 608 -179 608 -203 621 c 0,5,6
 -207 623 -207 623 -219.5 629 c 128,-1,7
 -232 635 -232 635 -241 635 c 0,8,9
 -269 635 -269 635 -278 596 c 1,10,-1
 -395 596 l 1,11,12
 -377 688 -377 688 -342.5 731 c 128,-1,13
 -308 774 -308 774 -252 774 c 0,14,15
 -228 774 -228 774 -208 767 c 128,-1,16
 -188 760 -188 760 -165 747 c 0,17,18
 -140 733 -140 733 -128 733 c 0,19,20
 -113 733 -113 733 -104.5 742 c 128,-1,21
 -96 751 -96 751 -91 771 c 1,22,-1
 25 771 l 1,23,0
 7 678 7 678 -26.5 636 c 128,-1,1
EndSplineSet
Substitution2: "<3,3> Small Caps in Latin lookup 11 subtable" tildecomb.sc
EndChar

StartChar: uni0304
Encoding: 772 772 406
Width: 0
Flags: W
LayerCount: 2
Fore
SplineSet
-299 762 m 1,0,-1
 21 762 l 1,1,-1
 -4 634 l 1,2,-1
 -324 634 l 1,3,-1
 -299 762 l 1,0,-1
EndSplineSet
Substitution2: "<3,3> Small Caps in Latin lookup 11 subtable" uni0304.sc
EndChar

StartChar: uni0306
Encoding: 774 774 407
Width: 0
Flags: W
LayerCount: 2
Fore
SplineSet
-182.5 732.5 m 128,-1,1
 -172 719 -172 719 -152 719 c 256,2,3
 -132 719 -132 719 -116 732.5 c 128,-1,4
 -100 746 -100 746 -93 769 c 1,5,-1
 42 769 l 1,6,7
 22 689 22 689 -37 642 c 128,-1,8
 -96 595 -96 595 -176 595 c 0,9,10
 -247 595 -247 595 -288 633 c 128,-1,11
 -329 671 -329 671 -329 736 c 0,12,13
 -329 751 -329 751 -326 769 c 1,14,-1
 -191 769 l 1,15,0
 -193 746 -193 746 -182.5 732.5 c 128,-1,1
EndSplineSet
Substitution2: "<3,3> Small Caps in Latin lookup 11 subtable" uni0306.sc
EndChar

StartChar: uni0307
Encoding: 775 775 408
Width: 0
Flags: W
LayerCount: 2
Fore
SplineSet
6.5 791.5 m 128,-1,1
 32 766 32 766 32 724 c 0,2,3
 32 686 32 686 13.5 655 c 128,-1,4
 -5 624 -5 624 -37 606.5 c 128,-1,5
 -69 589 -69 589 -107 589 c 0,6,7
 -150 589 -150 589 -175.5 614.5 c 128,-1,8
 -201 640 -201 640 -201 682 c 0,9,10
 -201 720 -201 720 -182.5 751 c 128,-1,11
 -164 782 -164 782 -132 799.5 c 128,-1,12
 -100 817 -100 817 -62 817 c 0,13,0
 -19 817 -19 817 6.5 791.5 c 128,-1,1
EndSplineSet
Substitution2: "<3,3> Small Caps in Latin lookup 11 subtable" uni0307.sc
EndChar

StartChar: uni0308
Encoding: 776 776 409
Width: 0
Flags: W
LayerCount: 2
Fore
SplineSet
-196 762 m 128,-1,1
 -176 742 -176 742 -176 709 c 0,2,3
 -176 666 -176 666 -207.5 635.5 c 128,-1,4
 -239 605 -239 605 -283 605 c 0,5,6
 -316 605 -316 605 -336 625 c 128,-1,7
 -356 645 -356 645 -356 677 c 0,8,9
 -356 721 -356 721 -324.5 751.5 c 128,-1,10
 -293 782 -293 782 -249 782 c 0,11,0
 -216 782 -216 782 -196 762 c 128,-1,1
6 762 m 128,-1,13
 26 742 26 742 26 709 c 0,14,15
 26 666 26 666 -5.5 635.5 c 128,-1,16
 -37 605 -37 605 -81 605 c 0,17,18
 -114 605 -114 605 -134 625 c 128,-1,19
 -154 645 -154 645 -154 677 c 0,20,21
 -154 721 -154 721 -122.5 751.5 c 128,-1,22
 -91 782 -91 782 -47 782 c 0,23,12
 -14 782 -14 782 6 762 c 128,-1,13
EndSplineSet
Substitution2: "<3,3> Small Caps in Latin lookup 11 subtable" uni0308.sc
EndChar

StartChar: hookabovecomb
Encoding: 777 777 410
Width: 0
Flags: W
LayerCount: 2
Fore
SplineSet
14 814 m 128,-1,1
 40 791 40 791 40 753 c 0,2,3
 40 669 40 669 -85 587 c 1,4,-1
 -170 624 l 1,5,6
 -141 645 -141 645 -124.5 666 c 128,-1,7
 -108 687 -108 687 -108 703 c 0,8,9
 -108 713 -108 713 -114 719 c 128,-1,10
 -120 725 -120 725 -131 725 c 0,11,12
 -152 725 -152 725 -173 710 c 1,13,-1
 -211 793 l 1,14,15
 -132 837 -132 837 -63 837 c 0,16,0
 -12 837 -12 837 14 814 c 128,-1,1
EndSplineSet
Substitution2: "<3,3> Small Caps in Latin lookup 11 subtable" hookabovecomb.sc
EndChar

StartChar: uni030A
Encoding: 778 778 411
Width: 0
Flags: W
LayerCount: 2
Fore
SplineSet
5 796 m 128,-1,1
 36 765 36 765 36 718 c 0,2,3
 36 681 36 681 16.5 649 c 128,-1,4
 -3 617 -3 617 -35.5 598 c 128,-1,5
 -68 579 -68 579 -104 579 c 0,6,7
 -152 579 -152 579 -183 610 c 128,-1,8
 -214 641 -214 641 -214 688 c 0,9,10
 -214 725 -214 725 -194.5 757 c 128,-1,11
 -175 789 -175 789 -142.5 808 c 128,-1,12
 -110 827 -110 827 -74 827 c 0,13,0
 -26 827 -26 827 5 796 c 128,-1,1
-115 729 m 128,-1,15
 -128 716 -128 716 -128 697 c 0,16,17
 -128 683 -128 683 -118.5 673.5 c 128,-1,18
 -109 664 -109 664 -94 664 c 0,19,20
 -76 664 -76 664 -63 677 c 128,-1,21
 -50 690 -50 690 -50 709 c 0,22,23
 -50 723 -50 723 -59.5 732.5 c 128,-1,24
 -69 742 -69 742 -84 742 c 0,25,14
 -102 742 -102 742 -115 729 c 128,-1,15
EndSplineSet
EndChar

StartChar: uni030B
Encoding: 779 779 412
Width: 0
Flags: W
LayerCount: 2
Fore
SplineSet
-350 780 m 1,0,-1
 -199 727 l 1,1,-1
 -290 591 l 1,2,-1
 -444 601 l 1,3,-1
 -350 780 l 1,0,-1
-129 780 m 1,4,-1
 22 727 l 1,5,-1
 -69 591 l 1,6,-1
 -223 601 l 1,7,-1
 -129 780 l 1,4,-1
EndSplineSet
Substitution2: "<3,3> Small Caps in Latin lookup 11 subtable" uni030B.sc
EndChar

StartChar: uni030C
Encoding: 780 780 413
Width: 0
Flags: W
LayerCount: 2
Fore
SplineSet
-76 769 m 1,0,-1
 64 769 l 1,1,-1
 -78 607 l 1,2,-1
 -266 607 l 1,3,-1
 -346 769 l 1,4,-1
 -206 769 l 1,5,-1
 -155 698 l 1,6,-1
 -76 769 l 1,0,-1
EndSplineSet
Substitution2: "<3,3> Small Caps in Latin lookup 11 subtable" uni030C.sc
EndChar

StartChar: uni030F
Encoding: 783 783 414
Width: 0
Flags: W
LayerCount: 2
Fore
SplineSet
-228 780 m 1,0,-1
 -180 601 l 1,1,-1
 -337 591 l 1,2,-1
 -400 727 l 1,3,-1
 -228 780 l 1,0,-1
-7 780 m 1,4,-1
 41 601 l 1,5,-1
 -116 591 l 1,6,-1
 -179 727 l 1,7,-1
 -7 780 l 1,4,-1
EndSplineSet
Substitution2: "<3,3> Small Caps in Latin lookup 11 subtable" uni030F.sc
EndChar

StartChar: uni0311
Encoding: 785 785 415
Width: 0
Flags: W
LayerCount: 2
Fore
SplineSet
-111.5 631.5 m 128,-1,1
 -122 645 -122 645 -142 645 c 256,2,3
 -162 645 -162 645 -178 631.5 c 128,-1,4
 -194 618 -194 618 -201 595 c 1,5,-1
 -336 595 l 1,6,7
 -316 675 -316 675 -257 722 c 128,-1,8
 -198 769 -198 769 -118 769 c 0,9,10
 -47 769 -47 769 -6 731 c 128,-1,11
 35 693 35 693 35 628 c 0,12,13
 35 613 35 613 32 595 c 1,14,-1
 -103 595 l 1,15,0
 -101 618 -101 618 -111.5 631.5 c 128,-1,1
EndSplineSet
Substitution2: "<3,3> Small Caps in Latin lookup 11 subtable" uni0311.sc
EndChar

StartChar: uni0312
Encoding: 786 786 416
Width: 0
Flags: W
LayerCount: 2
Fore
SplineSet
-37 608 m 1,0,-1
 -212 608 l 1,1,-1
 -94 791 l 1,2,-1
 26 791 l 1,3,-1
 -37 608 l 1,0,-1
EndSplineSet
EndChar

StartChar: uni031B
Encoding: 795 795 417
Width: 0
Flags: W
LayerCount: 2
Fore
SplineSet
-22 639 m 0,1,2
 -22 543 -22 543 -91.5 490.5 c 128,-1,3
 -161 438 -161 438 -287 438 c 1,4,-1
 -246 547 l 1,5,6
 -216 547 -216 547 -200.5 567 c 128,-1,7
 -185 587 -185 587 -185 614 c 0,8,9
 -185 635 -185 635 -193 648 c 1,10,-1
 -29 705 l 1,11,0
 -22 673 -22 673 -22 639 c 0,1,2
EndSplineSet
EndChar

StartChar: dotbelowcomb
Encoding: 803 803 418
Width: 0
Flags: W
LayerCount: 2
Fore
SplineSet
-169.5 -90.5 m 128,-1,1
 -144 -116 -144 -116 -144 -158 c 0,2,3
 -144 -196 -144 -196 -162.5 -227 c 128,-1,4
 -181 -258 -181 -258 -213 -275.5 c 128,-1,5
 -245 -293 -245 -293 -283 -293 c 0,6,7
 -326 -293 -326 -293 -351.5 -267.5 c 128,-1,8
 -377 -242 -377 -242 -377 -200 c 0,9,10
 -377 -162 -377 -162 -358.5 -131 c 128,-1,11
 -340 -100 -340 -100 -308 -82.5 c 128,-1,12
 -276 -65 -276 -65 -238 -65 c 0,13,0
 -195 -65 -195 -65 -169.5 -90.5 c 128,-1,1
EndSplineSet
Substitution2: "<3,3> Small Caps in Latin lookup 11 subtable" dotbelowcomb.sc
EndChar

StartChar: uni0324
Encoding: 804 804 419
Width: 0
Flags: W
LayerCount: 2
Fore
SplineSet
-365 -84 m 128,-1,1
 -345 -104 -345 -104 -345 -137 c 0,2,3
 -345 -180 -345 -180 -376.5 -210.5 c 128,-1,4
 -408 -241 -408 -241 -452 -241 c 0,5,6
 -485 -241 -485 -241 -505 -221 c 128,-1,7
 -525 -201 -525 -201 -525 -169 c 0,8,9
 -525 -125 -525 -125 -493.5 -94.5 c 128,-1,10
 -462 -64 -462 -64 -418 -64 c 0,11,0
 -385 -64 -385 -64 -365 -84 c 128,-1,1
-163 -84 m 128,-1,13
 -143 -104 -143 -104 -143 -137 c 0,14,15
 -143 -180 -143 -180 -174.5 -210.5 c 128,-1,16
 -206 -241 -206 -241 -250 -241 c 0,17,18
 -283 -241 -283 -241 -303 -221 c 128,-1,19
 -323 -201 -323 -201 -323 -169 c 0,20,21
 -323 -125 -323 -125 -291.5 -94.5 c 128,-1,22
 -260 -64 -260 -64 -216 -64 c 0,23,12
 -183 -64 -183 -64 -163 -84 c 128,-1,13
EndSplineSet
Substitution2: "<3,3> Small Caps in Latin lookup 11 subtable" uni0324.sc
EndChar

StartChar: uni0326
Encoding: 806 806 420
Width: 0
Flags: W
LayerCount: 2
Fore
SplineSet
-290 -61 m 1,0,-1
 -115 -61 l 1,1,-1
 -233 -244 l 1,2,-1
 -353 -244 l 1,3,-1
 -290 -61 l 1,0,-1
EndSplineSet
EndChar

StartChar: uni0327
Encoding: 807 807 421
Width: 0
Flags: W
LayerCount: 2
Fore
SplineSet
-179 0 m 1,0,-1
 -210 -54 l 1,1,2
 -174 -64 -174 -64 -156.5 -83.5 c 128,-1,3
 -139 -103 -139 -103 -139 -129 c 0,4,5
 -139 -186 -139 -186 -185.5 -215 c 128,-1,6
 -232 -244 -232 -244 -299 -244 c 0,7,8
 -359 -244 -359 -244 -416 -223 c 1,9,-1
 -367 -130 l 1,10,11
 -345 -139 -345 -139 -320 -139 c 0,12,13
 -300 -139 -300 -139 -286.5 -132 c 128,-1,14
 -273 -125 -273 -125 -273 -114 c 256,15,16
 -273 -103 -273 -103 -289 -97 c 128,-1,17
 -305 -91 -305 -91 -327 -91 c 2,18,-1
 -347 -91 l 1,19,-1
 -295 10 l 1,20,-1
 -179 0 l 1,0,-1
EndSplineSet
Substitution2: "<3,3> Small Caps in Latin lookup 11 subtable" uni0327.sc
EndChar

StartChar: uni0328
Encoding: 808 808 422
Width: 0
Flags: W
LayerCount: 2
Fore
SplineSet
-122 0 m 1,0,1
 -162 -25 -162 -25 -185.5 -49 c 128,-1,2
 -209 -73 -209 -73 -209 -98 c 0,3,4
 -209 -116 -209 -116 -193 -116 c 0,5,6
 -182 -116 -182 -116 -166 -108 c 1,7,-1
 -158 -219 l 1,8,9
 -221 -244 -221 -244 -271 -244 c 0,10,11
 -319 -244 -319 -244 -342.5 -218.5 c 128,-1,12
 -366 -193 -366 -193 -366 -151 c 0,13,14
 -366 -53 -366 -53 -237 43 c 1,15,-1
 -122 0 l 1,0,1
EndSplineSet
EndChar

StartChar: uni032E
Encoding: 814 814 423
Width: 0
Flags: W
LayerCount: 2
Fore
SplineSet
-348.5 -101.5 m 128,-1,1
 -338 -115 -338 -115 -318 -115 c 256,2,3
 -298 -115 -298 -115 -282 -101.5 c 128,-1,4
 -266 -88 -266 -88 -259 -65 c 1,5,-1
 -124 -65 l 1,6,7
 -144 -145 -144 -145 -203 -192 c 128,-1,8
 -262 -239 -262 -239 -342 -239 c 0,9,10
 -413 -239 -413 -239 -454 -201 c 128,-1,11
 -495 -163 -495 -163 -495 -98 c 0,12,13
 -495 -83 -495 -83 -492 -65 c 1,14,-1
 -357 -65 l 1,15,0
 -359 -88 -359 -88 -348.5 -101.5 c 128,-1,1
EndSplineSet
EndChar

StartChar: uni0331
Encoding: 817 817 424
Width: 0
Flags: W
LayerCount: 2
Fore
SplineSet
-456 -75 m 1,0,-1
 -156 -75 l 1,1,-1
 -181 -203 l 1,2,-1
 -481 -203 l 1,3,-1
 -456 -75 l 1,0,-1
EndSplineSet
EndChar

StartChar: uni0335
Encoding: 821 821 425
Width: 0
Flags: W
LayerCount: 2
Fore
SplineSet
-469 492 m 1,0,-1
 -42 492 l 1,1,-1
 -65 373 l 1,2,-1
 -492 373 l 1,3,-1
 -469 492 l 1,0,-1
EndSplineSet
EndChar

StartChar: uni0336
Encoding: 822 822 426
Width: 0
Flags: W
LayerCount: 2
Fore
SplineSet
-497 492 m 1,0,-1
 -42 492 l 1,1,-1
 -65 373 l 1,2,-1
 -520 373 l 1,3,-1
 -497 492 l 1,0,-1
EndSplineSet
EndChar

StartChar: uni0337
Encoding: 823 823 427
Width: 0
Flags: W
LayerCount: 2
Fore
SplineSet
24 570 m 1,0,-1
 -243 89 l 1,1,-1
 -431 89 l 1,2,-1
 -164 570 l 1,3,-1
 24 570 l 1,0,-1
EndSplineSet
EndChar

StartChar: uni0338
Encoding: 824 824 428
Width: 0
Flags: W
LayerCount: 2
Fore
SplineSet
-526 0 m 1,0,-1
 -114 742 l 1,1,-1
 74 742 l 1,2,-1
 -338 0 l 1,3,-1
 -526 0 l 1,0,-1
EndSplineSet
EndChar

StartChar: uni0394
Encoding: 916 916 429
Width: 799
Flags: W
LayerCount: 2
Fore
SplineSet
585 701 m 1,0,-1
 754 0 l 1,1,-1
 -65 0 l 1,2,-1
 347 701 l 1,3,-1
 585 701 l 1,0,-1
259 166 m 1,4,-1
 475 166 l 1,5,-1
 421 470 l 1,6,-1
 259 166 l 1,4,-1
EndSplineSet
EndChar

StartChar: uni03A9
Encoding: 937 937 430
Width: 833
Flags: W
LayerCount: 2
Fore
SplineSet
603.5 673.5 m 128,-1,1
 682 636 682 636 727.5 570.5 c 128,-1,2
 773 505 773 505 773 425 c 0,3,4
 773 356 773 356 737.5 293.5 c 128,-1,5
 702 231 702 231 636 180 c 1,6,-1
 809 180 l 1,7,-1
 773 0 l 1,8,-1
 412 0 l 1,9,-1
 432 206 l 1,10,11
 494 235 494 235 529.5 284.5 c 128,-1,12
 565 334 565 334 565 390 c 0,13,14
 565 450 565 450 525.5 487 c 128,-1,15
 486 524 486 524 422 524 c 0,16,17
 374 524 374 524 334.5 503 c 128,-1,18
 295 482 295 482 272.5 445 c 128,-1,19
 250 408 250 408 250 362 c 0,20,21
 250 314 250 314 276.5 271.5 c 128,-1,22
 303 229 303 229 349 206 c 1,23,-1
 329 0 l 1,24,-1
 -50 0 l 1,25,-1
 -14 180 l 1,26,-1
 142 180 l 1,27,28
 96 221 96 221 72 273 c 128,-1,29
 48 325 48 325 48 382 c 0,30,31
 48 472 48 472 99 547.5 c 128,-1,32
 150 623 150 623 238 667 c 128,-1,33
 326 711 326 711 430 711 c 0,34,0
 525 711 525 711 603.5 673.5 c 128,-1,1
EndSplineSet
EndChar

StartChar: uni03BC
Encoding: 956 956 431
Width: 686
Flags: W
LayerCount: 2
Fore
SplineSet
684 547 m 1,0,-1
 576 0 l 1,1,-1
 351 0 l 1,2,-1
 364 68 l 1,3,4
 300 -5 300 -5 210 -8 c 1,5,-1
 173 -194 l 1,6,-1
 -52 -194 l 1,7,-1
 94 547 l 1,8,-1
 320 547 l 1,9,-1
 262 256 l 2,10,11
 260 242 260 242 260 235 c 0,12,13
 260 209 260 209 273.5 194.5 c 128,-1,14
 287 180 287 180 311 180 c 0,15,16
 343 180 343 180 370.5 208.5 c 128,-1,17
 398 237 398 237 406 280 c 2,18,-1
 459 547 l 1,19,-1
 684 547 l 1,0,-1
EndSplineSet
EndChar

StartChar: pi
Encoding: 960 960 432
Width: 733
Flags: W
LayerCount: 2
Fore
SplineSet
743 391 m 1,0,-1
 637 391 l 1,1,-1
 559 0 l 1,2,-1
 374 0 l 1,3,-1
 452 391 l 1,4,-1
 416 391 l 1,5,-1
 298 0 l 1,6,-1
 111 0 l 1,7,-1
 229 391 l 1,8,9
 198 389 198 389 180.5 367.5 c 128,-1,10
 163 346 163 346 163 315 c 0,11,12
 163 298 163 298 169 280 c 1,13,-1
 13 244 l 1,14,15
 -2 300 -2 300 -2 346 c 0,16,17
 -2 440 -2 440 54 493.5 c 128,-1,18
 110 547 110 547 211 547 c 2,19,-1
 773 547 l 1,20,-1
 743 391 l 1,0,-1
EndSplineSet
EndChar

StartChar: uni1E08
Encoding: 7688 7688 433
Width: 714
Flags: W
LayerCount: 2
Fore
SplineSet
667 874 m 1,0,-1
 505 745 l 1,1,-1
 363 755 l 1,2,-1
 498 934 l 1,3,-1
 667 874 l 1,0,-1
556 31.5 m 128,-1,5
 481 -6 481 -6 407 -14 c 1,6,-1
 384 -54 l 1,7,8
 420 -64 420 -64 437.5 -83.5 c 128,-1,9
 455 -103 455 -103 455 -129 c 0,10,11
 455 -186 455 -186 408.5 -215 c 128,-1,12
 362 -244 362 -244 295 -244 c 0,13,14
 235 -244 235 -244 178 -223 c 1,15,-1
 227 -130 l 1,16,17
 250 -139 250 -139 274 -139 c 0,18,19
 294 -139 294 -139 307.5 -132 c 128,-1,20
 321 -125 321 -125 321 -114 c 256,21,22
 321 -103 321 -103 305 -97 c 128,-1,23
 289 -91 289 -91 267 -91 c 2,24,-1
 247 -91 l 1,25,-1
 290 -8 l 1,26,27
 212 8 212 8 154 53.5 c 128,-1,28
 96 99 96 99 64.5 167 c 128,-1,29
 33 235 33 235 33 318 c 0,30,31
 33 430 33 430 88.5 521 c 128,-1,32
 144 612 144 612 240 664 c 128,-1,33
 336 716 336 716 452 716 c 0,34,35
 532 716 532 716 609 680.5 c 128,-1,36
 686 645 686 645 735 586 c 1,37,-1
 584 427 l 1,38,39
 557 470 557 470 516.5 496.5 c 128,-1,40
 476 523 476 523 435 523 c 0,41,42
 390 523 390 523 353 499 c 128,-1,43
 316 475 316 475 294 432.5 c 128,-1,44
 272 390 272 390 272 338 c 0,45,46
 272 272 272 272 308 229.5 c 128,-1,47
 344 187 344 187 401 187 c 0,48,49
 439 187 439 187 485 209.5 c 128,-1,50
 531 232 531 232 569 269 c 1,51,-1
 688 126 l 1,52,4
 631 69 631 69 556 31.5 c 128,-1,5
EndSplineSet
EndChar

StartChar: uni1E09
Encoding: 7689 7689 434
Width: 577
Flags: W
LayerCount: 2
Fore
SplineSet
556 720 m 1,0,-1
 394 591 l 1,1,-1
 252 601 l 1,2,-1
 387 780 l 1,3,-1
 556 720 l 1,0,-1
380 229 m 1,5,-1
 553 145 l 1,6,7
 520 80 520 80 457.5 40.5 c 128,-1,8
 395 1 395 1 313 -6 c 1,9,-1
 286 -54 l 1,10,11
 322 -64 322 -64 339.5 -83.5 c 128,-1,12
 357 -103 357 -103 357 -129 c 0,13,14
 357 -186 357 -186 310.5 -215 c 128,-1,15
 264 -244 264 -244 197 -244 c 0,16,17
 137 -244 137 -244 80 -223 c 1,18,-1
 129 -130 l 1,19,20
 151 -139 151 -139 176 -139 c 0,21,22
 196 -139 196 -139 209.5 -132 c 128,-1,23
 223 -125 223 -125 223 -114 c 256,24,25
 223 -103 223 -103 207 -97 c 128,-1,26
 191 -91 191 -91 169 -91 c 2,27,-1
 149 -91 l 1,28,-1
 196 1 l 1,29,30
 111 22 111 22 63.5 85.5 c 128,-1,31
 16 149 16 149 16 242 c 0,32,33
 16 334 16 334 56 405.5 c 128,-1,34
 96 477 96 477 168.5 516 c 128,-1,35
 241 555 241 555 335 555 c 0,36,37
 424 555 424 555 488 513.5 c 128,-1,38
 552 472 552 472 578 397 c 1,39,-1
 392 321 l 1,40,41
 375 373 375 373 327 373 c 0,42,43
 290 373 290 373 267 341 c 128,-1,44
 244 309 244 309 244 257 c 0,45,46
 244 217 244 217 260.5 193.5 c 128,-1,47
 277 170 277 170 307 170 c 0,48,4
 357 170 357 170 380 229 c 1,5,-1
EndSplineSet
Substitution2: "<3,3> Small Caps in Latin lookup 11 subtable" uni1E09.sc
EndChar

StartChar: uni1E1C
Encoding: 7708 7708 443
Width: 690
Flags: W
LayerCount: 2
Fore
SplineSet
320 785 m 128,-1,1
 279 823 279 823 279 888 c 0,2,3
 279 903 279 903 282 921 c 1,4,-1
 417 921 l 1,5,6
 415 898 415 898 425.5 884.5 c 128,-1,7
 436 871 436 871 456 871 c 256,8,9
 476 871 476 871 492 884.5 c 128,-1,10
 508 898 508 898 515 921 c 1,11,-1
 650 921 l 1,12,13
 630 841 630 841 571 794 c 128,-1,14
 512 747 512 747 432 747 c 0,15,0
 361 747 361 747 320 785 c 128,-1,1
332 525 m 1,16,-1
 314 439 l 1,17,-1
 643 439 l 1,18,-1
 608 263 l 1,19,-1
 279 263 l 1,20,-1
 261 176 l 1,21,-1
 632 176 l 1,22,-1
 597 0 l 1,23,-1
 373 0 l 1,24,-1
 342 -54 l 1,25,26
 378 -64 378 -64 395.5 -83.5 c 128,-1,27
 413 -103 413 -103 413 -129 c 0,28,29
 413 -186 413 -186 366.5 -215 c 128,-1,30
 320 -244 320 -244 253 -244 c 0,31,32
 193 -244 193 -244 136 -223 c 1,33,-1
 185 -130 l 1,34,35
 208 -139 208 -139 232 -139 c 0,36,37
 252 -139 252 -139 265.5 -132 c 128,-1,38
 279 -125 279 -125 279 -114 c 256,39,40
 279 -103 279 -103 263 -97 c 128,-1,41
 247 -91 247 -91 225 -91 c 2,42,-1
 205 -91 l 1,43,-1
 252 0 l 1,44,-1
 -5 0 l 1,45,-1
 135 701 l 1,46,-1
 728 701 l 1,47,-1
 693 525 l 1,48,-1
 332 525 l 1,16,-1
EndSplineSet
EndChar

StartChar: uni1E1D
Encoding: 7709 7709 444
Width: 623
Flags: W
LayerCount: 2
Fore
SplineSet
276 633 m 128,-1,1
 235 671 235 671 235 736 c 0,2,3
 235 751 235 751 238 769 c 1,4,-1
 373 769 l 1,5,6
 371 746 371 746 381.5 732.5 c 128,-1,7
 392 719 392 719 412 719 c 256,8,9
 432 719 432 719 448 732.5 c 128,-1,10
 464 746 464 746 471 769 c 1,11,-1
 606 769 l 1,12,13
 586 689 586 689 527 642 c 128,-1,14
 468 595 468 595 388 595 c 0,15,0
 317 595 317 595 276 633 c 128,-1,1
474 522.5 m 128,-1,17
 538 491 538 491 572.5 433.5 c 128,-1,18
 607 376 607 376 607 301 c 0,19,20
 607 264 607 264 598 223 c 1,21,-1
 236 223 l 1,22,23
 247 157 247 157 322 157 c 0,24,25
 379 157 379 157 432 198 c 1,26,-1
 548 84 l 1,27,28
 461 2 461 2 338 -6 c 1,29,-1
 311 -54 l 1,30,31
 347 -64 347 -64 364.5 -83.5 c 128,-1,32
 382 -103 382 -103 382 -129 c 0,33,34
 382 -186 382 -186 335.5 -215 c 128,-1,35
 289 -244 289 -244 222 -244 c 0,36,37
 162 -244 162 -244 105 -223 c 1,38,-1
 154 -130 l 1,39,40
 177 -139 177 -139 201 -139 c 0,41,42
 221 -139 221 -139 234.5 -132 c 128,-1,43
 248 -125 248 -125 248 -114 c 256,44,45
 248 -103 248 -103 232 -97 c 128,-1,46
 216 -91 216 -91 194 -91 c 2,47,-1
 174 -91 l 1,48,-1
 222 2 l 1,49,50
 125 22 125 22 70 84.5 c 128,-1,51
 15 147 15 147 15 239 c 0,52,53
 15 329 15 329 54.5 401 c 128,-1,54
 94 473 94 473 164.5 513.5 c 128,-1,55
 235 554 235 554 324 554 c 0,56,16
 410 554 410 554 474 522.5 c 128,-1,17
394 350 m 0,58,59
 394 372 394 372 379 387 c 128,-1,60
 364 402 364 402 340 402 c 0,61,62
 314 402 314 402 290.5 381.5 c 128,-1,63
 267 361 267 361 252 327 c 1,64,-1
 389 327 l 1,65,57
 394 340 394 340 394 350 c 0,58,59
EndSplineSet
Substitution2: "<3,3> Small Caps in Latin lookup 11 subtable" uni1E1D.sc
EndChar

StartChar: uni1E9E
Encoding: 7838 7838 506
Width: 747
Flags: W
LayerCount: 2
Fore
SplineSet
692 337.5 m 128,-1,1
 718 301 718 301 718 250 c 0,2,3
 718 227 718 227 714 208 c 0,4,5
 695 112 695 112 611 56 c 128,-1,6
 527 0 527 0 387 0 c 2,7,-1
 305 0 l 1,8,-1
 338 170 l 1,9,-1
 379 170 l 2,10,11
 424 170 424 170 451.5 189.5 c 128,-1,12
 479 209 479 209 479 242 c 0,13,14
 479 265 479 265 459 277.5 c 128,-1,15
 439 290 439 290 403 290 c 2,16,-1
 387 290 l 1,17,-1
 410 410 l 1,18,-1
 524 522 l 1,19,20
 499 527 499 527 473 527 c 0,21,22
 401 527 401 527 352.5 485 c 128,-1,23
 304 443 304 443 290 369 c 2,24,-1
 218 0 l 1,25,-1
 -13 0 l 1,26,-1
 55 349 l 2,27,28
 77 462 77 462 136 543.5 c 128,-1,29
 195 625 195 625 285 668 c 128,-1,30
 375 711 375 711 488 711 c 0,31,32
 562 711 562 711 624.5 692.5 c 128,-1,33
 687 674 687 674 734 641 c 1,34,-1
 703 482 l 1,35,-1
 616 393 l 1,36,0
 666 374 666 374 692 337.5 c 128,-1,1
EndSplineSet
EndChar

StartChar: figuredash
Encoding: 8210 8210 603
Width: 618
Flags: W
LayerCount: 2
Fore
SplineSet
21 378 m 1,0,-1
 638 378 l 1,1,-1
 611 239 l 1,2,-1
 -6 239 l 1,3,-1
 21 378 l 1,0,-1
EndSplineSet
EndChar

StartChar: endash
Encoding: 8211 8211 604
Width: 410
Flags: W
LayerCount: 2
Fore
SplineSet
431 379 m 1,0,-1
 403 239 l 1,1,-1
 -7 239 l 1,2,-1
 21 379 l 1,3,-1
 431 379 l 1,0,-1
EndSplineSet
EndChar

StartChar: emdash
Encoding: 8212 8212 605
Width: 610
Flags: W
LayerCount: 2
Fore
SplineSet
631 379 m 1,0,-1
 603 239 l 1,1,-1
 -7 239 l 1,2,-1
 21 379 l 1,3,-1
 631 379 l 1,0,-1
EndSplineSet
EndChar

StartChar: quoteleft
Encoding: 8216 8216 607
Width: 257
Flags: W
LayerCount: 2
Fore
SplineSet
276 528 m 0,1,2
 276 479 276 479 243.5 447 c 128,-1,3
 211 415 211 415 163 415 c 0,4,5
 122 415 122 415 96 439.5 c 128,-1,6
 70 464 70 464 70 508 c 0,7,8
 70 549 70 549 104 596 c 2,9,-1
 213 742 l 1,10,-1
 317 742 l 1,11,-1
 244 595 l 1,12,0
 276 569 276 569 276 528 c 0,1,2
EndSplineSet
Substitution2: "<3,3> Small Caps in Latin lookup 11 subtable" quoteleft.sc
EndChar

StartChar: quoteright
Encoding: 8217 8217 608
Width: 258
Flags: W
LayerCount: 2
Fore
SplineSet
274 717.5 m 128,-1,1
 300 693 300 693 300 649 c 0,2,3
 300 608 300 608 266 561 c 2,4,-1
 157 415 l 1,5,-1
 53 415 l 1,6,-1
 126 562 l 1,7,8
 94 588 94 588 94 629 c 0,9,10
 94 678 94 678 126.5 710 c 128,-1,11
 159 742 159 742 207 742 c 0,12,0
 248 742 248 742 274 717.5 c 128,-1,1
EndSplineSet
Substitution2: "<3,3> Small Caps in Latin lookup 11 subtable" quoteright.sc
EndChar

StartChar: quotesinglbase
Encoding: 8218 8218 609
Width: 257
Flags: W
LayerCount: 2
Fore
SplineSet
165 172.5 m 128,-1,1
 191 148 191 148 191 104 c 0,2,3
 191 63 191 63 157 16 c 2,4,-1
 48 -130 l 1,5,-1
 -56 -130 l 1,6,-1
 17 17 l 1,7,8
 -15 43 -15 43 -15 84 c 0,9,10
 -15 133 -15 133 17.5 165 c 128,-1,11
 50 197 50 197 98 197 c 0,12,0
 139 197 139 197 165 172.5 c 128,-1,1
EndSplineSet
EndChar

StartChar: dagger
Encoding: 8224 8224 613
Width: 609
Flags: W
LayerCount: 2
Fore
SplineSet
499 699 m 1,0,-1
 460 503 l 1,1,-1
 635 503 l 1,2,-1
 599 327 l 1,3,-1
 424 327 l 1,4,-1
 322 -185 l 1,5,-1
 97 -185 l 1,6,-1
 199 327 l 1,7,-1
 31 327 l 1,8,-1
 67 503 l 1,9,-1
 235 503 l 1,10,-1
 274 699 l 1,11,-1
 499 699 l 1,0,-1
EndSplineSet
EndChar

StartChar: daggerdbl
Encoding: 8225 8225 614
Width: 609
Flags: W
LayerCount: 2
Fore
SplineSet
599 327 m 1,0,-1
 424 327 l 1,1,-1
 397 193 l 1,2,-1
 573 193 l 1,3,-1
 537 17 l 1,4,-1
 362 17 l 1,5,-1
 322 -185 l 1,6,-1
 97 -185 l 1,7,-1
 137 17 l 1,8,-1
 -31 17 l 1,9,-1
 5 193 l 1,10,-1
 172 193 l 1,11,-1
 199 327 l 1,12,-1
 31 327 l 1,13,-1
 67 503 l 1,14,-1
 235 503 l 1,15,-1
 274 699 l 1,16,-1
 499 699 l 1,17,-1
 460 503 l 1,18,-1
 635 503 l 1,19,-1
 599 327 l 1,0,-1
EndSplineSet
EndChar

StartChar: bullet
Encoding: 8226 8226 615
Width: 380
Flags: W
LayerCount: 2
Fore
SplineSet
303 394.5 m 128,-1,1
 346 352 346 352 346 284 c 0,2,3
 346 215 346 215 303 172 c 128,-1,4
 260 129 260 129 191 129 c 0,5,6
 123 129 123 129 80.5 172 c 128,-1,7
 38 215 38 215 38 284 c 0,8,9
 38 352 38 352 81 394.5 c 128,-1,10
 124 437 124 437 191 437 c 0,11,0
 260 437 260 437 303 394.5 c 128,-1,1
EndSplineSet
EndChar

StartChar: minute
Encoding: 8242 8242 618
Width: 230
Flags: W
LayerCount: 2
Fore
SplineSet
131 701 m 1,0,-1
 285 701 l 1,1,-1
 190 455 l 1,2,-1
 66 455 l 1,3,-1
 131 701 l 1,0,-1
EndSplineSet
EndChar

StartChar: guilsinglleft
Encoding: 8249 8249 620
Width: 286
Flags: W
LayerCount: 2
Fore
SplineSet
326 466 m 1,0,-1
 168 265 l 1,1,-1
 248 78 l 1,2,-1
 68 78 l 1,3,-1
 -17 273 l 1,4,-1
 146 466 l 1,5,-1
 326 466 l 1,0,-1
EndSplineSet
Substitution2: "<3,3> Small Caps in Latin lookup 11 subtable" guilsinglleft.sc
Substitution2: "'rtla' Right to Left Alternates lookup 0 subtable" guilsinglright
EndChar

StartChar: guilsinglright
Encoding: 8250 8250 621
Width: 285
Flags: W
LayerCount: 2
Fore
SplineSet
-41 78 m 1,0,-1
 117 279 l 1,1,-1
 37 466 l 1,2,-1
 217 466 l 1,3,-1
 302 271 l 1,4,-1
 139 78 l 1,5,-1
 -41 78 l 1,0,-1
EndSplineSet
Substitution2: "<3,3> Small Caps in Latin lookup 11 subtable" guilsinglright.sc
Substitution2: "'rtla' Right to Left Alternates lookup 0 subtable" guilsinglleft
EndChar

StartChar: fraction
Encoding: 8260 8260 622
Width: 272
Flags: W
LayerCount: 2
Fore
SplineSet
-13 0 m 1,0,-1
 -171 0 l 1,1,-1
 316 701 l 1,2,-1
 474 701 l 1,3,-1
 -13 0 l 1,0,-1
EndSplineSet
EndChar

StartChar: colonmonetary
Encoding: 8353 8353 640
Width: 714
Flags: W
LayerCount: 2
Fore
SplineSet
688 130 m 1,0,1
 639 82 639 82 577.5 48 c 128,-1,2
 516 14 516 14 452 0 c 1,3,-1
 384 -165 l 1,4,-1
 258 -165 l 1,5,-1
 323 -7 l 1,6,7
 293 -4 293 -4 264 4 c 1,8,-1
 194 -165 l 1,9,-1
 68 -165 l 1,10,-1
 158 55 l 1,11,12
 98 99 98 99 65 167.5 c 128,-1,13
 32 236 32 236 32 319 c 0,14,15
 32 403 32 403 65 476 c 128,-1,16
 98 549 98 549 157.5 602 c 128,-1,17
 217 655 217 655 295 682 c 1,18,-1
 370 864 l 1,19,-1
 496 864 l 1,20,-1
 432 708 l 1,21,-1
 449 708 l 2,22,23
 471 708 471 708 495 705 c 1,24,-1
 560 864 l 1,25,-1
 686 864 l 1,26,-1
 607 673 l 1,27,28
 685 639 685 639 733 580 c 1,29,-1
 583 421 l 1,30,31
 555 464 555 464 514 489.5 c 128,-1,32
 473 515 473 515 433 515 c 0,33,34
 388 515 388 515 351 492 c 128,-1,35
 314 469 314 469 292.5 428.5 c 128,-1,36
 271 388 271 388 271 338 c 0,37,38
 271 275 271 275 307.5 234 c 128,-1,39
 344 193 344 193 401 193 c 0,40,41
 439 193 439 193 484.5 214.5 c 128,-1,42
 530 236 530 236 568 273 c 1,43,-1
 688 130 l 1,0,1
EndSplineSet
EndChar

StartChar: franc
Encoding: 8355 8355 641
Width: 633
Flags: W
LayerCount: 2
Fore
SplineSet
666 525 m 1,0,-1
 334 525 l 1,1,-1
 310 404 l 1,2,-1
 621 404 l 1,3,-1
 587 238 l 1,4,-1
 277 238 l 1,5,-1
 260 155 l 1,6,-1
 465 155 l 1,7,-1
 451 85 l 1,8,-1
 246 85 l 1,9,-1
 229 0 l 1,10,-1
 -3 0 l 1,11,-1
 14 85 l 1,12,-1
 -56 85 l 1,13,-1
 -42 155 l 1,14,-1
 28 155 l 1,15,-1
 137 701 l 1,16,-1
 701 701 l 1,17,-1
 666 525 l 1,0,-1
EndSplineSet
EndChar

StartChar: lira
Encoding: 8356 8356 642
Width: 566
Flags: W
LayerCount: 2
Fore
SplineSet
303 173 m 1,0,-1
 541 173 l 1,1,-1
 506 0 l 1,2,-1
 -35 0 l 1,3,-1
 0 173 l 1,4,-1
 70 173 l 1,5,-1
 82 232 l 1,6,-1
 10 232 l 1,7,-1
 24 302 l 1,8,-1
 96 302 l 1,9,-1
 105 347 l 1,10,-1
 33 347 l 1,11,-1
 47 417 l 1,12,-1
 119 417 l 1,13,-1
 128 464 l 2,14,15
 151 582 151 582 232 646.5 c 128,-1,16
 313 711 313 711 438 711 c 0,17,18
 502 711 502 711 556.5 690 c 128,-1,19
 611 669 611 669 647 629 c 1,20,-1
 529 459 l 1,21,22
 476 518 476 518 425 518 c 0,23,24
 372 518 372 518 360 459 c 2,25,-1
 352 417 l 1,26,-1
 508 417 l 1,27,-1
 494 347 l 1,28,-1
 338 347 l 1,29,-1
 329 302 l 1,30,-1
 485 302 l 1,31,-1
 471 232 l 1,32,-1
 315 232 l 1,33,-1
 303 173 l 1,0,-1
EndSplineSet
EndChar

StartChar: uni20A6
Encoding: 8358 8358 643
Width: 861
Flags: W
LayerCount: 2
Fore
SplineSet
872 376 m 1,0,-1
 791 376 l 1,1,-1
 782 331 l 1,2,-1
 861 331 l 1,3,-1
 847 261 l 1,4,-1
 768 261 l 1,5,-1
 716 0 l 1,6,-1
 522 0 l 1,7,-1
 318 358 l 1,8,-1
 246 0 l 1,9,-1
 35 0 l 1,10,-1
 87 261 l 1,11,-1
 7 261 l 1,12,-1
 21 331 l 1,13,-1
 101 331 l 1,14,-1
 110 376 l 1,15,-1
 31 376 l 1,16,-1
 45 446 l 1,17,-1
 124 446 l 1,18,-1
 175 701 l 1,19,-1
 369 701 l 1,20,-1
 574 341 l 1,21,-1
 646 701 l 1,22,-1
 856 701 l 1,23,-1
 805 446 l 1,24,-1
 886 446 l 1,25,-1
 872 376 l 1,0,-1
EndSplineSet
EndChar

StartChar: uni20A9
Encoding: 8361 8361 645
Width: 1075
Flags: W
LayerCount: 2
Fore
SplineSet
1157 701 m 1,0,-1
 1038 446 l 1,1,-1
 1118 446 l 1,2,-1
 1104 376 l 1,3,-1
 1005 376 l 1,4,-1
 984 331 l 1,5,-1
 1065 331 l 1,6,-1
 1051 261 l 1,7,-1
 951 261 l 1,8,-1
 829 0 l 1,9,-1
 599 0 l 1,10,-1
 574 409 l 1,11,-1
 415 0 l 1,12,-1
 186 0 l 1,13,-1
 147 261 l 1,14,-1
 40 261 l 1,15,-1
 54 331 l 1,16,-1
 136 331 l 1,17,-1
 129 376 l 1,18,-1
 23 376 l 1,19,-1
 37 446 l 1,20,-1
 119 446 l 1,21,-1
 80 701 l 1,22,-1
 326 701 l 1,23,-1
 355 276 l 1,24,-1
 514 700 l 1,25,-1
 733 701 l 1,26,-1
 760 267 l 1,27,-1
 921 701 l 1,28,-1
 1157 701 l 1,0,-1
EndSplineSet
EndChar

StartChar: dong
Encoding: 8363 8363 646
Width: 702
Flags: W
LayerCount: 2
Fore
SplineSet
753 590 m 1,0,-1
 698 590 l 1,1,-1
 580 0 l 1,2,-1
 355 0 l 1,3,-1
 366 54 l 1,4,5
 298 -8 298 -8 216 -8 c 0,6,7
 157 -8 157 -8 111 22 c 128,-1,8
 65 52 65 52 39.5 106 c 128,-1,9
 14 160 14 160 14 229 c 0,10,11
 14 319 14 319 51.5 393.5 c 128,-1,12
 89 468 89 468 153.5 511.5 c 128,-1,13
 218 555 218 555 296 555 c 0,14,15
 348 555 348 555 387.5 534.5 c 128,-1,16
 427 514 427 514 450 475 c 1,17,-1
 473 590 l 1,18,-1
 346 590 l 1,19,-1
 362 670 l 1,20,-1
 489 670 l 1,21,-1
 503 742 l 1,22,-1
 728 742 l 1,23,-1
 714 670 l 1,24,-1
 769 670 l 1,25,-1
 753 590 l 1,0,-1
358.5 177.5 m 128,-1,27
 382 195 382 195 395.5 224.5 c 128,-1,28
 409 254 409 254 409 288 c 0,29,30
 409 326 409 326 390 348.5 c 128,-1,31
 371 371 371 371 339 371 c 0,32,33
 298 371 298 371 269.5 333.5 c 128,-1,34
 241 296 241 296 241 244 c 0,35,36
 241 204 241 204 258.5 182 c 128,-1,37
 276 160 276 160 308 160 c 0,38,26
 335 160 335 160 358.5 177.5 c 128,-1,27
21 -130 m 1,39,-1
 37 -50 l 1,40,-1
 544 -50 l 1,41,-1
 528 -130 l 1,42,-1
 21 -130 l 1,39,-1
EndSplineSet
EndChar

StartChar: Euro
Encoding: 8364 8364 647
Width: 788
Flags: W
LayerCount: 2
Fore
SplineSet
558.5 214.5 m 128,-1,1
 604 236 604 236 642 273 c 1,2,-1
 762 130 l 1,3,4
 697 66 697 66 610.5 28 c 128,-1,5
 524 -10 524 -10 443 -10 c 0,6,7
 354 -10 354 -10 283 24 c 128,-1,8
 212 58 212 58 167 119.5 c 128,-1,9
 122 181 122 181 110 261 c 1,10,-1
 17 261 l 1,11,-1
 31 331 l 1,12,-1
 106 331 l 1,13,14
 108 361 108 361 110 376 c 1,15,-1
 40 376 l 1,16,-1
 54 446 l 1,17,-1
 127 446 l 1,18,19
 154 524 154 524 212 583.5 c 128,-1,20
 270 643 270 643 350.5 675.5 c 128,-1,21
 431 708 431 708 523 708 c 0,22,23
 603 708 603 708 680.5 673 c 128,-1,24
 758 638 758 638 807 580 c 1,25,-1
 657 421 l 1,26,27
 629 464 629 464 588 489.5 c 128,-1,28
 547 515 547 515 507 515 c 0,29,30
 468 515 468 515 434 497 c 128,-1,31
 400 479 400 479 377 446 c 1,32,-1
 555 446 l 1,33,-1
 541 376 l 1,34,-1
 348 376 l 1,35,36
 345 358 345 358 345 338 c 2,37,-1
 345 331 l 1,38,-1
 532 331 l 1,39,-1
 518 261 l 1,40,-1
 363 261 l 1,41,42
 379 229 379 229 408 211 c 128,-1,43
 437 193 437 193 475 193 c 256,44,0
 513 193 513 193 558.5 214.5 c 128,-1,1
EndSplineSet
EndChar

StartChar: uni20AD
Encoding: 8365 8365 648
Width: 773
Flags: W
LayerCount: 2
Fore
SplineSet
697 332 m 1,0,-1
 540 332 l 1,1,-1
 718 0 l 1,2,-1
 446 0 l 1,3,-1
 291 304 l 1,4,-1
 232 0 l 1,5,-1
 0 0 l 1,6,-1
 64 332 l 1,7,-1
 -6 332 l 1,8,-1
 8 402 l 1,9,-1
 78 402 l 1,10,-1
 136 701 l 1,11,-1
 368 701 l 1,12,-1
 317 439 l 1,13,-1
 547 701 l 1,14,-1
 809 701 l 1,15,-1
 539 402 l 1,16,-1
 711 402 l 1,17,-1
 697 332 l 1,0,-1
EndSplineSet
EndChar

StartChar: uni20B1
Encoding: 8369 8369 649
Width: 773
Flags: W
LayerCount: 2
Fore
SplineSet
745 463 m 1,0,1
 744 446 744 446 738 418 c 1,2,-1
 808 418 l 1,3,-1
 795 348 l 1,4,-1
 713 348 l 1,5,6
 673 270 673 270 592.5 226 c 128,-1,7
 512 182 512 182 400 182 c 2,8,-1
 303 182 l 1,9,-1
 267 0 l 1,10,-1
 35 0 l 1,11,-1
 105 348 l 1,12,-1
 25 348 l 1,13,-1
 38 418 l 1,14,-1
 118 418 l 1,15,-1
 127 463 l 1,16,-1
 48 463 l 1,17,-1
 61 533 l 1,18,-1
 141 533 l 1,19,-1
 175 701 l 1,20,-1
 504 701 l 2,21,22
 611 701 611 701 672.5 657.5 c 128,-1,23
 734 614 734 614 745 533 c 1,24,-1
 830 533 l 1,25,-1
 817 463 l 1,26,-1
 745 463 l 1,0,1
495.5 386.5 m 128,-1,28
 522 415 522 415 522 462 c 0,29,30
 522 492 522 492 505 508.5 c 128,-1,31
 488 525 488 525 457 525 c 2,32,-1
 372 525 l 1,33,-1
 339 358 l 1,34,-1
 424 358 l 2,35,27
 469 358 469 358 495.5 386.5 c 128,-1,28
EndSplineSet
EndChar

StartChar: uni20B2
Encoding: 8370 8370 650
Width: 744
Flags: W
LayerCount: 2
Fore
SplineSet
538 369 m 1,0,-1
 737 369 l 1,1,-1
 680 80 l 1,2,3
 624 45 624 45 552 21 c 128,-1,4
 480 -3 480 -3 412 -9 c 1,5,-1
 384 -165 l 1,6,-1
 228 -165 l 1,7,-1
 258 7 l 1,8,9
 154 39 154 39 93 122.5 c 128,-1,10
 32 206 32 206 32 318 c 0,11,12
 32 415 32 415 77 496.5 c 128,-1,13
 122 578 122 578 201 631.5 c 128,-1,14
 280 685 280 685 381 701 c 1,15,-1
 410 864 l 1,16,-1
 566 864 l 1,17,-1
 537 702 l 1,18,19
 601 691 601 691 659 664.5 c 128,-1,20
 717 638 717 638 757 600 c 1,21,-1
 610 441 l 1,22,23
 578 475 578 475 532.5 495 c 128,-1,24
 487 515 487 515 444 515 c 0,25,26
 397 515 397 515 357 491 c 128,-1,27
 317 467 317 467 294 426 c 128,-1,28
 271 385 271 385 271 334 c 0,29,30
 271 268 271 268 310.5 225.5 c 128,-1,31
 350 183 350 183 413 183 c 0,32,33
 451 183 451 183 506 205 c 1,34,-1
 538 369 l 1,0,-1
EndSplineSet
EndChar

StartChar: uni20B5
Encoding: 8373 8373 651
Width: 714
Flags: W
LayerCount: 2
Fore
SplineSet
688 130 m 1,0,1
 632 75 632 75 558.5 38.5 c 128,-1,2
 485 2 485 2 412 -7 c 1,3,-1
 384 -165 l 1,4,-1
 228 -165 l 1,5,-1
 258 5 l 1,6,7
 154 37 154 37 93 121 c 128,-1,8
 32 205 32 205 32 319 c 0,9,10
 32 418 32 418 77.5 500.5 c 128,-1,11
 123 583 123 583 202.5 636 c 128,-1,12
 282 689 282 689 382 703 c 1,13,-1
 410 864 l 1,14,-1
 566 864 l 1,15,-1
 537 697 l 1,16,17
 595 683 595 683 646.5 652.5 c 128,-1,18
 698 622 698 622 733 580 c 1,19,-1
 583 421 l 1,20,21
 555 464 555 464 514 489.5 c 128,-1,22
 473 515 473 515 433 515 c 0,23,24
 388 515 388 515 351 492 c 128,-1,25
 314 469 314 469 292.5 428.5 c 128,-1,26
 271 388 271 388 271 338 c 0,27,28
 271 275 271 275 307.5 234 c 128,-1,29
 344 193 344 193 401 193 c 0,30,31
 439 193 439 193 484.5 214.5 c 128,-1,32
 530 236 530 236 568 273 c 1,33,-1
 688 130 l 1,0,1
EndSplineSet
EndChar

StartChar: uni20B9
Encoding: 8377 8377 652
Width: 640
Flags: W
LayerCount: 2
Fore
SplineSet
653 547 m 1,0,-1
 561 547 l 1,1,2
 566 522 566 522 566 499 c 0,3,4
 566 484 566 484 565 477 c 1,5,-1
 639 477 l 1,6,-1
 625 407 l 1,7,-1
 554 407 l 1,8,9
 539 350 539 350 504.5 305 c 128,-1,10
 470 260 470 260 418 231 c 1,11,-1
 547 0 l 1,12,-1
 285 0 l 1,13,-1
 203 182 l 1,14,-1
 4 182 l 1,15,-1
 36 338 l 1,16,-1
 234 338 l 2,17,18
 265 338 265 338 290.5 357 c 128,-1,19
 316 376 316 376 329 407 c 1,20,-1
 47 407 l 1,21,-1
 61 477 l 1,22,-1
 340 477 l 1,23,24
 336 506 336 506 318.5 525.5 c 128,-1,25
 301 545 301 545 275 545 c 2,26,-1
 75 545 l 1,27,-1
 105 701 l 1,28,-1
 684 701 l 1,29,-1
 653 547 l 1,0,-1
EndSplineSet
EndChar

StartChar: uni20BA
Encoding: 8378 8378 653
Width: 759
Flags: W
LayerCount: 2
Fore
SplineSet
756 361 m 1,0,1
 735 252 735 252 671 170.5 c 128,-1,2
 607 89 607 89 510 44.5 c 128,-1,3
 413 0 413 0 296 0 c 2,4,-1
 36 0 l 1,5,-1
 100 319 l 1,6,-1
 26 299 l 1,7,-1
 45 396 l 1,8,-1
 119 416 l 1,9,-1
 129 464 l 1,10,-1
 54 444 l 1,11,-1
 73 541 l 1,12,-1
 148 562 l 1,13,-1
 176 701 l 1,14,-1
 408 701 l 1,15,-1
 394 629 l 1,16,-1
 573 678 l 1,17,-1
 554 581 l 1,18,-1
 374 532 l 1,19,-1
 365 484 l 1,20,-1
 545 533 l 1,21,-1
 526 436 l 1,22,-1
 345 386 l 1,23,-1
 304 180 l 1,24,-1
 346 180 l 2,25,26
 412 180 412 180 457 228 c 128,-1,27
 502 276 502 276 519 359 c 1,28,-1
 756 361 l 1,0,1
EndSplineSet
EndChar

StartChar: uni20BC
Encoding: 8380 8380 654
Width: 860
Flags: W
LayerCount: 2
Fore
SplineSet
764.5 528 m 128,-1,1
 832 465 832 465 832 366 c 0,2,3
 832 342 832 342 825 303 c 2,4,-1
 765 0 l 1,5,-1
 533 0 l 1,6,-1
 593 303 l 2,7,8
 596 315 596 315 596 327 c 0,9,10
 594 387 594 387 533 407 c 1,11,-1
 453 0 l 1,12,-1
 298 0 l 1,13,-1
 378 405 l 1,14,15
 338 391 338 391 311.5 364.5 c 128,-1,16
 285 338 285 338 278 303 c 2,17,-1
 218 0 l 1,18,-1
 -14 0 l 1,19,-1
 46 303 l 2,20,21
 71 426 71 426 171 507 c 128,-1,22
 271 588 271 588 417 606 c 1,23,-1
 436 701 l 1,24,-1
 591 701 l 1,25,-1
 572 607 l 1,26,0
 697 591 697 591 764.5 528 c 128,-1,1
EndSplineSet
EndChar

StartChar: uni20BD
Encoding: 8381 8381 655
Width: 699
Flags: W
LayerCount: 2
Fore
SplineSet
272 214 m 1,0,-1
 260 155 l 1,1,-1
 465 155 l 1,2,-1
 451 85 l 1,3,-1
 246 85 l 1,4,-1
 229 0 l 1,5,-1
 -3 0 l 1,6,-1
 14 85 l 1,7,-1
 -56 85 l 1,8,-1
 -42 155 l 1,9,-1
 28 155 l 1,10,-1
 137 701 l 1,11,-1
 466 701 l 2,12,13
 583 701 583 701 646 650 c 128,-1,14
 709 599 709 599 709 508 c 0,15,16
 709 368 709 368 617 291 c 128,-1,17
 525 214 525 214 363 214 c 2,18,-1
 272 214 l 1,0,-1
467 510 m 128,-1,20
 450 525 450 525 419 525 c 2,21,-1
 334 525 l 1,22,-1
 304 374 l 1,23,-1
 386 374 l 2,24,25
 484 374 484 374 484 470 c 0,26,19
 484 495 484 495 467 510 c 128,-1,20
EndSplineSet
EndChar

StartChar: uni2113
Encoding: 8467 8467 656
Width: 471
Flags: W
LayerCount: 2
Fore
SplineSet
434 677.5 m 128,-1,1
 465 644 465 644 465 583 c 0,2,3
 465 509 465 509 426.5 443.5 c 128,-1,4
 388 378 388 378 338.5 331 c 128,-1,5
 289 284 289 284 223 233 c 2,6,-1
 206 220 l 1,7,8
 201 197 201 197 201 183 c 0,9,10
 201 133 201 133 248 133 c 0,11,12
 279 133 279 133 306.5 153.5 c 128,-1,13
 334 174 334 174 363 207 c 1,14,-1
 419 131 l 1,15,16
 323 -7 323 -7 190 -7 c 0,17,18
 122 -7 122 -7 86 28.5 c 128,-1,19
 50 64 50 64 45 131 c 1,20,-1
 0 107 l 1,21,-1
 -23 193 l 1,22,-1
 66 250 l 1,23,-1
 117 467 l 2,24,25
 147 590 147 590 207 650.5 c 128,-1,26
 267 711 267 711 344 711 c 0,27,0
 403 711 403 711 434 677.5 c 128,-1,1
269 487 m 2,29,-1
 242 371 l 1,30,31
 283 418 283 418 313.5 466 c 128,-1,32
 344 514 344 514 348 564 c 0,33,34
 350 602 350 602 330 602 c 0,35,28
 296 602 296 602 269 487 c 2,29,-1
EndSplineSet
EndChar

StartChar: uni2116
Encoding: 8470 8470 657
Width: 1305
Flags: W
LayerCount: 2
Fore
SplineSet
1248 667.5 m 128,-1,1
 1297 626 1297 626 1297 555 c 0,2,3
 1297 500 1297 500 1270 457.5 c 128,-1,4
 1243 415 1243 415 1194 392 c 128,-1,5
 1145 369 1145 369 1081 369 c 0,6,7
 997 369 997 369 948.5 411 c 128,-1,8
 900 453 900 453 900 523 c 0,9,10
 900 579 900 579 927 621 c 128,-1,11
 954 663 954 663 1002.5 686 c 128,-1,12
 1051 709 1051 709 1115 709 c 0,13,0
 1199 709 1199 709 1248 667.5 c 128,-1,1
589 341 m 1,14,-1
 661 701 l 1,15,-1
 871 701 l 1,16,-1
 731 0 l 1,17,-1
 537 0 l 1,18,-1
 333 358 l 1,19,-1
 261 0 l 1,20,-1
 50 0 l 1,21,-1
 190 701 l 1,22,-1
 384 701 l 1,23,-1
 589 341 l 1,14,-1
1128 498.5 m 128,-1,25
 1142 516 1142 516 1142 545 c 0,26,27
 1142 568 1142 568 1132 581 c 128,-1,28
 1122 594 1122 594 1103 594 c 0,29,30
 1081 594 1081 594 1067 576 c 128,-1,31
 1053 558 1053 558 1053 529 c 0,32,33
 1053 507 1053 507 1063.5 494 c 128,-1,34
 1074 481 1074 481 1092 481 c 0,35,24
 1114 481 1114 481 1128 498.5 c 128,-1,25
882 156 m 1,36,-1
 909 295 l 1,37,-1
 1209 295 l 1,38,-1
 1182 156 l 1,39,-1
 882 156 l 1,36,-1
EndSplineSet
EndChar

StartChar: trademark
Encoding: 8482 8482 658
Width: 945
Flags: W
LayerCount: 2
Fore
SplineSet
456 701 m 1,0,-1
 427 573 l 1,1,-1
 325 573 l 1,2,-1
 258 280 l 1,3,-1
 97 280 l 1,4,-1
 164 573 l 1,5,-1
 63 573 l 1,6,-1
 92 701 l 1,7,-1
 456 701 l 1,0,-1
993 701 m 1,8,-1
 897 280 l 1,9,-1
 753 280 l 1,10,-1
 797 472 l 1,11,-1
 709 320 l 1,12,-1
 598 320 l 1,13,-1
 578 472 l 1,14,-1
 534 280 l 1,15,-1
 390 280 l 1,16,-1
 486 701 l 1,17,-1
 659 701 l 1,18,-1
 693 509 l 1,19,-1
 817 701 l 1,20,-1
 993 701 l 1,8,-1
EndSplineSet
EndChar

StartChar: estimated
Encoding: 8494 8494 660
Width: 816
Flags: W
LayerCount: 2
Fore
SplineSet
207 308 m 2,1,-1
 207 144 l 2,2,3
 207 135 207 135 215 125 c 0,4,5
 254 83 254 83 307.5 59.5 c 128,-1,6
 361 36 361 36 421 36 c 0,7,8
 484 36 484 36 540.5 62.5 c 128,-1,9
 597 89 597 89 636 135 c 1,10,-1
 685 135 l 1,11,12
 639 81 639 81 569 49.5 c 128,-1,13
 499 18 499 18 420 18 c 0,14,15
 329 18 329 18 252 58.5 c 128,-1,16
 175 99 175 99 130 168 c 128,-1,17
 85 237 85 237 85 319 c 256,18,19
 85 401 85 401 130 470.5 c 128,-1,20
 175 540 175 540 252 580.5 c 128,-1,21
 329 621 329 621 420 621 c 256,22,23
 511 621 511 621 588 580.5 c 128,-1,24
 665 540 665 540 710 470.5 c 128,-1,25
 755 401 755 401 755 319 c 2,26,-1
 755 312 l 1,27,-1
 212 312 l 2,28,0
 207 312 207 312 207 308 c 2,1,-1
624 518 m 0,30,31
 584 558 584 558 531.5 580.5 c 128,-1,32
 479 603 479 603 421 603 c 0,33,34
 362 603 362 603 309 579.5 c 128,-1,35
 256 556 256 556 216 515 c 0,36,37
 207 506 207 506 207 495 c 2,38,-1
 207 333 l 2,39,40
 207 328 207 328 212 328 c 2,41,-1
 628 328 l 2,42,43
 633 328 633 328 633 333 c 2,44,-1
 633 498 l 2,45,29
 633 509 633 509 624 518 c 0,30,31
EndSplineSet
EndChar

StartChar: arrowleft
Encoding: 8592 8592 667
Width: 600
Flags: W
LayerCount: 2
Fore
SplineSet
584 353 m 1,0,-1
 555 204 l 1,1,-1
 283 204 l 1,2,-1
 349 31 l 1,3,-1
 160 31 l 1,4,-1
 48 279 l 1,5,-1
 256 527 l 1,6,-1
 445 527 l 1,7,-1
 312 353 l 1,8,-1
 584 353 l 1,0,-1
EndSplineSet
EndChar

StartChar: arrowup
Encoding: 8593 8593 668
Width: 600
Flags: W
LayerCount: 2
Fore
SplineSet
570 382 m 1,0,-1
 538 219 l 1,1,-1
 394 312 l 1,2,-1
 337 20 l 1,3,-1
 165 20 l 1,4,-1
 222 312 l 1,5,-1
 42 219 l 1,6,-1
 74 382 l 1,7,-1
 353 542 l 1,8,-1
 570 382 l 1,0,-1
EndSplineSet
EndChar

StartChar: arrowright
Encoding: 8594 8594 669
Width: 600
Flags: W
LayerCount: 2
Fore
SplineSet
442 527 m 1,0,-1
 554 279 l 1,1,-1
 346 31 l 1,2,-1
 157 31 l 1,3,-1
 290 205 l 1,4,-1
 18 205 l 1,5,-1
 47 354 l 1,6,-1
 319 354 l 1,7,-1
 253 527 l 1,8,-1
 442 527 l 1,0,-1
EndSplineSet
EndChar

StartChar: arrowdown
Encoding: 8595 8595 670
Width: 600
Flags: W
LayerCount: 2
Fore
SplineSet
381 245 m 1,0,-1
 561 338 l 1,1,-1
 529 175 l 1,2,-1
 250 15 l 1,3,-1
 33 175 l 1,4,-1
 65 338 l 1,5,-1
 209 245 l 1,6,-1
 266 537 l 1,7,-1
 438 537 l 1,8,-1
 381 245 l 1,0,-1
EndSplineSet
EndChar

StartChar: arrowboth
Encoding: 8596 8596 671
Width: 950
Flags: W
LayerCount: 2
Fore
SplineSet
788 527 m 1,0,-1
 900 279 l 1,1,-1
 692 31 l 1,2,-1
 503 31 l 1,3,-1
 636 204 l 1,4,-1
 285 204 l 1,5,-1
 351 31 l 1,6,-1
 162 31 l 1,7,-1
 50 279 l 1,8,-1
 258 527 l 1,9,-1
 447 527 l 1,10,-1
 314 353 l 1,11,-1
 665 353 l 1,12,-1
 599 527 l 1,13,-1
 788 527 l 1,0,-1
EndSplineSet
EndChar

StartChar: arrowupdn
Encoding: 8597 8597 672
Width: 680
Flags: W
LayerCount: 2
Fore
SplineSet
596 398 m 1,0,-1
 452 491 l 1,1,-1
 400 220 l 1,2,-1
 580 313 l 1,3,-1
 548 150 l 1,4,-1
 269 -10 l 1,5,-1
 52 150 l 1,6,-1
 84 313 l 1,7,-1
 228 220 l 1,8,-1
 280 491 l 1,9,-1
 100 398 l 1,10,-1
 132 561 l 1,11,-1
 411 721 l 1,12,-1
 628 561 l 1,13,-1
 596 398 l 1,0,-1
EndSplineSet
EndChar

StartChar: uni2196
Encoding: 8598 8598 673
Width: 620
Flags: W
LayerCount: 2
Fore
SplineSet
573 416 m 1,0,-1
 384 367 l 1,1,-1
 550 161 l 1,2,-1
 405 39 l 1,3,-1
 239 246 l 1,4,-1
 155 66 l 1,5,-1
 62 181 l 1,6,-1
 180 469 l 1,7,-1
 481 532 l 1,8,-1
 573 416 l 1,0,-1
EndSplineSet
EndChar

StartChar: uni2197
Encoding: 8599 8599 674
Width: 604
Flags: W
LayerCount: 2
Fore
SplineSet
556 175 m 1,0,-1
 419 59 l 1,1,-1
 405 239 l 1,2,-1
 158 33 l 1,3,-1
 60 155 l 1,4,-1
 306 361 l 1,5,-1
 136 410 l 1,6,-1
 274 525 l 1,7,-1
 550 463 l 1,8,-1
 556 175 l 1,0,-1
EndSplineSet
EndChar

StartChar: uni2198
Encoding: 8600 8600 675
Width: 620
Flags: W
LayerCount: 2
Fore
SplineSet
479 498 m 1,0,-1
 572 383 l 1,1,-1
 454 95 l 1,2,-1
 153 32 l 1,3,-1
 60 148 l 1,4,-1
 250 197 l 1,5,-1
 84 403 l 1,6,-1
 229 525 l 1,7,-1
 395 318 l 1,8,-1
 479 498 l 1,0,-1
EndSplineSet
EndChar

StartChar: uni2199
Encoding: 8601 8601 676
Width: 604
Flags: W
LayerCount: 2
Fore
SplineSet
557 409 m 1,0,-1
 311 203 l 1,1,-1
 482 154 l 1,2,-1
 344 39 l 1,3,-1
 68 101 l 1,4,-1
 61 389 l 1,5,-1
 199 505 l 1,6,-1
 213 324 l 1,7,-1
 459 531 l 1,8,-1
 557 409 l 1,0,-1
EndSplineSet
EndChar

StartChar: partialdiff
Encoding: 8706 8706 677
Width: 673
Flags: W
LayerCount: 2
Fore
SplineSet
162 17 m 128,-1,1
 104 44 104 44 72.5 94.5 c 128,-1,2
 41 145 41 145 41 212 c 0,3,4
 41 286 41 286 74.5 344.5 c 128,-1,5
 108 403 108 403 168 435.5 c 128,-1,6
 228 468 228 468 304 468 c 0,7,8
 349 468 349 468 381.5 454 c 128,-1,9
 414 440 414 440 433 416 c 1,10,11
 434 423 434 423 434 437 c 0,12,13
 434 533 434 533 320 533 c 0,14,15
 238 533 238 533 164 477 c 1,16,-1
 93 639 l 1,17,18
 145 672 145 672 214 691.5 c 128,-1,19
 283 711 283 711 350 711 c 0,20,21
 442 711 442 711 510 672 c 128,-1,22
 578 633 578 633 614.5 562 c 128,-1,23
 651 491 651 491 651 396 c 0,24,25
 651 276 651 276 607.5 184 c 128,-1,26
 564 92 564 92 483.5 41 c 128,-1,27
 403 -10 403 -10 296 -10 c 0,28,0
 220 -10 220 -10 162 17 c 128,-1,1
395 245 m 0,30,31
 395 300 395 300 331 300 c 0,32,33
 257 300 257 300 257 229 c 0,34,35
 257 174 257 174 319 174 c 0,36,29
 395 174 395 174 395 245 c 0,30,31
EndSplineSet
EndChar

StartChar: emptyset
Encoding: 8709 8709 678
Width: 571
Flags: W
LayerCount: 2
Fore
SplineSet
524 472 m 1,0,1
 556 416 556 416 556 351 c 0,2,3
 556 278 556 278 517.5 214 c 128,-1,4
 479 150 479 150 414.5 111.5 c 128,-1,5
 350 73 350 73 277 73 c 0,6,7
 233 73 233 73 193.5 87.5 c 128,-1,8
 154 102 154 102 123 129 c 1,9,-1
 31 50 l 1,10,-1
 -18 109 l 1,11,-1
 74 188 l 1,12,13
 43 242 43 242 43 307 c 0,14,15
 43 380 43 380 81.5 444 c 128,-1,16
 120 508 120 508 184 546 c 128,-1,17
 248 584 248 584 321 584 c 0,18,19
 364 584 364 584 403 570 c 128,-1,20
 442 556 442 556 473 531 c 1,21,-1
 560 605 l 1,22,-1
 610 546 l 1,23,-1
 524 472 l 1,0,1
192 289 m 1,25,-1
 356 430 l 1,26,27
 333 440 333 440 309 440 c 0,28,29
 277 440 277 440 249 423.5 c 128,-1,30
 221 407 221 407 204.5 379 c 128,-1,31
 188 351 188 351 188 319 c 0,32,24
 188 302 188 302 192 289 c 1,25,-1
406 371 m 1,34,-1
 240 229 l 1,35,36
 261 217 261 217 289 217 c 0,37,38
 321 217 321 217 349.5 233.5 c 128,-1,39
 378 250 378 250 394.5 278 c 128,-1,40
 411 306 411 306 411 338 c 0,41,33
 411 354 411 354 406 371 c 1,34,-1
EndSplineSet
EndChar

StartChar: uni2206
Encoding: 8710 8710 679
Width: 733
Flags: W
LayerCount: 2
Fore
SplineSet
561 701 m 1,0,-1
 711 132 l 1,1,-1
 688 0 l 1,2,-1
 -61 0 l 1,3,-1
 -38 132 l 1,4,-1
 323 701 l 1,5,-1
 561 701 l 1,0,-1
394 474 m 1,6,-1
 213 180 l 1,7,-1
 468 180 l 1,8,-1
 394 474 l 1,6,-1
EndSplineSet
EndChar

StartChar: product
Encoding: 8719 8719 680
Width: 735
Flags: W
LayerCount: 2
Fore
SplineSet
779 742 m 1,0,-1
 591 -194 l 1,1,-1
 366 -194 l 1,2,-1
 518 566 l 1,3,-1
 334 566 l 1,4,-1
 182 -194 l 1,5,-1
 -43 -194 l 1,6,-1
 145 742 l 1,7,-1
 779 742 l 1,0,-1
EndSplineSet
EndChar

StartChar: summation
Encoding: 8721 8721 681
Width: 623
Flags: W
LayerCount: 2
Fore
SplineSet
699 745 m 1,0,-1
 660 552 l 1,1,-1
 358 552 l 1,2,-1
 511 300 l 1,3,-1
 265 55 l 1,4,-1
 571 55 l 1,5,-1
 532 -138 l 1,6,-1
 -58 -138 l 1,7,-1
 -28 20 l 1,8,-1
 266 299 l 1,9,-1
 102 583 l 1,10,-1
 132 745 l 1,11,-1
 699 745 l 1,0,-1
EndSplineSet
EndChar

StartChar: minus
Encoding: 8722 8722 682
Width: 520
Flags: W
LayerCount: 2
Fore
SplineSet
515 399 m 1,0,-1
 487 259 l 1,1,-1
 27 259 l 1,2,-1
 55 399 l 1,3,-1
 515 399 l 1,0,-1
EndSplineSet
EndChar

StartChar: uni2219
Encoding: 8729 8729 684
Width: 370
Flags: W
LayerCount: 2
Fore
SplineSet
310.5 405 m 128,-1,1
 345 373 345 373 345 319 c 0,2,3
 345 268 345 268 320 224.5 c 128,-1,4
 295 181 295 181 251.5 155 c 128,-1,5
 208 129 208 129 156 129 c 0,6,7
 98 129 98 129 63.5 161.5 c 128,-1,8
 29 194 29 194 29 249 c 0,9,10
 29 299 29 299 54 342 c 128,-1,11
 79 385 79 385 122 411 c 128,-1,12
 165 437 165 437 216 437 c 0,13,0
 276 437 276 437 310.5 405 c 128,-1,1
EndSplineSet
EndChar

StartChar: radical
Encoding: 8730 8730 685
Width: 727
Flags: W
LayerCount: 2
Fore
SplineSet
24 418 m 1,0,-1
 306 418 l 1,1,-1
 323 62 l 1,2,-1
 629 742 l 1,3,-1
 846 742 l 1,4,-1
 403 -161 l 1,5,-1
 163 -161 l 1,6,-1
 119 242 l 1,7,-1
 -12 242 l 1,8,-1
 24 418 l 1,0,-1
EndSplineSet
EndChar

StartChar: infinity
Encoding: 8734 8734 686
Width: 840
Flags: W
LayerCount: 2
Fore
SplineSet
733 497.5 m 128,-1,1
 778 471 778 471 803 424 c 128,-1,2
 828 377 828 377 828 316 c 0,3,4
 828 247 828 247 797.5 190.5 c 128,-1,5
 767 134 767 134 713.5 101.5 c 128,-1,6
 660 69 660 69 595 69 c 0,7,8
 532 69 532 69 491.5 98.5 c 128,-1,9
 451 128 451 128 419 181 c 1,10,11
 376 129 376 129 329 99 c 128,-1,12
 282 69 282 69 219 69 c 0,13,14
 161 69 161 69 116 95.5 c 128,-1,15
 71 122 71 122 46 169.5 c 128,-1,16
 21 217 21 217 21 278 c 0,17,18
 21 346 21 346 52 402.5 c 128,-1,19
 83 459 83 459 136.5 491.5 c 128,-1,20
 190 524 190 524 255 524 c 0,21,22
 317 524 317 524 358 494.5 c 128,-1,23
 399 465 399 465 430 413 c 1,24,25
 471 465 471 465 518.5 494.5 c 128,-1,26
 566 524 566 524 630 524 c 0,27,0
 688 524 688 524 733 497.5 c 128,-1,1
292.5 241.5 m 128,-1,29
 321 264 321 264 352 306 c 1,30,31
 330 339 330 339 305.5 356.5 c 128,-1,32
 281 374 281 374 247 374 c 0,33,34
 214 374 214 374 192.5 348.5 c 128,-1,35
 171 323 171 323 171 285 c 0,36,37
 171 253 171 253 186 236 c 128,-1,38
 201 219 201 219 230 219 c 0,39,28
 264 219 264 219 292.5 241.5 c 128,-1,29
655 243.5 m 128,-1,41
 678 268 678 268 678 308 c 0,42,43
 678 340 678 340 662.5 357 c 128,-1,44
 647 374 647 374 618 374 c 0,45,46
 584 374 584 374 555.5 352 c 128,-1,47
 527 330 527 330 496 288 c 1,48,49
 516 255 516 255 539 237 c 128,-1,50
 562 219 562 219 594 219 c 0,51,40
 632 219 632 219 655 243.5 c 128,-1,41
EndSplineSet
EndChar

StartChar: integral
Encoding: 8747 8747 687
Width: 339
Flags: W
LayerCount: 2
Fore
SplineSet
386 705 m 0,1,2
 339 705 339 705 315 680.5 c 128,-1,3
 291 656 291 656 285 601 c 0,4,5
 280 555 280 555 275 385 c 0,6,7
 267 158 267 158 262 116 c 0,8,9
 252 18 252 18 224.5 -39 c 128,-1,10
 197 -96 197 -96 147.5 -122 c 128,-1,11
 98 -148 98 -148 19 -148 c 0,12,13
 -24 -148 -24 -148 -53 -140 c 128,-1,14
 -82 -132 -82 -132 -108 -115 c 1,15,-1
 -74 23 l 1,16,17
 -36 4 -36 4 -8 4 c 0,18,19
 42 4 42 4 67.5 31 c 128,-1,20
 93 58 93 58 99 118 c 0,21,22
 102 147 102 147 105.5 235 c 128,-1,23
 109 323 109 323 110 358 c 0,24,25
 116 560 116 560 120 598 c 0,26,27
 130 695 130 695 156.5 752 c 128,-1,28
 183 809 183 809 232 834.5 c 128,-1,29
 281 860 281 860 360 860 c 0,30,31
 389 860 389 860 414 853.5 c 128,-1,32
 439 847 439 847 471 833 c 1,33,-1
 442 695 l 1,34,0
 415 705 415 705 386 705 c 0,1,2
EndSplineSet
EndChar

StartChar: approxequal
Encoding: 8776 8776 688
Width: 520
Flags: W
LayerCount: 2
Fore
SplineSet
272 538 m 128,-1,1
 291 530 291 530 310 516 c 256,2,3
 329 502 329 502 340 502 c 0,4,5
 354 502 354 502 364.5 512.5 c 128,-1,6
 375 523 375 523 379 543 c 1,7,-1
 527 543 l 1,8,9
 506 440 506 440 465 391 c 128,-1,10
 424 342 424 342 359 342 c 0,11,12
 331 342 331 342 312 350 c 128,-1,13
 293 358 293 358 274 372 c 256,14,15
 255 386 255 386 244 386 c 0,16,17
 231 386 231 386 223 376 c 128,-1,18
 215 366 215 366 210 345 c 1,19,-1
 61 345 l 1,20,21
 81 448 81 448 120.5 497 c 128,-1,22
 160 546 160 546 225 546 c 0,23,0
 253 546 253 546 272 538 c 128,-1,1
224 298 m 128,-1,25
 243 290 243 290 262 276 c 256,26,27
 281 262 281 262 292 262 c 0,28,29
 306 262 306 262 316.5 272.5 c 128,-1,30
 327 283 327 283 331 303 c 1,31,-1
 479 303 l 1,32,33
 458 200 458 200 417 151 c 128,-1,34
 376 102 376 102 311 102 c 0,35,36
 283 102 283 102 264 110 c 128,-1,37
 245 118 245 118 226 132 c 256,38,39
 207 146 207 146 196 146 c 0,40,41
 183 146 183 146 175 136 c 128,-1,42
 167 126 167 126 162 105 c 1,43,-1
 13 105 l 1,44,45
 33 208 33 208 72.5 257 c 128,-1,46
 112 306 112 306 177 306 c 0,47,24
 205 306 205 306 224 298 c 128,-1,25
EndSplineSet
EndChar

StartChar: notequal
Encoding: 8800 8800 689
Width: 521
Flags: W
LayerCount: 2
Fore
SplineSet
509 369 m 1,0,-1
 368 369 l 1,1,-1
 335 289 l 1,2,-1
 493 289 l 1,3,-1
 466 149 l 1,4,-1
 277 149 l 1,5,-1
 221 13 l 1,6,-1
 53 13 l 1,7,-1
 109 149 l 1,8,-1
 6 149 l 1,9,-1
 33 289 l 1,10,-1
 167 289 l 1,11,-1
 200 369 l 1,12,-1
 49 369 l 1,13,-1
 77 509 l 1,14,-1
 258 509 l 1,15,-1
 312 640 l 1,16,-1
 480 640 l 1,17,-1
 426 509 l 1,18,-1
 537 509 l 1,19,-1
 509 369 l 1,0,-1
EndSplineSet
EndChar

StartChar: lessequal
Encoding: 8804 8804 690
Width: 522
Flags: W
LayerCount: 2
Fore
SplineSet
570 666 m 1,0,-1
 539 507 l 1,1,-1
 199 400 l 1,2,-1
 490 283 l 1,3,-1
 463 146 l 1,4,-1
 40 321 l 1,5,-1
 73 490 l 1,6,-1
 570 666 l 1,0,-1
462 124 m 1,7,-1
 434 -16 l 1,8,-1
 -26 -16 l 1,9,-1
 2 124 l 1,10,-1
 462 124 l 1,7,-1
EndSplineSet
EndChar

StartChar: greaterequal
Encoding: 8805 8805 691
Width: 551
Flags: W
LayerCount: 2
Fore
SplineSet
7 155 m 1,0,-1
 38 314 l 1,1,-1
 378 421 l 1,2,-1
 87 538 l 1,3,-1
 114 676 l 1,4,-1
 537 500 l 1,5,-1
 504 331 l 1,6,-1
 7 155 l 1,0,-1
491 124 m 1,7,-1
 463 -16 l 1,8,-1
 3 -16 l 1,9,-1
 31 124 l 1,10,-1
 491 124 l 1,7,-1
EndSplineSet
EndChar

StartChar: filledbox
Encoding: 9632 9632 692
Width: 600
Flags: W
LayerCount: 2
Fore
SplineSet
106 459 m 1,0,-1
 494 459 l 1,1,-1
 494 71 l 1,2,-1
 106 71 l 1,3,-1
 106 459 l 1,0,-1
EndSplineSet
EndChar

StartChar: uni25A1
Encoding: 9633 9633 693
Width: 600
Flags: W
LayerCount: 2
Fore
SplineSet
144 459 m 1,0,-1
 532 459 l 1,1,-1
 456 71 l 1,2,-1
 68 71 l 1,3,-1
 144 459 l 1,0,-1
234 347 m 1,4,-1
 202 183 l 1,5,-1
 366 183 l 1,6,-1
 398 347 l 1,7,-1
 234 347 l 1,4,-1
EndSplineSet
EndChar

StartChar: triagup
Encoding: 9650 9650 694
Width: 600
Flags: W
LayerCount: 2
Fore
SplineSet
341 478 m 1,0,-1
 472 52 l 1,1,-1
 46 52 l 1,2,-1
 341 478 l 1,0,-1
EndSplineSet
EndChar

StartChar: uni25B3
Encoding: 9651 9651 695
Width: 600
Flags: W
LayerCount: 2
Fore
SplineSet
341 478 m 1,0,-1
 472 52 l 1,1,-1
 46 52 l 1,2,-1
 341 478 l 1,0,-1
303 282 m 1,3,-1
 205 140 l 1,4,-1
 347 140 l 1,5,-1
 303 282 l 1,3,-1
EndSplineSet
EndChar

StartChar: uni25B6
Encoding: 9654 9654 696
Width: 600
Flags: W
LayerCount: 2
Fore
SplineSet
541 266 m 1,0,-1
 74 53 l 1,1,-1
 156 479 l 1,2,-1
 541 266 l 1,0,-1
EndSplineSet
EndChar

StartChar: uni25B7
Encoding: 9655 9655 697
Width: 600
Flags: W
LayerCount: 2
Fore
SplineSet
541 266 m 1,0,-1
 74 53 l 1,1,-1
 156 479 l 1,2,-1
 541 266 l 1,0,-1
345 266 m 1,3,-1
 217 337 l 1,4,-1
 189 195 l 1,5,-1
 345 266 l 1,3,-1
EndSplineSet
EndChar

StartChar: triagdn
Encoding: 9660 9660 698
Width: 600
Flags: W
LayerCount: 2
Fore
SplineSet
259 52 m 1,0,-1
 128 478 l 1,1,-1
 554 478 l 1,2,-1
 259 52 l 1,0,-1
EndSplineSet
EndChar

StartChar: uni25BD
Encoding: 9661 9661 699
Width: 600
Flags: W
LayerCount: 2
Fore
SplineSet
259 52 m 1,0,-1
 128 478 l 1,1,-1
 554 478 l 1,2,-1
 259 52 l 1,0,-1
297 248 m 1,3,-1
 395 390 l 1,4,-1
 253 390 l 1,5,-1
 297 248 l 1,3,-1
EndSplineSet
EndChar

StartChar: uni25C0
Encoding: 9664 9664 700
Width: 600
Flags: W
LayerCount: 2
Fore
SplineSet
58 265 m 1,0,-1
 525 478 l 1,1,-1
 443 52 l 1,2,-1
 58 265 l 1,0,-1
EndSplineSet
EndChar

StartChar: uni25C1
Encoding: 9665 9665 701
Width: 600
Flags: W
LayerCount: 2
Fore
SplineSet
58 265 m 1,0,-1
 525 478 l 1,1,-1
 443 52 l 1,2,-1
 58 265 l 1,0,-1
254 265 m 1,3,-1
 382 194 l 1,4,-1
 410 336 l 1,5,-1
 254 265 l 1,3,-1
EndSplineSet
EndChar

StartChar: uni25C6
Encoding: 9670 9670 702
Width: 600
Flags: W
LayerCount: 2
Fore
SplineSet
353 540 m 1,0,-1
 574 265 l 1,1,-1
 246 -9 l 1,2,-1
 25 265 l 1,3,-1
 353 540 l 1,0,-1
EndSplineSet
EndChar

StartChar: uni25C7
Encoding: 9671 9671 703
Width: 600
Flags: W
LayerCount: 2
Fore
SplineSet
353 540 m 1,0,-1
 574 265 l 1,1,-1
 246 -9 l 1,2,-1
 25 265 l 1,3,-1
 353 540 l 1,0,-1
322 381 m 1,4,-1
 183 265 l 1,5,-1
 277 149 l 1,6,-1
 415 265 l 1,7,-1
 322 381 l 1,4,-1
EndSplineSet
EndChar

StartChar: lozenge
Encoding: 9674 9674 704
Width: 482
Flags: W
LayerCount: 2
Fore
SplineSet
315 666 m 1,0,-1
 478 330 l 1,1,-1
 188 -9 l 1,2,-1
 26 330 l 1,3,-1
 315 666 l 1,0,-1
282 453 m 1,4,-1
 169 330 l 1,5,-1
 222 205 l 1,6,-1
 335 330 l 1,7,-1
 282 453 l 1,4,-1
EndSplineSet
EndChar

StartChar: uniA78B
Encoding: 42891 42891 705
Width: 342
Flags: W
LayerCount: 2
Fore
SplineSet
140 701 m 1,0,-1
 372 701 l 1,1,-1
 262 296 l 1,2,-1
 60 296 l 1,3,-1
 140 701 l 1,0,-1
EndSplineSet
EndChar

StartChar: uniA78C
Encoding: 42892 42892 706
Width: 334
Flags: W
LayerCount: 2
Fore
SplineSet
140 701 m 1,0,-1
 364 701 l 1,1,-1
 254 296 l 1,2,-1
 60 296 l 1,3,-1
 140 701 l 1,0,-1
EndSplineSet
Substitution2: "<3,3> Small Caps in Latin lookup 11 subtable" uniA78C.sc
EndChar

StartChar: fl
Encoding: 64258 64258 708
Width: 769
Flags: W
LayerCount: 2
Fore
SplineSet
340 375 m 1,0,-1
 265 0 l 1,1,-1
 41 0 l 1,2,-1
 116 375 l 1,3,-1
 41 375 l 1,4,-1
 69 517 l 1,5,-1
 144 517 l 1,6,-1
 156 575 l 2,7,8
 173 658 173 658 238 705 c 128,-1,9
 303 752 303 752 402 752 c 0,10,11
 461 752 461 752 516 737 c 1,12,-1
 483 569 l 1,13,14
 469 575 469 575 461.5 576.5 c 128,-1,15
 454 578 454 578 443 578 c 0,16,17
 417 578 417 578 395.5 561.5 c 128,-1,18
 374 545 374 545 370 523 c 2,19,-1
 369 517 l 1,20,-1
 474 517 l 1,21,-1
 446 375 l 1,22,-1
 340 375 l 1,0,-1
577 742 m 1,23,-1
 802 742 l 1,24,-1
 654 0 l 1,25,-1
 429 0 l 1,26,-1
 577 742 l 1,23,-1
EndSplineSet
Ligature2: "<1,2> Common Ligatures in Latin lookup 13 subtable" f l
EndChar

StartChar: Adieresis.alt
Encoding: 65540 -1 711
Width: 799
Flags: W
LayerCount: 2
Fore
SplineSet
138 586 m 128,-1,1
 123 601 123 601 123 625 c 0,2,3
 123 658 123 658 146.5 681 c 128,-1,4
 170 704 170 704 203 704 c 0,5,6
 229 704 229 704 244 688.5 c 128,-1,7
 259 673 259 673 259 649 c 0,8,9
 259 617 259 617 235 594 c 128,-1,10
 211 571 211 571 178 571 c 0,11,0
 153 571 153 571 138 586 c 128,-1,1
762 688.5 m 128,-1,13
 777 673 777 673 777 649 c 0,14,15
 777 617 777 617 753 594 c 128,-1,16
 729 571 729 571 696 571 c 0,17,18
 671 571 671 571 656 586 c 128,-1,19
 641 601 641 601 641 625 c 0,20,21
 641 658 641 658 665 681 c 128,-1,22
 689 704 689 704 722 704 c 0,23,12
 747 704 747 704 762 688.5 c 128,-1,13
347 701 m 1,24,-1
 585 701 l 1,25,-1
 754 0 l 1,26,-1
 505 0 l 1,27,-1
 487 99 l 1,28,-1
 224 99 l 1,29,-1
 171 0 l 1,30,-1
 -65 0 l 1,31,-1
 347 701 l 1,24,-1
312 265 m 1,32,-1
 458 265 l 1,33,-1
 421 469 l 1,34,-1
 312 265 l 1,32,-1
EndSplineSet
EndChar

StartChar: Udieresis.alt
Encoding: 65541 -1 712
Width: 754
Flags: W
LayerCount: 2
Fore
SplineSet
503 687.5 m 128,-1,1
 518 672 518 672 518 648 c 0,2,3
 518 616 518 616 494 593 c 128,-1,4
 470 570 470 570 437 570 c 0,5,6
 412 570 412 570 397 585 c 128,-1,7
 382 600 382 600 382 624 c 0,8,9
 382 657 382 657 405.5 680 c 128,-1,10
 429 703 429 703 462 703 c 0,11,0
 488 703 488 703 503 687.5 c 128,-1,1
718 297 m 2,12,13
 700 204 700 204 647 135 c 128,-1,14
 594 66 594 66 513.5 28 c 128,-1,15
 433 -10 433 -10 333 -10 c 0,16,17
 244 -10 244 -10 177.5 19.5 c 128,-1,18
 111 49 111 49 74.5 104 c 128,-1,19
 38 159 38 159 38 233 c 0,20,21
 38 259 38 259 45 297 c 2,22,-1
 126 701 l 1,23,-1
 358 701 l 1,24,-1
 277 297 l 2,25,26
 274 284 274 284 274 271 c 0,27,28
 274 231 274 231 299 207 c 128,-1,29
 324 183 324 183 362 183 c 0,30,31
 406 183 406 183 441 214.5 c 128,-1,32
 476 246 476 246 486 297 c 2,33,-1
 567 701 l 1,34,-1
 799 701 l 1,35,-1
 718 297 l 2,12,13
468 522.5 m 128,-1,37
 483 507 483 507 483 483 c 0,38,39
 483 451 483 451 459 428 c 128,-1,40
 435 405 435 405 402 405 c 0,41,42
 377 405 377 405 362 420 c 128,-1,43
 347 435 347 435 347 459 c 0,44,45
 347 492 347 492 371 515 c 128,-1,46
 395 538 395 538 428 538 c 0,47,36
 453 538 453 538 468 522.5 c 128,-1,37
EndSplineSet
EndChar

StartChar: Udieresis.ss01.alt
Encoding: 65542 -1 713
Width: 761
Flags: W
LayerCount: 2
Fore
SplineSet
503 687.5 m 128,-1,1
 518 672 518 672 518 648 c 0,2,3
 518 616 518 616 494 593 c 128,-1,4
 470 570 470 570 437 570 c 0,5,6
 412 570 412 570 397 585 c 128,-1,7
 382 600 382 600 382 624 c 0,8,9
 382 657 382 657 405.5 680 c 128,-1,10
 429 703 429 703 462 703 c 0,11,0
 488 703 488 703 503 687.5 c 128,-1,1
77.5 35.5 m 128,-1,13
 27 86 27 86 27 174 c 0,14,15
 27 208 27 208 34 243 c 2,16,-1
 126 701 l 1,17,-1
 361 701 l 1,18,-1
 281 299 l 2,19,20
 278 283 278 283 278 269 c 0,21,22
 278 233 278 233 297 213 c 128,-1,23
 316 193 316 193 352 193 c 0,24,25
 403 193 403 193 439 223.5 c 128,-1,26
 475 254 475 254 486 306 c 2,27,-1
 565 701 l 1,28,-1
 797 701 l 1,29,-1
 657 0 l 1,30,-1
 425 0 l 1,31,-1
 445 98 l 1,32,33
 400 43 400 43 342 14 c 128,-1,34
 284 -15 284 -15 218 -15 c 0,35,12
 128 -15 128 -15 77.5 35.5 c 128,-1,13
468 522.5 m 128,-1,37
 483 507 483 507 483 483 c 0,38,39
 483 451 483 451 459 428 c 128,-1,40
 435 405 435 405 402 405 c 0,41,42
 377 405 377 405 362 420 c 128,-1,43
 347 435 347 435 347 459 c 0,44,45
 347 492 347 492 371 515 c 128,-1,46
 395 538 395 538 428 538 c 0,47,36
 453 538 453 538 468 522.5 c 128,-1,37
EndSplineSet
EndChar

StartChar: A.ss01
Encoding: 65543 -1 714
Width: 751
Flags: W
LayerCount: 2
Fore
SplineSet
609 686.5 m 128,-1,1
 673 657 673 657 707 603 c 128,-1,2
 741 549 741 549 741 476 c 0,3,4
 741 442 741 442 734 408 c 2,5,-1
 656 0 l 1,6,-1
 424 0 l 1,7,-1
 452 149 l 1,8,-1
 249 149 l 1,9,-1
 221 0 l 1,10,-1
 -11 0 l 1,11,-1
 67 408 l 2,12,13
 85 500 85 500 139 570 c 128,-1,14
 193 640 193 640 275.5 678 c 128,-1,15
 358 716 358 716 457 716 c 0,16,0
 545 716 545 716 609 686.5 c 128,-1,1
505 437 m 0,18,19
 505 477 505 477 483 500 c 128,-1,20
 461 523 461 523 422 523 c 0,21,22
 376 523 376 523 342.5 491.5 c 128,-1,23
 309 460 309 460 299 408 c 2,24,-1
 281 315 l 1,25,-1
 484 315 l 1,26,-1
 502 408 l 2,27,17
 505 423 505 423 505 437 c 0,18,19
EndSplineSet
EndChar

StartChar: Aogonek.ss01
Encoding: 65564 -1 735
Width: 751
Flags: W
LayerCount: 2
Fore
SplineSet
609 686.5 m 128,-1,1
 673 657 673 657 707 603 c 128,-1,2
 741 549 741 549 741 476 c 0,3,4
 741 442 741 442 734 408 c 2,5,-1
 656 0 l 1,6,-1
 591 0 l 1,7,8
 551 -25 551 -25 527.5 -49 c 128,-1,9
 504 -73 504 -73 504 -98 c 0,10,11
 504 -116 504 -116 520 -116 c 0,12,13
 531 -116 531 -116 547 -108 c 1,14,-1
 555 -219 l 1,15,16
 492 -244 492 -244 442 -244 c 0,17,18
 394 -244 394 -244 370.5 -218.5 c 128,-1,19
 347 -193 347 -193 347 -151 c 0,20,21
 347 -75 347 -75 425 0 c 1,22,-1
 424 0 l 1,23,-1
 452 149 l 1,24,-1
 249 149 l 1,25,-1
 221 0 l 1,26,-1
 -11 0 l 1,27,-1
 67 408 l 2,28,29
 85 500 85 500 139 570 c 128,-1,30
 193 640 193 640 275.5 678 c 128,-1,31
 358 716 358 716 457 716 c 0,32,0
 545 716 545 716 609 686.5 c 128,-1,1
484 315 m 1,33,-1
 502 408 l 2,34,35
 505 423 505 423 505 437 c 0,36,37
 505 477 505 477 483 500 c 128,-1,38
 461 523 461 523 422 523 c 0,39,40
 376 523 376 523 342.5 491.5 c 128,-1,41
 309 460 309 460 299 408 c 2,42,-1
 281 315 l 1,43,-1
 484 315 l 1,33,-1
EndSplineSet
EndChar

StartChar: E.ss01
Encoding: 65570 -1 741
Width: 686
Flags: W
LayerCount: 2
Fore
SplineSet
608.5 703.5 m 128,-1,1
 682 688 682 688 725 663 c 1,2,-1
 619 494 l 1,3,4
 579 512 579 512 531.5 522.5 c 128,-1,5
 484 533 484 533 439 533 c 0,6,7
 387 533 387 533 357.5 517.5 c 128,-1,8
 328 502 328 502 328 477 c 0,9,10
 328 459 328 459 345.5 449.5 c 128,-1,11
 363 440 363 440 388 440 c 2,12,-1
 581 440 l 1,13,-1
 548 272 l 1,14,-1
 355 272 l 2,15,16
 310 272 310 272 283 258 c 128,-1,17
 256 244 256 244 256 219 c 0,18,19
 256 196 256 196 282.5 183 c 128,-1,20
 309 170 309 170 351 170 c 0,21,22
 411 170 411 170 473.5 188.5 c 128,-1,23
 536 207 536 207 582 234 c 1,24,-1
 636 67 l 1,25,26
 569 29 569 29 476.5 6.5 c 128,-1,27
 384 -16 384 -16 292 -16 c 0,28,29
 214 -16 214 -16 149 5 c 128,-1,30
 84 26 84 26 45.5 66.5 c 128,-1,31
 7 107 7 107 7 161 c 0,32,33
 7 175 7 175 10 190 c 0,34,35
 22 253 22 253 68.5 300 c 128,-1,36
 115 347 115 347 189 370 c 1,37,38
 154 389 154 389 135 421 c 128,-1,39
 116 453 116 453 116 494 c 0,40,41
 116 510 116 510 119 528 c 0,42,43
 136 617 136 617 226 668 c 128,-1,44
 316 719 316 719 456 719 c 0,45,0
 535 719 535 719 608.5 703.5 c 128,-1,1
EndSplineSet
EndChar

StartChar: uni1E1C.ss01
Encoding: 65574 -1 745
Width: 686
Flags: W
LayerCount: 2
Fore
SplineSet
323 785 m 128,-1,1
 282 823 282 823 282 888 c 0,2,3
 282 903 282 903 285 921 c 1,4,-1
 420 921 l 1,5,6
 418 898 418 898 428.5 884.5 c 128,-1,7
 439 871 439 871 459 871 c 256,8,9
 479 871 479 871 495 884.5 c 128,-1,10
 511 898 511 898 518 921 c 1,11,-1
 653 921 l 1,12,13
 633 841 633 841 574 794 c 128,-1,14
 515 747 515 747 435 747 c 0,15,0
 364 747 364 747 323 785 c 128,-1,1
513 16 m 128,-1,17
 443 -5 443 -5 369 -12 c 1,18,-1
 345 -54 l 1,19,20
 381 -64 381 -64 398.5 -83.5 c 128,-1,21
 416 -103 416 -103 416 -129 c 0,22,23
 416 -186 416 -186 369.5 -215 c 128,-1,24
 323 -244 323 -244 256 -244 c 0,25,26
 196 -244 196 -244 139 -223 c 1,27,-1
 188 -130 l 1,28,29
 211 -139 211 -139 235 -139 c 0,30,31
 255 -139 255 -139 268.5 -132 c 128,-1,32
 282 -125 282 -125 282 -114 c 256,33,34
 282 -103 282 -103 266 -97 c 128,-1,35
 250 -91 250 -91 228 -91 c 2,36,-1
 208 -91 l 1,37,-1
 248 -14 l 1,38,39
 143 -5 143 -5 75 41 c 128,-1,40
 7 87 7 87 7 160 c 0,41,42
 7 175 7 175 10 190 c 0,43,44
 22 253 22 253 68.5 300 c 128,-1,45
 115 347 115 347 189 370 c 1,46,47
 154 389 154 389 135 421 c 128,-1,48
 116 453 116 453 116 494 c 0,49,50
 116 510 116 510 119 528 c 0,51,52
 136 617 136 617 226 668 c 128,-1,53
 316 719 316 719 456 719 c 0,54,55
 535 719 535 719 608.5 703.5 c 128,-1,56
 682 688 682 688 725 663 c 1,57,-1
 619 494 l 1,58,59
 579 512 579 512 531.5 522.5 c 128,-1,60
 484 533 484 533 439 533 c 0,61,62
 387 533 387 533 357.5 517.5 c 128,-1,63
 328 502 328 502 328 477 c 0,64,65
 328 459 328 459 345.5 449.5 c 128,-1,66
 363 440 363 440 388 440 c 2,67,-1
 581 440 l 1,68,-1
 548 272 l 1,69,-1
 355 272 l 2,70,71
 310 272 310 272 283 258 c 128,-1,72
 256 244 256 244 256 219 c 0,73,74
 256 196 256 196 282.5 183 c 128,-1,75
 309 170 309 170 351 170 c 0,76,77
 411 170 411 170 473.5 188.5 c 128,-1,78
 536 207 536 207 582 234 c 1,79,-1
 636 67 l 1,80,16
 583 37 583 37 513 16 c 128,-1,17
EndSplineSet
EndChar

StartChar: Eogonek.ss01
Encoding: 65591 -1 762
Width: 686
Flags: W
LayerCount: 2
Fore
SplineSet
473.5 188.5 m 128,-1,1
 536 207 536 207 582 234 c 1,2,-1
 636 67 l 1,3,4
 581 24 581 24 547.5 -21 c 128,-1,5
 514 -66 514 -66 514 -97 c 0,6,7
 514 -116 514 -116 529 -116 c 0,8,9
 540 -116 540 -116 556 -108 c 1,10,-1
 564 -219 l 1,11,12
 534 -231 534 -231 509.5 -237.5 c 128,-1,13
 485 -244 485 -244 456 -244 c 0,14,15
 411 -244 411 -244 383 -222 c 128,-1,16
 355 -200 355 -200 355 -156 c 0,17,18
 355 -113 355 -113 377 -76 c 128,-1,19
 399 -39 399 -39 448 0 c 1,20,21
 366 -16 366 -16 292 -16 c 0,22,23
 214 -16 214 -16 149 5 c 128,-1,24
 84 26 84 26 45.5 66.5 c 128,-1,25
 7 107 7 107 7 161 c 0,26,27
 7 175 7 175 10 190 c 0,28,29
 22 253 22 253 68.5 300 c 128,-1,30
 115 347 115 347 189 370 c 1,31,32
 154 389 154 389 135 421 c 128,-1,33
 116 453 116 453 116 494 c 0,34,35
 116 510 116 510 119 528 c 0,36,37
 136 617 136 617 226 668 c 128,-1,38
 316 719 316 719 456 719 c 0,39,40
 535 719 535 719 608.5 703.5 c 128,-1,41
 682 688 682 688 725 663 c 1,42,-1
 619 494 l 1,43,44
 579 512 579 512 531.5 522.5 c 128,-1,45
 484 533 484 533 439 533 c 0,46,47
 387 533 387 533 357.5 517.5 c 128,-1,48
 328 502 328 502 328 477 c 0,49,50
 328 459 328 459 345.5 449.5 c 128,-1,51
 363 440 363 440 388 440 c 2,52,-1
 581 440 l 1,53,-1
 548 272 l 1,54,-1
 355 272 l 2,55,56
 310 272 310 272 283 258 c 128,-1,57
 256 244 256 244 256 219 c 0,58,59
 256 196 256 196 282.5 183 c 128,-1,60
 309 170 309 170 351 170 c 0,61,0
 411 170 411 170 473.5 188.5 c 128,-1,1
EndSplineSet
EndChar

StartChar: F.ss01
Encoding: 65593 -1 764
Width: 575
Flags: W
LayerCount: 2
Fore
SplineSet
341.5 500 m 128,-1,1
 313 477 313 477 307 445 c 2,2,-1
 299 405 l 1,3,-1
 550 405 l 1,4,-1
 515 229 l 1,5,-1
 264 229 l 1,6,-1
 218 0 l 1,7,-1
 -15 0 l 1,8,-1
 79 468 l 2,9,10
 102 584 102 584 187 650 c 128,-1,11
 272 716 272 716 396 716 c 0,12,13
 473 716 473 716 545 701.5 c 128,-1,14
 617 687 617 687 663 664 c 1,15,-1
 585 481 l 1,16,17
 543 500 543 500 493 511.5 c 128,-1,18
 443 523 443 523 406 523 c 0,19,0
 370 523 370 523 341.5 500 c 128,-1,1
EndSplineSet
EndChar

StartChar: G.ss01
Encoding: 65594 -1 765
Width: 747
Flags: W
LayerCount: 2
Fore
SplineSet
542 370 m 1,0,-1
 741 370 l 1,1,-1
 668 0 l 1,2,-1
 499 0 l 1,3,-1
 505 30 l 1,4,5
 427 -16 427 -16 351 -16 c 0,6,7
 257 -16 257 -16 184.5 26.5 c 128,-1,8
 112 69 112 69 72 144.5 c 128,-1,9
 32 220 32 220 32 315 c 0,10,11
 32 428 32 428 89 520 c 128,-1,12
 146 612 146 612 244.5 664 c 128,-1,13
 343 716 343 716 462 716 c 0,14,15
 545 716 545 716 625.5 686 c 128,-1,16
 706 656 706 656 758 606 c 1,17,-1
 611 447 l 1,18,19
 580 481 580 481 534.5 502 c 128,-1,20
 489 523 489 523 445 523 c 0,21,22
 398 523 398 523 358 498 c 128,-1,23
 318 473 318 473 294.5 429 c 128,-1,24
 271 385 271 385 271 332 c 0,25,26
 271 264 271 264 306 220.5 c 128,-1,27
 341 177 341 177 398 177 c 0,28,29
 427 177 427 177 458 190 c 128,-1,30
 489 203 489 203 514 225 c 1,31,-1
 542 370 l 1,0,-1
EndSplineSet
EndChar

StartChar: I.ss01
Encoding: 65601 -1 772
Width: 525
Flags: W
LayerCount: 2
Fore
SplineSet
535 525 m 1,0,-1
 429 525 l 1,1,-1
 359 176 l 1,2,-1
 465 176 l 1,3,-1
 430 0 l 1,4,-1
 -14 0 l 1,5,-1
 21 176 l 1,6,-1
 127 176 l 1,7,-1
 197 525 l 1,8,-1
 91 525 l 1,9,-1
 126 701 l 1,10,-1
 570 701 l 1,11,-1
 535 525 l 1,0,-1
EndSplineSet
EndChar

StartChar: Iogonek.ss01
Encoding: 65616 -1 787
Width: 525
Flags: W
LayerCount: 2
Fore
SplineSet
429 525 m 1,0,-1
 359 176 l 1,1,-1
 465 176 l 1,2,-1
 430 0 l 1,3,-1
 255 0 l 1,4,5
 215 -25 215 -25 191.5 -49 c 128,-1,6
 168 -73 168 -73 168 -98 c 0,7,8
 168 -116 168 -116 184 -116 c 0,9,10
 195 -116 195 -116 211 -108 c 1,11,-1
 219 -219 l 1,12,13
 156 -244 156 -244 106 -244 c 0,14,15
 58 -244 58 -244 34.5 -218.5 c 128,-1,16
 11 -193 11 -193 11 -151 c 0,17,18
 11 -75 11 -75 89 0 c 1,19,-1
 -14 0 l 1,20,-1
 21 176 l 1,21,-1
 127 176 l 1,22,-1
 197 525 l 1,23,-1
 91 525 l 1,24,-1
 126 701 l 1,25,-1
 570 701 l 1,26,-1
 535 525 l 1,27,-1
 429 525 l 1,0,-1
EndSplineSet
EndChar

StartChar: J.ss01
Encoding: 65618 -1 789
Width: 567
Flags: W
LayerCount: 2
Fore
SplineSet
612 701 m 1,0,-1
 498 128 l 2,1,2
 474 12 474 12 395.5 -49 c 128,-1,3
 317 -110 317 -110 199 -110 c 0,4,5
 36 -110 36 -110 -59 18 c 1,6,-1
 66 156 l 1,7,8
 96 118 96 118 130 100.5 c 128,-1,9
 164 83 164 83 190 83 c 0,10,11
 219 83 219 83 241.5 102 c 128,-1,12
 264 121 264 121 270 151 c 2,13,-1
 344 518 l 1,14,-1
 105 518 l 1,15,-1
 141 701 l 1,16,-1
 612 701 l 1,0,-1
EndSplineSet
EndChar

StartChar: M.ss01
Encoding: 65622 -1 793
Width: 1160
Flags: W
LayerCount: 2
Fore
SplineSet
1117 666 m 128,-1,1
 1165 616 1165 616 1165 530 c 0,2,3
 1165 498 1165 498 1157 458 c 2,4,-1
 1065 0 l 1,5,-1
 830 0 l 1,6,-1
 910 402 l 2,7,8
 914 426 914 426 914 436 c 0,9,10
 914 470 914 470 896.5 489 c 128,-1,11
 879 508 879 508 845 508 c 0,12,13
 801 508 801 508 768 477 c 128,-1,14
 735 446 735 446 725 395 c 2,15,-1
 646 0 l 1,16,-1
 411 0 l 1,17,-1
 491 402 l 2,18,19
 495 426 495 426 495 436 c 0,20,21
 495 470 495 470 477.5 489 c 128,-1,22
 460 508 460 508 426 508 c 0,23,24
 382 508 382 508 349 477 c 128,-1,25
 316 446 316 446 306 395 c 2,26,-1
 227 0 l 1,27,-1
 -5 0 l 1,28,-1
 135 701 l 1,29,-1
 367 701 l 1,30,-1
 348 606 l 1,31,32
 390 659 390 659 446 687.5 c 128,-1,33
 502 716 502 716 565 716 c 0,34,35
 639 716 639 716 685 678 c 128,-1,36
 731 640 731 640 742 571 c 1,37,38
 785 640 785 640 848 678 c 128,-1,39
 911 716 911 716 984 716 c 0,40,0
 1069 716 1069 716 1117 666 c 128,-1,1
EndSplineSet
EndChar

StartChar: N.ss01
Encoding: 65624 -1 795
Width: 761
Flags: W
LayerCount: 2
Fore
SplineSet
714.5 665.5 m 128,-1,1
 765 615 765 615 765 527 c 0,2,3
 765 493 765 493 758 458 c 2,4,-1
 666 0 l 1,5,-1
 431 0 l 1,6,-1
 511 402 l 2,7,8
 514 419 514 419 514 432 c 0,9,10
 514 468 514 468 495 488 c 128,-1,11
 476 508 476 508 440 508 c 0,12,13
 389 508 389 508 353 477.5 c 128,-1,14
 317 447 317 447 306 395 c 2,15,-1
 227 0 l 1,16,-1
 -5 0 l 1,17,-1
 135 701 l 1,18,-1
 367 701 l 1,19,-1
 347 603 l 1,20,21
 392 658 392 658 450 687 c 128,-1,22
 508 716 508 716 574 716 c 0,23,0
 664 716 664 716 714.5 665.5 c 128,-1,1
EndSplineSet
EndChar

StartChar: Eng.ss01
Encoding: 65631 -1 802
Width: 761
Flags: W
LayerCount: 2
Fore
SplineSet
711.5 650.5 m 128,-1,1
 762 600 762 600 762 511 c 0,2,3
 762 477 762 477 755 443 c 2,4,-1
 666 0 l 1,5,6
 638 -106 638 -106 555.5 -165.5 c 128,-1,7
 473 -225 473 -225 357 -225 c 0,8,9
 265 -225 265 -225 196 -185 c 1,10,-1
 302 -10 l 1,11,12
 347 -32 347 -32 381 -32 c 0,13,14
 424 -32 424 -32 433 12 c 2,15,-1
 508 387 l 2,16,17
 511 404 511 404 511 417 c 0,18,19
 511 453 511 453 492 473 c 128,-1,20
 473 493 473 493 437 493 c 0,21,22
 386 493 386 493 350 462.5 c 128,-1,23
 314 432 314 432 303 380 c 2,24,-1
 227 0 l 1,25,-1
 -5 0 l 1,26,-1
 135 701 l 1,27,-1
 367 701 l 1,28,-1
 344 588 l 1,29,30
 389 643 389 643 447 672 c 128,-1,31
 505 701 505 701 571 701 c 0,32,0
 661 701 661 701 711.5 650.5 c 128,-1,1
EndSplineSet
EndChar

StartChar: Q.ss01
Encoding: 65635 -1 806
Width: 807
Flags: W
LayerCount: 2
Fore
SplineSet
761.5 199.5 m 128,-1,1
 716 115 716 115 636 59.5 c 128,-1,2
 556 4 556 4 455 -11 c 1,3,-1
 428 -150 l 1,4,-1
 218 -150 l 1,5,-1
 249 6 l 1,6,7
 149 41 149 41 91 124 c 128,-1,8
 33 207 33 207 33 318 c 0,9,10
 33 431 33 431 89 522 c 128,-1,11
 145 613 145 613 242 664.5 c 128,-1,12
 339 716 339 716 457 716 c 0,13,14
 560 716 560 716 639.5 673.5 c 128,-1,15
 719 631 719 631 763 556 c 128,-1,16
 807 481 807 481 807 385 c 0,17,0
 807 284 807 284 761.5 199.5 c 128,-1,1
485.5 202.5 m 128,-1,19
 523 228 523 228 545.5 272 c 128,-1,20
 568 316 568 316 568 369 c 0,21,22
 568 436 568 436 531.5 479.5 c 128,-1,23
 495 523 495 523 440 523 c 0,24,25
 397 523 397 523 358.5 498 c 128,-1,26
 320 473 320 473 296 429.5 c 128,-1,27
 272 386 272 386 272 334 c 0,28,29
 272 290 272 290 290 254 c 128,-1,30
 308 218 308 218 338.5 197.5 c 128,-1,31
 369 177 369 177 405 177 c 0,32,18
 448 177 448 177 485.5 202.5 c 128,-1,19
EndSplineSet
EndChar

StartChar: uni018F.ss01
Encoding: 65636 -1 807
Width: 757
Flags: W
LayerCount: 2
Fore
SplineSet
592 674 m 128,-1,1
 670 632 670 632 713.5 557.5 c 128,-1,2
 757 483 757 483 757 388 c 0,3,4
 757 276 757 276 702.5 183.5 c 128,-1,5
 648 91 648 91 554.5 37.5 c 128,-1,6
 461 -16 461 -16 349 -16 c 0,7,8
 246 -16 246 -16 174.5 23.5 c 128,-1,9
 103 63 103 63 64 126 c 128,-1,10
 25 189 25 189 14 264 c 1,11,-1
 502 455 l 1,12,13
 487 488 487 488 460 505.5 c 128,-1,14
 433 523 433 523 400 523 c 0,15,16
 358 523 358 523 321 500 c 128,-1,17
 284 477 284 477 261 438 c 1,18,-1
 117 603 l 1,19,20
 174 657 174 657 250 686.5 c 128,-1,21
 326 716 326 716 413 716 c 0,22,0
 514 716 514 716 592 674 c 128,-1,1
466 218.5 m 128,-1,24
 504 260 504 260 514 326 c 1,25,-1
 271 229 l 1,26,27
 287 204 287 204 312 190.5 c 128,-1,28
 337 177 337 177 368 177 c 0,29,23
 428 177 428 177 466 218.5 c 128,-1,24
EndSplineSet
EndChar

StartChar: T.ss01
Encoding: 65637 -1 808
Width: 713
Flags: W
LayerCount: 2
Fore
SplineSet
672 461 m 1,0,1
 599 500 599 500 516 516 c 1,2,-1
 413 0 l 1,3,-1
 181 0 l 1,4,-1
 284 516 l 1,5,6
 191 500 191 500 106 461 c 1,7,-1
 82 632 l 1,8,9
 164 673 164 673 255.5 694.5 c 128,-1,10
 347 716 347 716 439 716 c 256,11,12
 531 716 531 716 614 694 c 128,-1,13
 697 672 697 672 764 631 c 1,14,-1
 672 461 l 1,0,1
EndSplineSet
EndChar

StartChar: Tbar.ss01
Encoding: 65638 -1 809
Width: 713
Flags: W
LayerCount: 2
Fore
SplineSet
516 516 m 1,1,-1
 485 359 l 1,2,-1
 590 359 l 1,3,-1
 567 240 l 1,4,-1
 461 240 l 1,5,-1
 413 0 l 1,6,-1
 181 0 l 1,7,-1
 229 240 l 1,8,-1
 112 240 l 1,9,-1
 135 359 l 1,10,-1
 253 359 l 1,11,-1
 284 516 l 1,12,13
 191 500 191 500 106 461 c 1,14,-1
 82 632 l 1,15,16
 164 673 164 673 255.5 694.5 c 128,-1,17
 347 716 347 716 439 716 c 256,18,19
 531 716 531 716 614 694 c 128,-1,20
 697 672 697 672 764 631 c 1,21,-1
 672 461 l 1,22,0
 599 500 599 500 516 516 c 1,1,-1
EndSplineSet
EndChar

StartChar: uni0162.ss01
Encoding: 65640 -1 811
Width: 713
Flags: W
LayerCount: 2
Fore
SplineSet
672 461 m 1,0,1
 599 500 599 500 516 516 c 1,2,-1
 413 0 l 1,3,-1
 359 0 l 1,4,-1
 328 -54 l 1,5,6
 364 -64 364 -64 381.5 -83.5 c 128,-1,7
 399 -103 399 -103 399 -129 c 0,8,9
 399 -186 399 -186 352.5 -215 c 128,-1,10
 306 -244 306 -244 239 -244 c 0,11,12
 179 -244 179 -244 122 -223 c 1,13,-1
 171 -130 l 1,14,15
 194 -139 194 -139 218 -139 c 0,16,17
 238 -139 238 -139 251.5 -132 c 128,-1,18
 265 -125 265 -125 265 -114 c 256,19,20
 265 -103 265 -103 249 -97 c 128,-1,21
 233 -91 233 -91 211 -91 c 2,22,-1
 191 -91 l 1,23,-1
 238 0 l 1,24,-1
 181 0 l 1,25,-1
 284 516 l 1,26,27
 191 500 191 500 106 461 c 1,28,-1
 82 632 l 1,29,30
 164 673 164 673 255.5 694.5 c 128,-1,31
 347 716 347 716 439 716 c 256,32,33
 531 716 531 716 614 694 c 128,-1,34
 697 672 697 672 764 631 c 1,35,-1
 672 461 l 1,0,1
EndSplineSet
EndChar

StartChar: U.ss01
Encoding: 65644 -1 815
Width: 761
Flags: W
LayerCount: 2
Fore
SplineSet
77.5 35.5 m 128,-1,1
 27 86 27 86 27 174 c 0,2,3
 27 208 27 208 34 243 c 2,4,-1
 126 701 l 1,5,-1
 361 701 l 1,6,-1
 281 299 l 2,7,8
 278 283 278 283 278 269 c 0,9,10
 278 233 278 233 297 213 c 128,-1,11
 316 193 316 193 352 193 c 0,12,13
 403 193 403 193 439 223.5 c 128,-1,14
 475 254 475 254 486 306 c 2,15,-1
 565 701 l 1,16,-1
 797 701 l 1,17,-1
 657 0 l 1,18,-1
 425 0 l 1,19,-1
 445 98 l 1,20,21
 400 43 400 43 342 14 c 128,-1,22
 284 -15 284 -15 218 -15 c 0,23,0
 128 -15 128 -15 77.5 35.5 c 128,-1,1
EndSplineSet
EndChar

StartChar: Uhorn.ss01
Encoding: 65653 -1 824
Width: 851
Flags: W
LayerCount: 2
Fore
SplineSet
941 794 m 0,1,2
 941 719 941 719 899 670 c 128,-1,3
 857 621 857 621 777 602 c 1,4,-1
 657 0 l 1,5,-1
 425 0 l 1,6,-1
 445 98 l 1,7,8
 400 43 400 43 342 14 c 128,-1,9
 284 -15 284 -15 218 -15 c 0,10,11
 128 -15 128 -15 77.5 35.5 c 128,-1,12
 27 86 27 86 27 174 c 0,13,14
 27 208 27 208 34 243 c 2,15,-1
 126 701 l 1,16,-1
 361 701 l 1,17,-1
 281 299 l 2,18,19
 278 283 278 283 278 269 c 0,20,21
 278 233 278 233 297 213 c 128,-1,22
 316 193 316 193 352 193 c 0,23,24
 403 193 403 193 439 223.5 c 128,-1,25
 475 254 475 254 486 306 c 2,26,-1
 565 701 l 1,27,-1
 717 701 l 2,28,29
 747 701 747 701 762.5 721 c 128,-1,30
 778 741 778 741 778 768 c 0,31,32
 778 789 778 789 770 802 c 1,33,-1
 934 859 l 1,34,0
 941 827 941 827 941 794 c 0,1,2
EndSplineSet
EndChar

